<?xml version="1.0" encoding="UTF-8" standalone="no"?>
<!-- Created with Inkscape (http://www.inkscape.org/) -->

<svg
   width="129.22101mm"
   height="63.481663mm"
   viewBox="0 0 129.22101 63.481663"
   version="1.1"
   id="svg12429"
   inkscape:version="1.2.2 (b0a8486541, 2022-12-01)"
   sodipodi:docname="Logo of the Bureau International des Poids et Mesures.svg"
   xmlns:inkscape="http://www.inkscape.org/namespaces/inkscape"
   xmlns:sodipodi="http://sodipodi.sourceforge.net/DTD/sodipodi-0.dtd"
   xmlns="http://www.w3.org/2000/svg"
   xmlns:svg="http://www.w3.org/2000/svg">
  <sodipodi:namedview
     id="namedview12431"
     pagecolor="#ffffff"
     bordercolor="#000000"
     borderopacity="0.25"
     inkscape:showpageshadow="2"
     inkscape:pageopacity="0.0"
     inkscape:pagecheckerboard="0"
     inkscape:deskcolor="#d1d1d1"
     inkscape:document-units="mm"
     showgrid="false"
     inkscape:zoom="0.7198092"
     inkscape:cx="251.45552"
     inkscape:cy="354.26054"
     inkscape:window-width="1866"
     inkscape:window-height="1011"
     inkscape:window-x="0"
     inkscape:window-y="0"
     inkscape:window-maximized="1"
     inkscape:current-layer="layer1" />
  <defs
     id="defs12426">
    <clipPath
       clipPathUnits="userSpaceOnUse"
       id="clipPath12267">
      <path
         d="M 0,0 H 595.275 V 841.89 H 0 Z"
         id="path12265" />
    </clipPath>
  </defs>
  <g
     inkscape:label="Layer 1"
     inkscape:groupmode="layer"
     id="layer1"
     transform="translate(-38.506998,-54.637531)">
    <g
       id="g12261"
       transform="matrix(0.77264958,0,0,-0.77264958,-5.844401,661.3192)">
      <g
         id="g12263"
         clip-path="url(#clipPath12267)">
        <g
           id="g12269"
           transform="translate(61.3037,750.5754)">
          <path
             d="m 0,0 v -47.429 h -1.213 v 47.43 l -2.689,2.689 2.689,2.689 v 9.624 H 0 V 5.38 L 2.69,2.69 Z m 19.539,-19.675 -2.69,2.691 v 9.665 h -1.213 v -9.667 l -2.689,-2.689 2.689,-2.688 v -25.066 h 1.213 v 25.063 z m 16.843,-22.289 -2.69,2.69 v 9.641 h -1.213 v -9.642 l -2.689,-2.689 2.689,-2.689 v -2.776 h 1.213 v 2.775 z M 4.76,19.777 c 3.389,0 5.413,1.568 5.413,4.195 0,1.939 -0.814,3.214 -2.353,3.687 l -0.357,0.11 0.283,0.243 c 0.7,0.6 1.055,1.504 1.055,2.684 0,2.641 -1.461,3.925 -4.466,3.925 H -1.213 V 19.777 Z M 3.751,25.81 h 10e-4 c 1.393,0 2.321,-0.247 2.321,-1.451 C 6.073,23.761 5.788,23.366 5.2,23.154 4.679,22.966 4.015,22.95 3.435,22.95 H 2.85 v 2.854 z M 2.85,31.449 3.056,31.448 c 1.008,-0.005 1.993,-0.108 1.993,-1.274 0,-1.122 -0.967,-1.273 -1.994,-1.273 H 2.85 Z m 17.583,-7.69 v 5.336 H 18.42 v -5.143 c 0,-1.789 -0.602,-2.587 -1.95,-2.587 -1.349,0 -1.95,0.798 -1.95,2.587 v 5.143 h -2.014 v -5.336 c 0,-2.727 1.445,-4.291 3.964,-4.291 2.518,0 3.963,1.564 3.963,4.291 m 4.803,-3.982 v 4.582 c 0,1.429 0.224,3.07 1.97,3.07 0.404,0 0.713,-0.106 0.972,-0.333 l 0.134,-0.117 0.927,1.854 -0.104,0.067 c -0.472,0.299 -1.004,0.459 -1.536,0.459 -0.768,0 -1.499,-0.326 -2.004,-0.892 l -0.359,-0.404 v 1.032 h -2.013 v -9.318 z m 13.55,2.235 0.064,0.119 -1.702,0.963 -0.069,-0.114 c -0.616,-1.016 -1.292,-1.692 -2.588,-1.692 -1.545,0 -2.411,1.291 -2.562,2.49 L 31.9,24.009 h 6.902 v 0.407 c 0,3.053 -1.674,4.949 -4.369,4.949 -2.802,0 -4.543,-1.918 -4.543,-5.006 0,-2.88 1.884,-4.891 4.582,-4.891 1.835,0 3.447,0.951 4.314,2.544 m -2.088,3.848 0.076,-0.262 h -4.76 l 0.088,0.269 c 0.343,1.059 1.237,1.717 2.331,1.717 1.125,0 1.951,-0.629 2.265,-1.724 m 11.136,-5.288 0.349,0.344 v -1.139 h 2.013 v 9.318 H 48.183 V 27.87 l -0.352,0.356 c -0.734,0.745 -1.661,1.139 -2.68,1.139 -2.863,0 -4.407,-2.509 -4.407,-4.871 0,-2.497 1.534,-5.026 4.465,-5.026 0.968,0 1.9,0.392 2.625,1.104 m 0.446,3.863 c 0,-1.566 -0.866,-3.147 -2.8,-3.147 -1.871,0 -2.723,1.631 -2.723,3.147 0,1.545 0.935,3.11 2.723,3.11 1.934,0 2.8,-1.562 2.8,-3.11 m 12.263,-0.676 v 5.336 h -2.014 v -5.143 c 0,-1.789 -0.601,-2.587 -1.949,-2.587 -1.349,0 -1.95,0.798 -1.95,2.587 v 5.143 h -2.014 v -5.336 c 0,-2.727 1.445,-4.291 3.964,-4.291 2.518,0 3.963,1.564 3.963,4.291 M 19.699,12.293 H 15.637 V -2.552 h 4.062 z M 30.468,-2.552 v 5.529 c 0,2.769 -1.062,4.06 -3.344,4.06 -0.873,0 -1.684,-0.303 -2.282,-0.851 L 24.498,5.87 v 0.896 h -2.014 v -9.318 h 2.014 V 1.74 c 0,2.036 0.15,3.476 2.104,3.476 1.576,0 1.853,-0.791 1.853,-2.452 v -5.316 z m 5.051,0 v 7.42 h 1.701 v 1.898 h -1.701 v 3.459 H 33.506 V 6.766 H 32.559 V 4.868 h 0.947 v -7.42 z m 11.842,2.235 0.064,0.119 -1.702,0.963 -0.069,-0.113 c -0.615,-1.016 -1.291,-1.693 -2.587,-1.693 -1.546,0 -2.412,1.291 -2.562,2.49 L 40.476,1.68 h 6.902 v 0.408 c 0,3.052 -1.675,4.949 -4.37,4.949 -2.802,0 -4.542,-1.919 -4.542,-5.007 0,-2.879 1.884,-4.891 4.581,-4.891 1.835,0 3.447,0.952 4.314,2.544 M 45.274,3.531 45.349,3.269 H 40.59 l 0.087,0.269 c 0.345,1.059 1.238,1.717 2.331,1.717 1.126,0 1.952,-0.628 2.266,-1.724 m 6.413,-6.083 V 2.03 c 0,1.43 0.223,3.07 1.969,3.07 0.404,0 0.713,-0.106 0.973,-0.333 l 0.134,-0.117 0.926,1.854 -0.104,0.067 c -0.472,0.3 -1.003,0.458 -1.535,0.458 -0.769,0 -1.499,-0.325 -2.004,-0.892 L 51.687,5.735 v 1.031 h -2.014 v -9.318 z m 13.755,0 v 5.529 c 0,2.769 -1.063,4.06 -3.345,4.06 -0.872,0 -1.683,-0.303 -2.281,-0.851 L 59.471,5.87 v 0.896 h -2.014 v -9.318 h 2.014 V 1.74 c 0,2.036 0.151,3.476 2.104,3.476 1.577,0 1.854,-0.791 1.854,-2.452 v -5.316 z m 9.289,0.796 0.349,0.344 v -1.14 h 2.013 V 6.766 H 75.08 V 5.541 l -0.352,0.357 c -0.735,0.745 -1.662,1.139 -2.68,1.139 -2.863,0 -4.408,-2.51 -4.408,-4.872 0,-2.497 1.534,-5.026 4.466,-5.026 0.968,0 1.9,0.392 2.625,1.105 m 0.445,3.863 c 0,-1.567 -0.865,-3.148 -2.8,-3.148 -1.871,0 -2.723,1.632 -2.723,3.148 0,1.545 0.936,3.109 2.723,3.109 1.935,0 2.8,-1.562 2.8,-3.109 m 7.331,-4.659 v 7.42 h 1.701 v 1.898 h -1.701 v 3.459 H 80.493 V 6.766 H 79.546 V 4.868 h 0.947 v -7.42 z m 6.008,9.318 h -2.014 v -9.318 h 2.014 z m 0.329,3.998 c 0,0.746 -0.6,1.355 -1.336,1.355 -0.737,0 -1.337,-0.609 -1.337,-1.355 0,-0.725 0.6,-1.315 1.337,-1.315 0.736,0 1.336,0.59 1.336,1.315 m 11.77,-8.676 c 0,2.775 -2.181,4.949 -4.965,4.949 -2.787,0 -4.969,-2.174 -4.969,-4.949 0,-2.775 2.182,-4.949 4.969,-4.949 2.784,0 4.965,2.174 4.965,4.949 m -2.01,0 c 0,-1.661 -1.328,-3.012 -2.955,-3.012 -1.631,0 -2.956,1.351 -2.956,3.012 0,1.661 1.325,3.012 2.956,3.012 1.627,0 2.955,-1.351 2.955,-3.012 m 12.274,-4.64 v 5.529 c 0,2.769 -1.063,4.06 -3.344,4.06 -0.873,0 -1.684,-0.303 -2.283,-0.852 L 104.905,5.87 v 0.896 h -2.01 v -9.318 h 2.01 V 1.74 c 0,2.036 0.153,3.476 2.107,3.476 1.574,0 1.852,-0.791 1.852,-2.452 v -5.316 z m 9.141,0.796 0.351,0.343 v -1.139 h 2.01 v 9.318 h -2.01 V 5.541 l -0.354,0.357 c -0.733,0.745 -1.659,1.139 -2.679,1.139 -2.864,0 -4.409,-2.51 -4.409,-4.872 0,-2.497 1.534,-5.026 4.465,-5.026 0.969,0 1.901,0.393 2.626,1.105 m 0.447,3.863 c 0,-1.567 -0.867,-3.148 -2.803,-3.148 -1.868,0 -2.722,1.632 -2.722,3.148 0,1.545 0.937,3.109 2.722,3.109 1.936,0 2.803,-1.562 2.803,-3.109 m 6.765,12.389 h -2.01 V -2.552 h 2.01 z m 14.591,-16.252 0.351,0.343 v -1.139 h 2.01 v 17.048 h -2.01 V 5.541 l -0.353,0.356 c -0.737,0.746 -1.671,1.14 -2.699,1.14 -2.851,0 -4.39,-2.51 -4.39,-4.872 0,-2.959 1.837,-5.026 4.465,-5.026 0.969,0 1.901,0.393 2.626,1.105 m 0.447,3.863 c 0,-1.567 -0.867,-3.148 -2.8,-3.148 -1.871,0 -2.725,1.632 -2.725,3.148 0,1.545 0.937,3.109 2.725,3.109 1.933,0 2.8,-1.562 2.8,-3.109 m 12.882,-2.422 0.064,0.117 -1.7,0.963 -0.07,-0.113 c -0.615,-1.016 -1.293,-1.693 -2.588,-1.693 -1.545,0 -2.412,1.291 -2.562,2.49 l -0.029,0.231 h 6.901 v 0.408 c 0,3.052 -1.673,4.949 -4.369,4.949 -2.803,0 -4.543,-1.919 -4.543,-5.007 0,-2.879 1.885,-4.891 4.583,-4.891 1.834,0 3.448,0.952 4.313,2.546 m -2.086,3.846 0.075,-0.262 h -4.759 l 0.088,0.269 c 0.343,1.059 1.237,1.717 2.329,1.717 1.127,0 1.951,-0.628 2.267,-1.724 m 10.277,-3.259 c 0,1.501 -1.041,2.183 -2.166,2.693 l -0.399,0.178 c -0.875,0.384 -1.63,0.717 -1.63,1.322 0,0.45 0.42,0.751 0.811,0.751 0.415,0 0.833,-0.287 1.036,-0.714 l 0.062,-0.129 1.654,0.883 -0.059,0.119 c -0.519,1.056 -1.464,1.662 -2.596,1.662 -1.548,0 -2.803,-1.241 -2.803,-2.766 0,-1.32 0.784,-1.848 1.81,-2.401 l 1.689,-0.901 c 0.39,-0.26 0.578,-0.457 0.578,-0.871 0,-0.748 -0.624,-1.139 -1.237,-1.139 -0.661,0 -1.103,0.315 -1.52,1.087 l -0.062,0.112 -1.721,-0.781 0.045,-0.12 c 0.479,-1.267 1.789,-2.118 3.258,-2.118 1.823,0 3.25,1.376 3.25,3.133 m -126.8,-25.167 v 4.83 h 2.007 c 3.514,0 5.297,1.711 5.297,5.084 0,3.133 -1.981,4.929 -5.433,4.929 h -5.934 v -14.843 z m 0,11.517 h 0.5 c 1.446,0 2.587,0 2.587,-1.718 0,-1.643 -1.199,-1.643 -2.587,-1.643 h -0.5 z m 18.414,-6.878 c 0,2.774 -2.182,4.948 -4.968,4.948 -2.786,0 -4.969,-2.174 -4.969,-4.948 0,-2.775 2.183,-4.948 4.969,-4.948 2.786,0 4.968,2.173 4.968,4.948 m -2.014,0 c 0,-1.661 -1.325,-3.013 -2.954,-3.013 -1.63,0 -2.955,1.352 -2.955,3.013 0,1.661 1.325,3.013 2.955,3.013 1.629,0 2.954,-1.352 2.954,-3.013 m 6.585,4.678 h -2.013 v -9.317 h 2.013 z m 0.329,3.998 c 0,0.747 -0.599,1.354 -1.335,1.354 -0.736,0 -1.335,-0.607 -1.335,-1.354 0,-0.726 0.599,-1.315 1.335,-1.315 0.736,0 1.335,0.589 1.335,1.315 m 9.323,-12.519 0.349,0.343 v -1.139 h 2.013 v 17.046 h -2.013 v -8.954 l -0.351,0.356 c -0.738,0.746 -1.671,1.139 -2.7,1.139 -2.851,0 -4.388,-2.51 -4.388,-4.871 0,-2.959 1.836,-5.025 4.465,-5.025 0.968,0 1.899,0.392 2.625,1.105 m 0.446,3.862 c 0,-1.568 -0.866,-3.148 -2.8,-3.148 -1.872,0 -2.723,1.631 -2.723,3.148 0,1.545 0.935,3.11 2.723,3.11 1.934,0 2.8,-1.562 2.8,-3.11 m 10.855,-1.835 c 0,1.503 -1.041,2.183 -2.166,2.694 l -0.396,0.177 c -0.875,0.385 -1.631,0.717 -1.631,1.322 0,0.45 0.419,0.752 0.809,0.752 0.416,0 0.832,-0.288 1.036,-0.716 l 0.062,-0.128 1.654,0.884 -0.058,0.118 c -0.518,1.056 -1.465,1.661 -2.596,1.661 -1.546,0 -2.805,-1.241 -2.805,-2.765 0,-1.32 0.786,-1.849 1.813,-2.4 l 1.689,-0.902 c 0.39,-0.261 0.575,-0.458 0.575,-0.871 0,-0.747 -0.621,-1.139 -1.234,-1.139 -0.662,0 -1.103,0.315 -1.522,1.088 l -0.061,0.112 -1.721,-0.782 0.045,-0.121 c 0.48,-1.266 1.789,-2.116 3.259,-2.116 1.821,0 3.248,1.376 3.248,3.132 m 15.313,-0.588 0.064,0.119 -1.702,0.962 -0.07,-0.113 c -0.615,-1.016 -1.29,-1.693 -2.586,-1.693 -1.546,0 -2.412,1.291 -2.563,2.49 l -0.028,0.232 h 6.901 v 0.407 c 0,3.053 -1.673,4.948 -4.368,4.948 -2.802,0 -4.543,-1.918 -4.543,-5.006 0,-2.88 1.884,-4.89 4.581,-4.89 1.835,0 3.447,0.951 4.314,2.544 m -2.088,3.847 0.075,-0.263 h -4.758 l 0.088,0.269 c 0.343,1.06 1.237,1.719 2.331,1.719 1.124,0 1.948,-0.629 2.264,-1.725 m 6.548,-6.082 v 7.42 h 1.702 v 1.897 h -1.702 v 3.458 h -2.01 v -3.458 h -0.948 v -1.897 h 0.948 v -7.42 z m -34.342,-22.336 -2.244,14.843 h -3.979 l -3.034,-7.547 -2.866,7.547 h -3.94 l -2.519,-14.843 h 4.048 l 1.172,8.068 3.216,-8.068 h 1.691 l 3.365,8.068 1.023,-8.068 z m 10.435,2.235 0.065,0.119 -1.702,0.962 -0.069,-0.113 c -0.617,-1.016 -1.293,-1.693 -2.588,-1.693 -1.545,0 -2.411,1.291 -2.563,2.49 l -0.028,0.232 h 6.902 v 0.407 c 0,3.053 -1.674,4.948 -4.369,4.948 -2.802,0 -4.543,-1.918 -4.543,-5.006 0,-2.88 1.884,-4.89 4.582,-4.89 1.834,0 3.447,0.951 4.313,2.544 m -2.087,3.847 0.076,-0.263 h -4.76 l 0.088,0.269 c 0.343,1.06 1.236,1.719 2.331,1.719 1.125,0 1.95,-0.629 2.265,-1.725 m 10.279,-3.259 c 0,1.503 -1.042,2.183 -2.166,2.694 l -0.396,0.177 c -0.876,0.385 -1.632,0.717 -1.632,1.322 0,0.45 0.419,0.752 0.81,0.752 0.416,0 0.832,-0.288 1.036,-0.716 l 0.061,-0.128 1.655,0.884 -0.058,0.118 c -0.518,1.056 -1.465,1.661 -2.597,1.661 -1.546,0 -2.804,-1.241 -2.804,-2.765 0,-1.32 0.786,-1.849 1.812,-2.4 l 1.689,-0.902 c 0.391,-0.261 0.577,-0.458 0.577,-0.871 0,-0.747 -0.622,-1.139 -1.236,-1.139 -0.661,0 -1.102,0.315 -1.522,1.088 l -0.061,0.112 -1.721,-0.781 0.046,-0.122 c 0.48,-1.266 1.789,-2.116 3.258,-2.116 1.822,0 3.249,1.376 3.249,3.132 m 9.784,1.159 v 5.335 h -2.011 v -5.143 c 0,-1.789 -0.603,-2.587 -1.952,-2.587 -1.348,0 -1.949,0.798 -1.949,2.587 v 5.143 h -2.013 v -5.335 c 0,-2.728 1.444,-4.291 3.962,-4.291 2.519,0 3.963,1.563 3.963,4.291 m 4.57,-3.982 v 4.581 c 0,1.43 0.225,3.071 1.97,3.071 0.404,0 0.713,-0.107 0.972,-0.334 l 0.134,-0.117 0.927,1.855 -0.104,0.065 c -0.473,0.3 -1.004,0.458 -1.536,0.458 -0.768,0 -1.499,-0.324 -2.003,-0.89 l -0.36,-0.403 v 1.031 H 96.88 v -9.317 z m 13.819,2.235 0.064,0.119 -1.701,0.962 -0.069,-0.113 c -0.616,-1.016 -1.292,-1.693 -2.588,-1.693 -1.545,0 -2.411,1.291 -2.561,2.49 l -0.03,0.232 h 6.901 v 0.407 c 0,3.053 -1.673,4.948 -4.368,4.948 -2.802,0 -4.542,-1.918 -4.542,-5.006 0,-2.88 1.883,-4.89 4.582,-4.89 1.835,0 3.446,0.951 4.312,2.544 m -2.086,3.847 0.075,-0.263 h -4.759 l 0.087,0.269 c 0.344,1.06 1.237,1.719 2.331,1.719 1.125,0 1.95,-0.629 2.266,-1.725 m 10.277,-3.259 c 0,1.507 -1.094,2.208 -2.165,2.694 l -0.392,0.172 c -0.877,0.387 -1.636,0.722 -1.636,1.327 0,0.45 0.419,0.752 0.81,0.752 0.416,0 0.832,-0.288 1.036,-0.715 l 0.061,-0.129 1.655,0.884 -0.059,0.118 c -0.518,1.056 -1.464,1.661 -2.597,1.661 -1.546,0 -2.802,-1.241 -2.802,-2.765 0,-1.32 0.784,-1.849 1.809,-2.4 l 1.691,-0.902 c 0.39,-0.261 0.576,-0.458 0.576,-0.871 0,-0.747 -0.622,-1.139 -1.235,-1.139 -0.661,0 -1.103,0.315 -1.522,1.088 l -0.061,0.112 -1.72,-0.781 0.045,-0.122 c 0.479,-1.266 1.79,-2.116 3.258,-2.116 1.822,0 3.248,1.376 3.248,3.132"
             style="fill:#005b93;fill-opacity:1;fill-rule:nonzero;stroke:none"
             id="path12271" />
        </g>
      </g>
    </g>
  </g>
</svg>
