<?xml version="1.0" encoding="UTF-8" standalone="no"?>
<svg width="96px" height="28px" viewBox="0 0 96 28" version="1.1" xmlns="http://www.w3.org/2000/svg" xmlns:xlink="http://www.w3.org/1999/xlink">
    <!-- Generator: Sketch 40.3 (33839) - http://www.bohemiancoding.com/sketch -->
    <title>Logo_Tablet</title>
    <desc>Created with Sketch.</desc>
    <defs></defs>
    <g id="Page-1" stroke="none" stroke-width="1" fill="none" fill-rule="evenodd">
        <g id="EON_Webicons_in_usage" transform="translate(-617.000000, -1143.000000)" fill="#000000">
            <g id="Tablet-Header-Bsp" transform="translate(-283.000000, 1097.000000)">
                <g transform="translate(24.000000, 18.000000)" id="Logo_Tablet">
                    <path d="M971.55158,38.3606573 C971.55158,41.5626317 967.742515,52.5256606 967.117559,54.1709745 C966.706651,55.2520075 965.919557,55.4050442 964.899874,55.4050442 C963.054331,55.4050442 961.662505,54.9658219 960.983952,54.4224403 C960.843388,54.3105279 960.669452,54.0705231 960.787432,53.718943 C961.481153,51.6512611 964.114465,44.2060555 964.114465,42.5974839 C964.114465,41.7170168 963.853898,41.054981 962.974779,41.054981 C957.645121,41.054981 947.853127,52.4272317 946.034888,54.4601938 C945.439933,55.1245892 944.56823,55.2648167 943.549895,55.2648167 C942.289532,55.2648167 940.947258,54.5960392 940.819503,54.5299705 C940.421068,54.3240113 940.402191,54.0964787 940.520171,53.6161319 L940.854897,52.254981 C941.467381,49.7649311 944.640029,40.5523867 946.839511,35.5598146 C946.932884,35.3487991 947.024234,35.1735147 947.501884,35.0990188 C947.723686,35.064299 948.451454,34.8947451 949.46507,34.8947451 C950.208343,34.8947451 951.652754,34.9476675 952.376813,35.3359899 C952.376813,35.3359899 952.382881,35.3252032 952.382881,36.5403961 C952.382881,37.0652381 952.440185,38.8497683 954.119882,38.8497683 C956.954433,38.8497683 962.100042,33.9849515 966.649684,33.9849515 C970.64954,33.9849515 971.55158,36.453091 971.55158,38.3606573 M914.955276,42.3851201 C914.955276,43.0498525 914.180991,44.8795522 914.071438,45.1498947 C913.375357,46.8666707 911.550039,47.1451032 910.26507,47.1451032 C908.337278,47.1451032 907.674905,46.4527298 907.674905,45.360236 C907.674905,44.5148257 908.386155,43.0552459 908.479865,42.8401854 C909.34786,40.8513814 910.901487,40.6353097 912.434888,40.6353097 C913.735027,40.6353097 914.955276,41.1759947 914.955276,42.3851201 M898.469777,38.1850358 C898.469777,36.918943 898.410113,35.1047493 897.420093,35.1047493 C894.197893,35.1047493 888.537555,40.032601 887.969903,40.5999157 C887.549895,41.0202612 887.864058,40.9848673 888.424968,40.9848673 L895.669945,40.9848673 C898.236851,40.9848673 898.469777,40.5530609 898.469777,38.1850358 M906.204876,38.8497683 C906.204876,45.0534882 902.388732,46.3401433 898.154939,46.3401433 L895.18016,46.3401433 C892.207067,46.3401433 886.219756,46.1648588 886.219756,46.1648588 C885.739409,46.1554205 885.380076,46.0600253 885.380076,46.3401433 C885.380076,48.3629928 887.668549,51.4153013 891.155023,51.4153013 C893.900584,51.4153013 895.669945,49.7002107 896.054897,49.2940228 C896.054897,49.2940228 899.209679,48.9299705 901.234888,48.9299705 C903.201445,48.9299705 906.100042,49.2448083 906.100042,50.3649431 C906.100042,52.5499308 899.001023,56 893.045061,56 C884.077578,56 876,51.1284416 876,45.2550653 C876,35.4131824 894.9951,28 900.535099,28 C905.5243,28 906.204876,35.9461145 906.204876,38.8497683 M930.005129,38.6401011 C929.329609,38.6401011 928.325095,38.7452718 927.869692,39.3749473 C926.164714,41.7355565 925.034804,47.6382592 925.034804,49.2802023 C925.034804,50.4013483 925.813808,50.3298862 926.854728,50.3298862 C927.460471,50.3298862 928.438018,50.3450551 928.989827,49.7703244 C930.487835,48.2099561 931.78022,41.1392524 931.78022,39.8627099 C931.78022,38.9549389 931.714826,38.6401011 930.005129,38.6401011 M941.274568,38.3249263 C941.274568,41.0195871 938.613953,46.9361103 937.759104,48.5797388 C934.184988,55.451562 929.410173,55.4050442 924.019503,55.4050442 C921.385517,55.4050442 915.514838,55.4353819 915.514838,50.5048336 C915.514838,48.2996208 917.436562,44.2576296 919.014796,40.4253055 C919.685933,38.7954975 922.545091,33.319882 932.279781,33.319882 C936.295142,33.319882 941.274568,33.9502317 941.274568,38.3249263"></path>
                </g>
            </g>
        </g>
    </g>
</svg>