<?xml version="1.0" encoding="UTF-8"?>
<svg width="800px" height="140px" viewBox="0 0 800 140" version="1.1" xmlns="http://www.w3.org/2000/svg" xmlns:xlink="http://www.w3.org/1999/xlink">
    <title>Registered-FP-Horizontal-White</title>
    <g id="Page-1" stroke="none" stroke-width="1" fill="none" fill-rule="evenodd">
        <g id="Registered-FP-Horizontal-White" transform="translate(-0, 0)" fill="#000000">
            <path d="M22.0186003,10.7957 C34.6609003,4.39745 50.2282003,0 66.9654003,0 C82.8476003,0 98.9619003,4.19771 111.64,10.6139 C113.617,11.6147 114.409,14.0291 113.408,16.0067 C112.407,17.9842 109.993,18.776 108.015,17.7751 C96.4142003,11.9038 81.5367003,8.02618 66.9654003,8.02618 C51.6131003,8.02618 37.2795003,12.0677 25.6430003,17.957 C23.6654003,18.9578 21.2510003,18.166 20.2502003,16.1885 C19.2493003,14.2109 20.0411003,11.7965 22.0186003,10.7957 Z M29.9512003,24.7394 C40.9002003,19.6284 54.9892003,16.9084 66.9129003,16.9084 C78.8532003,16.9084 92.5897003,19.6346 103.525,24.7394 C115.715,30.4297 125.914,38.6891 132.902,48.3937 C134.197,50.1923 133.788,52.7003 131.99,53.9953 C130.191,55.2903 127.683,54.8821 126.388,53.0834 C120.285,44.6069 111.212,37.1851 100.13,32.0122 C90.3706003,27.4564 77.8115003,24.9346 66.9129003,24.9346 C55.9976003,24.9346 43.0924003,27.4627 33.3462003,32.0122 C22.7336003,36.9661 13.2208003,44.9353 7.27887035,53.2531 C5.99055035,55.0565 3.48416035,55.4741 1.68068035,54.1858 C-0.122786651,52.8975 -0.540396651,50.3911 0.747927349,48.5876 C7.53282035,39.0897 18.1495003,30.2484 29.9512003,24.7394 Z M66.3360003,33.4534 C89.6851003,33.2289 110.041,45.2532 120.361,62.495 C125.777,71.5415 127.658,80.6305 127.658,88.3734 C127.658,101.329 115.812,109.477 105.1,109.477 C99.7148003,109.477 94.0239003,108.035 89.5312003,104.61 C84.9153003,101.09 81.8531003,95.6805 81.6353003,88.495 C81.4960003,83.8984 79.3790003,80.829 76.4901003,78.7878 C73.4678003,76.6522 69.5794003,75.6599 66.3746003,75.6599 C57.6720003,75.6599 51.4793003,82.0735 51.4793003,88.3734 C51.4793003,93.4075 53.0522003,100.435 55.1318003,105.103 C57.2357003,109.825 61.0052003,115.322 64.7039003,118.669 L64.7420003,118.704 L64.7792003,118.739 C70.7809003,124.457 78.3025003,129.563 89.3249003,132.073 C91.4859003,132.565 92.8388003,134.716 92.3466003,136.877 C91.8544003,139.038 89.7035003,140.391 87.5425003,139.899 C74.8322003,137.004 66.0745003,131.05 59.2795003,124.585 C54.6376003,120.371 50.2754003,113.925 47.8004003,108.37 C45.2941003,102.744 43.4532003,94.6076 43.4532003,88.3734 C43.4532003,76.8558 54.0672003,67.6337 66.3746003,67.6337 C70.9876003,67.6337 76.5535003,69.0049 81.1217003,72.2328 C85.8234003,75.555 89.4335003,80.8489 89.6578003,88.2519 C89.8037003,93.0658 91.7413003,96.2015 94.3978003,98.2271 C97.1776003,100.347 101.032,101.451 105.1,101.451 C112.583,101.451 119.632,95.7812 119.632,88.3734 C119.632,81.935 118.072,74.2974 113.475,66.6173 C104.658,51.888 86.9920003,41.2814 66.4132003,41.4792 C48.5746003,41.6508 29.5596003,50.0728 19.8250003,66.427 C15.6726003,73.403 13.5901003,81.3751 13.8426003,89.7064 C14.1882003,101.11 15.8590003,105.925 18.8580003,113.863 C19.6413003,115.937 18.5955003,118.252 16.5221003,119.036 C14.4488003,119.819 12.1330003,118.773 11.3497003,116.7 C8.16721035,108.275 6.20179035,102.545 5.82011035,89.9495 C5.52163035,80.0996 7.98999035,70.6178 12.9281003,62.3217 C24.4048003,43.0409 46.3578003,33.6455 66.3360003,33.4534 Z M24.7266003,87.6087 C24.7507003,66.911 44.7072003,50.5435 66.3746003,50.5435 C87.9356003,50.5435 108.75,65.3737 108.75,88.9188 C108.75,91.1352 106.953,92.9319 104.737,92.9319 C102.52,92.9319 100.724,91.1352 100.724,88.9188 C100.724,71.011 84.8120003,58.5697 66.3746003,58.5697 C48.0566003,58.5697 32.7528003,72.363 32.7528003,87.6462 L32.7528003,87.6829 L32.7521003,87.7196 C32.5985003,96.1131 33.9365003,104.143 38.3148003,112.732 C42.7703003,121.471 48.1294003,127.412 53.0269003,131.723 C54.6905003,133.187 54.8519003,135.723 53.3875003,137.387 C51.9230003,139.051 49.3872003,139.212 47.7236003,137.748 C42.2163003,132.899 36.1628003,126.182 31.1642003,116.377 C26.0947003,106.433 24.5578003,97.0686 24.7266003,87.6087 Z M66.3746003,84.3603 C68.5910003,84.3603 70.3877003,86.1571 70.3877003,88.3734 C70.3877003,93.4169 71.7725003,98.1891 74.3949003,102.729 C76.9318003,107.121 80.2357003,110.285 84.7385003,113.013 C91.2643003,116.574 95.7869003,117.808 102.634,117.633 L102.662,117.632 L102.689,117.632 C105.367,117.6 108.517,117.379 111.016,116.944 C113.199,116.563 115.278,118.024 115.659,120.207 C116.04,122.391 114.578,124.47 112.395,124.85 C109.353,125.381 105.762,125.621 102.811,125.657 C94.3326003,125.87 88.4182003,124.175 80.8113003,120.013 L80.7373003,119.973 L80.6651003,119.929 C75.1434003,116.599 70.7711003,112.502 67.4448003,106.744 C64.1907003,101.11 62.3615003,94.9659 62.3615003,88.3734 C62.3615003,86.1571 64.1582003,84.3603 66.3746003,84.3603 Z" id="Shape"></path>
            <polygon id="Path" fill-rule="nonzero" points="179.36 66.2141 206.789 66.2141 206.789 75.4977 179.36 75.4977 179.36 106.513 167.123 106.513 167.123 33.7215 211.853 33.7215 210.587 43.0051 179.36 43.0051"></polygon>
            <path d="M244.41,23.4884 C246.66,23.4884 248.489,24.2269 249.895,25.7038 C251.372,27.1104 252.111,28.8687 252.111,30.9786 C252.111,33.0885 251.372,34.8468 249.895,36.2534 C248.489,37.66 246.66,38.3633 244.41,38.3633 C242.089,38.3633 240.225,37.66 238.818,36.2534 C237.412,34.8468 236.708,33.0885 236.708,30.9786 C236.708,28.7983 237.412,27.0049 238.818,25.5983 C240.295,24.1917 242.159,23.4884 244.41,23.4884 Z M252.533,97.8627 L267.724,97.8627 L267.724,106.513 L224.154,106.513 L224.154,97.8627 L240.717,97.8627 L240.717,59.4624 L224.682,59.4624 L224.682,50.8117 L252.533,50.8117 L252.533,97.8627 Z" id="Shape" fill-rule="nonzero"></path>
            <path d="M281.186,50.8117 L291.419,50.8117 L292.263,58.0909 C294.584,55.2777 297.292,53.1326 300.386,51.6557 C303.551,50.1084 306.857,49.3348 310.303,49.3348 C315.437,49.3348 319.305,50.7766 321.908,53.6601 C324.51,56.5437 325.811,60.6228 325.811,65.8976 L325.811,106.513 L313.995,106.513 L313.995,71.8053 C313.995,68.3592 313.784,65.7218 313.362,63.8932 C313.011,61.9943 312.272,60.6228 311.147,59.7789 C310.022,58.8646 308.334,58.4074 306.083,58.4074 C303.551,58.4074 301.125,59.181 298.804,60.7283 C296.553,62.2756 294.619,64.2097 293.002,66.5306 L293.002,106.513 L281.186,106.513 L281.186,50.8117 Z" id="Path" fill-rule="nonzero"></path>
            <path d="M390.227,53.5546 C388.188,54.2579 385.867,54.7502 383.265,55.0316 C380.733,55.2425 377.673,55.348 374.087,55.348 C377.462,56.8953 379.994,58.8294 381.682,61.1503 C383.37,63.4712 384.214,66.2844 384.214,69.5899 C384.214,73.2471 383.3,76.4823 381.471,79.2955 C379.713,82.1087 377.181,84.3241 373.876,85.9417 C370.57,87.5593 366.667,88.3681 362.166,88.3681 C359.001,88.3681 356.469,88.0516 354.57,87.4187 C353.796,87.9813 353.198,88.6846 352.776,89.5286 C352.355,90.3022 352.144,91.1462 352.144,92.0605 C352.144,94.8737 354.429,96.2803 359.001,96.2803 L368.706,96.2803 C372.645,96.2803 376.161,96.9484 379.256,98.2847 C382.35,99.621 384.742,101.485 386.43,103.876 C388.188,106.197 389.067,108.834 389.067,111.788 C389.067,117.344 386.676,121.634 381.893,124.659 C377.111,127.753 370.218,129.3 361.216,129.3 C354.957,129.3 349.998,128.632 346.341,127.296 C342.754,126.03 340.187,124.131 338.64,121.599 C337.163,119.138 336.425,115.938 336.425,111.999 L346.974,111.999 C346.974,114.109 347.361,115.762 348.135,116.957 C348.979,118.223 350.42,119.138 352.46,119.7 C354.5,120.333 357.453,120.65 361.322,120.65 C366.948,120.65 370.992,119.946 373.454,118.54 C375.915,117.204 377.146,115.199 377.146,112.527 C377.146,110.276 376.161,108.518 374.192,107.252 C372.293,106.056 369.691,105.458 366.385,105.458 L356.785,105.458 C351.792,105.458 347.994,104.439 345.392,102.399 C342.86,100.359 341.594,97.7924 341.594,94.6979 C341.594,92.7989 342.121,90.9704 343.176,89.2121 C344.231,87.4538 345.743,85.9417 347.713,84.6758 C344.407,82.9175 341.981,80.8076 340.434,78.3461 C338.957,75.8142 338.218,72.7196 338.218,69.0625 C338.218,65.1943 339.203,61.7833 341.172,58.8294 C343.141,55.8052 345.884,53.4843 349.401,51.8667 C352.917,50.1788 356.926,49.3348 361.427,49.3348 C367.476,49.4051 372.258,48.9832 375.775,48.0689 C379.361,47.1546 383.159,45.7128 387.168,43.7435 L390.227,53.5546 Z M361.533,57.5635 C357.805,57.5635 354.992,58.6184 353.093,60.7283 C351.194,62.7679 350.245,65.5459 350.245,69.0625 C350.245,72.6493 351.194,75.4977 353.093,77.6076 C355.062,79.6472 357.911,80.667 361.638,80.667 C365.155,80.667 367.827,79.6472 369.656,77.6076 C371.484,75.568 372.399,72.6493 372.399,68.8515 C372.399,61.3261 368.777,57.5635 361.533,57.5635 Z" id="Shape" fill-rule="nonzero"></path>
            <path d="M409.07,82.4604 C409.422,87.8758 410.969,91.955 413.712,94.6979 C416.525,97.3704 420.041,98.7067 424.261,98.7067 C426.863,98.7067 429.325,98.3199 431.646,97.5462 C434.037,96.7023 436.464,95.4715 438.925,93.8539 L443.989,101.028 C441.387,103.208 438.327,104.896 434.811,106.091 C431.294,107.287 427.602,107.885 423.734,107.885 C415.224,107.885 408.613,105.247 403.901,99.9726 C399.188,94.6275 396.832,87.5242 396.832,78.6626 C396.832,73.1065 397.852,68.113 399.892,63.6822 C401.931,59.181 404.885,55.6645 408.753,53.1326 C412.622,50.6007 417.123,49.3348 422.257,49.3348 C429.642,49.3348 435.479,51.8315 439.769,56.825 C444.13,61.7481 446.31,68.535 446.31,77.1856 C446.31,79.2955 446.204,81.0538 445.993,82.4604 L409.07,82.4604 Z M422.362,58.0909 C418.564,58.0909 415.47,59.4624 413.079,62.2053 C410.687,64.9481 409.316,69.0273 408.964,74.4427 L434.811,74.4427 C434.67,69.168 433.545,65.124 431.435,62.3107 C429.325,59.4975 426.301,58.0909 422.362,58.0909 Z" id="Shape" fill-rule="nonzero"></path>
            <path d="M497.75,49.4403 C500.634,49.4403 503.447,49.8974 506.19,50.8117 L504.186,71.3834 L495.746,71.3834 L495.746,59.9898 C491.878,60.0602 488.502,61.6074 485.618,64.6317 C482.805,67.6559 480.555,71.9108 478.867,77.3966 L478.867,98.0737 L490.049,98.0737 L490.049,106.513 L458.823,106.513 L458.823,98.0737 L467.051,98.0737 L467.051,59.2514 L458.823,59.2514 L458.823,50.8117 L476.018,50.8117 L478.128,63.6822 C480.309,58.8997 482.946,55.348 486.04,53.0271 C489.205,50.6359 493.109,49.4403 497.75,49.4403 Z" id="Path" fill-rule="nonzero"></path>
            <path d="M544.549,49.3348 C558.053,49.3348 564.804,59.0756 564.804,78.5571 C564.804,87.3483 562.941,94.4517 559.213,99.8671 C555.486,105.212 550.176,107.885 543.283,107.885 C537.446,107.885 532.734,105.845 529.147,101.766 L529.147,127.929 L517.331,129.3 L517.331,50.8117 L527.564,50.8117 L528.303,57.9854 C530.413,55.1722 532.839,53.0271 535.582,51.5502 C538.395,50.0733 541.384,49.3348 544.549,49.3348 Z M541.279,58.4074 C538.817,58.4074 536.567,59.1459 534.527,60.6228 C532.488,62.0998 530.694,64.0338 529.147,66.4251 L529.147,92.4825 C531.89,96.632 535.547,98.7067 540.118,98.7067 C544.198,98.7067 547.257,97.0891 549.297,93.8539 C551.336,90.6187 552.356,85.5549 552.356,78.6626 C552.356,71.5592 551.442,66.4251 549.613,63.2602 C547.784,60.025 545.006,58.4074 541.279,58.4074 Z" id="Shape" fill-rule="nonzero"></path>
            <path d="M615.823,49.4403 C618.707,49.4403 621.52,49.8974 624.263,50.8117 L622.258,71.3834 L613.819,71.3834 L613.819,59.9898 C609.95,60.0602 606.574,61.6074 603.691,64.6317 C600.878,67.6559 598.627,71.9108 596.939,77.3966 L596.939,98.0737 L608.122,98.0737 L608.122,106.513 L576.895,106.513 L576.895,98.0737 L585.124,98.0737 L585.124,59.2514 L576.895,59.2514 L576.895,50.8117 L594.091,50.8117 L596.201,63.6822 C598.381,58.8997 601.018,55.348 604.113,53.0271 C607.278,50.6359 611.181,49.4403 615.823,49.4403 Z" id="Path" fill-rule="nonzero"></path>
            <path d="M657.663,23.4884 C659.914,23.4884 661.743,24.2269 663.149,25.7038 C664.626,27.1104 665.365,28.8687 665.365,30.9786 C665.365,33.0885 664.626,34.8468 663.149,36.2534 C661.743,37.66 659.914,38.3633 657.663,38.3633 C655.343,38.3633 653.479,37.66 652.072,36.2534 C650.666,34.8468 649.962,33.0885 649.962,30.9786 C649.962,28.7983 650.666,27.0049 652.072,25.5983 C653.549,24.1917 655.413,23.4884 657.663,23.4884 Z M665.787,97.8627 L680.978,97.8627 L680.978,106.513 L637.408,106.513 L637.408,97.8627 L653.971,97.8627 L653.971,59.4624 L637.936,59.4624 L637.936,50.8117 L665.787,50.8117 L665.787,97.8627 Z" id="Shape" fill-rule="nonzero"></path>
            <path d="M694.44,50.8117 L704.673,50.8117 L705.517,58.0909 C707.838,55.2777 710.546,53.1326 713.64,51.6557 C716.805,50.1084 720.111,49.3348 723.557,49.3348 C728.691,49.3348 732.559,50.7766 735.161,53.6601 C737.764,56.5437 739.065,60.6228 739.065,65.8976 L739.065,106.513 L727.249,106.513 L727.249,71.8053 C727.249,68.3592 727.038,65.7218 726.616,63.8932 C726.265,61.9943 725.526,60.6228 724.401,59.7789 C723.276,58.8646 721.588,58.4074 719.337,58.4074 C716.805,58.4074 714.379,59.181 712.058,60.7283 C709.807,62.2756 707.873,64.2097 706.256,66.5306 L706.256,106.513 L694.44,106.513 L694.44,50.8117 Z" id="Path" fill-rule="nonzero"></path>
            <path d="M800,103.559 C797.89,104.896 795.429,105.951 792.615,106.724 C789.802,107.498 786.848,107.885 783.754,107.885 C777.424,107.885 772.536,106.267 769.09,103.032 C765.644,99.7265 763.92,95.2605 763.92,89.6341 L763.92,59.4624 L751.578,59.4624 L751.578,50.8117 L763.92,50.8117 L763.92,38.3633 L775.736,36.9918 L775.736,50.8117 L794.62,50.8117 L793.248,59.4624 L775.736,59.4624 L775.736,89.5286 C775.736,92.5528 776.51,94.8034 778.057,96.2803 C779.604,97.6869 782.066,98.3902 785.442,98.3902 C789.169,98.3902 792.615,97.5111 795.78,95.7528 L800,103.559 Z" id="Path" fill-rule="nonzero"></path>
        </g>
    </g>
</svg>