<?xml version="1.0" encoding="UTF-8"?>
<svg width="247px" height="58px" viewBox="0 0 247 58" version="1.1" xmlns="http://www.w3.org/2000/svg" xmlns:xlink="http://www.w3.org/1999/xlink">
    <title>677d9ae6403cbf7d8cdb536d_logotype-horizontal-black</title>
    <g id="Page-1" stroke="none" stroke-width="1" fill="none" fill-rule="evenodd">
        <g id="677d9ae6403cbf7d8cdb536d_logotype-horizontal-black" transform="translate(0.9003, 0.8921)" fill="#000000">
            <path d="M66.33063,41.2737107 C69.01713,41.2737107 71.48283,40.5745107 73.65403,39.2496107 L73.65403,29.2028107 L69.49553,29.2028107 L69.49553,36.7839107 C68.50183,37.1520107 67.54503,37.2624107 66.47783,37.2624107 C62.76083,37.2624107 60.69993,34.9439107 60.69993,28.8716107 C60.69993,22.9834107 62.72403,20.7017107 66.47783,20.7017107 C68.13383,20.7017107 69.82673,21.1801107 71.37243,22.0634107 L73.21243,18.4568107 C71.11473,17.2056107 68.90673,16.6904107 66.40423,16.6904107 C59.92713,16.6904107 56.09983,20.9225107 56.09983,28.8716107 C56.09983,37.3728107 59.89033,41.2737107 66.33063,41.2737107 Z" id="Path" fill-rule="nonzero"></path>
            <path d="M80.64753,20.0761107 C82.30353,20.0761107 83.18683,19.0088107 83.18683,17.6104107 C83.18683,16.2487107 82.30353,15.1079107 80.64753,15.1079107 C79.02823,15.1079107 78.10823,16.2487107 78.10823,17.6104107 C78.10823,19.0088107 79.02823,20.0761107 80.64753,20.0761107 Z M82.81873,22.5418107 L78.47623,22.5418107 L78.47623,40.9057107 L82.81873,40.9057107 L82.81873,22.5418107 Z" id="Shape" fill-rule="nonzero"></path>
            <path d="M99.58173,22.5418107 L94.06103,22.5418107 L94.06103,17.9416107 L90.89613,17.9416107 L90.01293,22.5418107 L86.51673,23.0570107 L86.51673,26.1851107 L89.79203,26.1851107 L89.79203,35.1279107 C89.79203,39.2864107 92.03693,41.2737107 95.71713,41.2737107 C97.37313,41.2737107 98.99273,40.8321107 100.39073,40.0593107 L99.17673,36.6367107 C98.10873,37.1520107 97.18913,37.3728107 96.30593,37.3728107 C94.79703,37.3728107 94.06103,36.7471107 94.06103,34.9439107 L94.06103,26.1851107 L99.58173,26.1851107 L99.58173,22.5418107 Z" id="Path" fill-rule="nonzero"></path>
            <path d="M113.37473,41.2737107 C116.06073,41.2737107 118.52673,40.5745107 120.69773,39.2496107 L120.69773,29.2028107 L116.53973,29.2028107 L116.53973,36.7839107 C115.54573,37.1520107 114.58873,37.2624107 113.52173,37.2624107 C109.80473,37.2624107 107.74373,34.9439107 107.74373,28.8716107 C107.74373,22.9834107 109.76773,20.7017107 113.52173,20.7017107 C115.17773,20.7017107 116.87073,21.1801107 118.41673,22.0634107 L120.25673,18.4568107 C118.15873,17.2056107 115.95073,16.6904107 113.44773,16.6904107 C106.97073,16.6904107 103.14373,20.9225107 103.14373,28.8716107 C103.14373,37.3728107 106.93473,41.2737107 113.37473,41.2737107 Z" id="Path" fill-rule="nonzero"></path>
            <path d="M125.37273,22.5418107 L125.37273,35.0911107 C125.37273,39.1024107 127.36073,41.2737107 130.85673,41.2737107 C132.65973,41.2737107 134.27873,40.6849107 136.48673,38.6976107 L136.48673,40.9057107 L140.68273,40.9057107 L140.68273,22.5418107 L136.33973,22.5418107 L136.33973,35.5695107 C134.64673,36.8575107 133.28573,37.2992107 132.18173,37.2992107 C130.52473,37.2992107 129.71573,36.4895107 129.71573,34.5022107 L129.71573,22.5418107 L125.37273,22.5418107 Z" id="Path" fill-rule="nonzero"></path>
            <path d="M160.42473,40.9057107 L160.42473,29.0188107 C160.42473,24.1610107 157.95873,22.1738107 153.50573,22.1738107 C151.26073,22.1738107 148.64773,22.8362107 145.99873,24.1242107 L147.32373,27.5468107 C149.67873,26.4795107 151.40873,26.0379107 152.84373,26.0379107 C155.23573,26.0379107 156.19273,26.9580107 156.19273,29.3132107 L156.19273,30.3805107 L152.03373,30.3805107 C147.47073,30.3805107 145.37273,32.8094107 145.37273,35.8271107 C145.37273,39.1392107 147.72773,41.2737107 150.92973,41.2737107 C152.99073,41.2737107 154.72073,40.6113107 156.30273,38.8816107 L156.30273,40.9057107 L160.42473,40.9057107 Z M152.10773,37.8512107 C150.52473,37.8512107 149.56773,37.0783107 149.56773,35.5695107 C149.56773,34.3182107 150.34073,33.3982107 152.29173,33.3982107 L156.19273,33.3982107 L156.19273,36.1215107 C154.72073,37.3728107 153.50573,37.8512107 152.10773,37.8512107 Z" id="Shape" fill-rule="nonzero"></path>
            <path d="M170.18573,40.9057107 L170.18573,28.0620107 C172.09973,26.8108107 173.97673,26.4059107 176.40573,26.4059107 L176.40573,22.1738107 C174.19773,22.1738107 172.35773,22.7626107 170.03873,24.9707107 L170.03873,22.5418107 L165.84373,22.5418107 L165.84373,40.9057107 L170.18573,40.9057107 Z" id="Path" fill-rule="nonzero"></path>
            <path d="M195.38173,40.9057107 L195.38173,15.9543107 L191.03873,15.9543107 L191.03873,23.0570107 C189.78773,22.4682107 188.53673,22.1738107 187.17473,22.1738107 C182.75873,22.1738107 179.26273,24.9339107 179.26273,31.7789107 C179.26273,38.7712107 182.31673,41.2737107 186.18073,41.2737107 C188.02073,41.2737107 189.64073,40.6113107 191.22273,38.9184107 L191.22273,40.9057107 L195.38173,40.9057107 Z M187.43273,37.4096107 C184.85573,37.4096107 183.64173,36.0847107 183.64173,31.7789107 C183.64173,27.2524107 184.96673,25.8539107 187.94773,25.8539107 C188.90473,25.8539107 189.97173,26.0747107 191.03873,26.5163107 L191.03873,36.0479107 C189.78773,37.0783107 188.57273,37.4096107 187.43273,37.4096107 Z" id="Shape" fill-rule="nonzero"></path>
            <path d="M203.19873,20.0761107 C204.85473,20.0761107 205.73873,19.0088107 205.73873,17.6104107 C205.73873,16.2487107 204.85473,15.1079107 203.19873,15.1079107 C201.57973,15.1079107 200.65973,16.2487107 200.65973,17.6104107 C200.65973,19.0088107 201.57973,20.0761107 203.19873,20.0761107 Z M205.37073,22.5418107 L201.02773,22.5418107 L201.02773,40.9057107 L205.37073,40.9057107 L205.37073,22.5418107 Z" id="Shape" fill-rule="nonzero"></path>
            <path d="M225.15073,40.9057107 L225.15073,29.0188107 C225.15073,24.1610107 222.68473,22.1738107 218.23173,22.1738107 C215.98673,22.1738107 213.37373,22.8362107 210.72473,24.1242107 L212.04973,27.5468107 C214.40473,26.4795107 216.13473,26.0379107 217.56973,26.0379107 C219.96173,26.0379107 220.91873,26.9580107 220.91873,29.3132107 L220.91873,30.3805107 L216.75973,30.3805107 C212.19673,30.3805107 210.09873,32.8094107 210.09873,35.8271107 C210.09873,39.1392107 212.45373,41.2737107 215.65573,41.2737107 C217.71673,41.2737107 219.44673,40.6113107 221.02873,38.8816107 L221.02873,40.9057107 L225.15073,40.9057107 Z M216.83373,37.8512107 C215.25073,37.8512107 214.29373,37.0783107 214.29373,35.5695107 C214.29373,34.3182107 215.06673,33.3982107 217.01773,33.3982107 L220.91873,33.3982107 L220.91873,36.1215107 C219.44673,37.3728107 218.23173,37.8512107 216.83373,37.8512107 Z" id="Shape" fill-rule="nonzero"></path>
            <path d="M234.91173,40.9057107 L234.91173,27.9148107 C236.67873,26.5899107 238.15073,26.1483107 239.29173,26.1483107 C240.94773,26.1483107 241.75673,26.9948107 241.75673,28.9820107 L241.75673,40.9057107 L246.09973,40.9057107 L246.09973,28.3564107 C246.09973,24.3451107 244.11273,22.1738107 240.61673,22.1738107 C238.77673,22.1738107 237.04673,22.7626107 234.76473,24.7867107 L234.76473,22.5418107 L230.56973,22.5418107 L230.56973,40.9057107 L234.91173,40.9057107 Z" id="Path" fill-rule="nonzero"></path>
            <path d="M12.15333,16.3621107 C12.15333,14.9949107 13.02293,13.8826107 14.09193,13.8826107 C15.16103,13.8826107 16.03013,14.9949107 16.03013,16.3621107 C16.03013,17.7297107 15.16103,18.8415107 14.09193,18.8415107 C13.02293,18.8415107 12.15333,17.7297107 12.15333,16.3621107 Z" id="Path" fill-rule="nonzero"></path>
            <path d="M23.73803,19.6365107 C23.67373,18.6537107 23.01333,17.9931107 22.09383,17.9931107 C21.17483,17.9931107 20.51393,18.6537107 20.45023,19.6365107 C20.44043,19.7829107 20.43583,19.9328107 20.43583,20.0822107 C20.43583,21.6478107 20.75193,22.9244107 21.49453,24.3508107 L21.52233,24.4056107 L21.52333,24.4075107 C21.63123,24.6188107 21.79353,24.9367107 22.09383,24.9367107 C22.39553,24.9367107 22.55793,24.6174107 22.66533,24.4056107 L22.69363,24.3508107 C23.43583,22.9244107 23.75243,21.6478107 23.75243,20.0822107 C23.75243,19.9328107 23.74773,19.7829107 23.73803,19.6365107 Z" id="Path" fill-rule="nonzero"></path>
            <path d="M32.60373,15.9751107 C32.34823,15.1662107 31.59793,14.5425107 30.73603,14.4238107 C29.53233,14.2580107 28.30903,14.9769107 27.46263,16.3456107 C27.20813,16.7554107 27.32383,17.1028107 27.51703,17.2906107 C27.64913,17.4195107 27.82543,17.4901107 28.02533,17.4947107 C28.03003,17.4952107 28.03413,17.4952107 28.03823,17.4952107 C28.27493,17.4952107 28.49423,17.3401107 28.65553,17.2261107 L28.65703,17.2251107 L28.73003,17.1744107 C29.60273,16.5860107 30.33763,16.5436107 31.11423,17.0353107 C31.54393,17.3074107 31.98803,17.3341107 32.30203,17.1059107 C32.62683,16.8690107 32.74553,16.4249107 32.60373,15.9751107 Z" id="Path" fill-rule="nonzero"></path>
            <path d="M41.64553,17.3099107 L38.46153,14.9563107 C38.78633,11.8383107 38.51963,5.72469068 32.94213,0.76070068 C31.77393,-0.25747932 30.00233,-0.25286932 28.82223,0.77042068 C26.95863,2.38671068 24.57133,3.27646068 22.09913,3.27646068 C19.62753,3.27646068 17.24023,2.38671068 15.37713,0.77042068 C14.19653,-0.25337932 12.42443,-0.25695932 11.25573,0.76172068 C5.51785,5.89865068 5.43459,11.9790107 5.74348,14.9517107 L2.56311,17.3027107 C0.95853,18.4657107 -7.10542736e-15,20.3414107 -7.10542736e-15,22.3199107 L-7.10542736e-15,25.4287107 C-7.10542736e-15,34.9801107 3.76114,44.3048107 9.81503,49.7636107 C14.69093,54.1596107 18.59393,56.2098107 22.10173,56.2159107 C25.60543,56.2098107 29.50843,54.1596107 34.38383,49.7636107 C40.43823,44.3048107 44.19883,34.9801107 44.19883,25.4287107 L44.19883,22.3199107 C44.19883,20.3414107 43.24083,18.4657107 41.64553,17.3099107 Z M36.78193,42.9781107 L36.78093,42.9797107 C37.62763,40.5869107 38.13793,38.0810107 38.21253,35.6713107 C38.21883,35.4672107 38.22203,35.2638107 38.22203,35.0612107 M36.78193,42.9781107 L36.78093,42.9797107 C38.58503,40.1343107 39.94953,36.8113107 40.77223,33.2632107 C41.35833,30.7356107 41.66963,28.0937107 41.66963,25.4287107 L41.66973,22.3197107 C41.66973,21.1260107 41.11463,20.0398107 40.14733,19.3388107 L37.94243,17.7087107 C37.83943,18.0687107 37.72063,18.4331107 37.58663,18.7989107 C37.48653,19.0720107 37.37793,19.3458107 37.26103,19.6191107 C36.77483,20.7558107 36.14503,21.8832107 35.38753,22.9075107 C35.20773,23.1504107 35.02083,23.3876107 34.82683,23.6177107 C36.26363,25.8218107 37.26173,28.2484107 37.78783,30.7944107 C38.07553,32.1864107 38.22203,33.6145107 38.22203,35.0612107 M28.44243,51.2632107 C26.01343,52.8892107 23.91603,53.6945107 22.10173,53.6971107 C21.19353,53.6961107 20.21393,53.4919107 19.15983,53.0893107 C22.97443,49.1752107 25.13973,43.9221107 25.13973,38.4378107 C25.13973,35.2328107 24.44643,32.1036107 23.16923,29.4389107 C26.88053,29.2154107 30.32613,27.8206107 33.05003,25.4363107 C34.81653,28.3333107 35.74783,31.6365107 35.74783,35.0609107 C35.74783,40.9479107 32.62293,47.8439107 28.44243,51.2632107 Z M2.5297,25.4287107 L2.5297,22.3199107 C2.5297,21.1262107 3.08426,20.0395107 4.06181,19.3314107 L6.29085,17.6839107 C6.65707,18.9440107 7.17188,20.1529107 7.82462,21.2868107 C7.87697,21.3777107 7.9302,21.4681107 7.98431,21.5581107 C8.32183,22.1190107 8.69373,22.6607107 9.09853,23.1801107 L3.34888,32.9116107 C2.81437,30.4910107 2.5297,27.9705107 2.5297,25.4287107 Z M22.09913,15.9914107 C22.88053,15.9914107 23.49003,15.2535107 24.26873,14.3108107 C24.58973,13.9222107 24.93943,13.4989107 25.34173,13.0780107 C27.82213,10.4472107 30.99223,9.78871068 33.29623,10.7015107 C35.26573,11.4812107 36.21043,13.2812107 35.94933,15.5759107 C35.46153,18.4340107 34.13553,21.0326107 32.08893,23.0608107 C29.47293,25.6533107 25.96153,27.0808107 22.09913,27.0808107 C18.23733,27.0808107 14.72593,25.6533107 12.10983,23.0608107 C10.06283,21.0326107 8.73673,18.4340107 8.24953,15.5759107 C7.98794,13.2812107 8.93313,11.4812107 10.90203,10.7015107 C13.20723,9.78871068 16.37723,10.4472107 18.85713,13.0780107 C19.25963,13.4991107 19.60943,13.9226107 19.93043,14.3113107 C20.70873,15.2538107 21.31793,15.9914107 22.09913,15.9914107 Z" id="Shape"></path>
        </g>
    </g>
</svg>