<?xml version="1.0" encoding="UTF-8"?>
<svg width="429px" height="89px" viewBox="0 0 429 89" version="1.1" xmlns="http://www.w3.org/2000/svg" xmlns:xlink="http://www.w3.org/1999/xlink">
    <title>itis</title>
    <g id="Page-1" stroke="none" stroke-width="1" fill="none" fill-rule="evenodd">
        <g id="itis" transform="translate(0, 0.253)" fill="#000000" fill-rule="nonzero">
            <path d="M141.451,53.098 L129.022,53.098 L126.211,66.402 L138.306,66.402 L137.821,68.61 L125.727,68.61 L121.705,87.538 L119.377,87.538 L127.179,50.921 L141.933,50.921 L141.451,53.098 Z M165.67,50.437 C169.148,50.467 172.111,51.344 174.62,53.007 C177.131,54.7 178.915,56.938 180.034,59.78 C181.152,62.592 181.364,65.767 180.668,69.214 C179.882,72.692 178.34,75.836 176.012,78.648 C173.684,81.461 170.931,83.728 167.727,85.422 C164.522,87.115 161.165,87.962 157.688,87.992 C154.211,87.962 151.248,87.085 148.737,85.422 C146.228,83.728 144.444,81.491 143.325,78.648 C142.207,75.836 141.995,72.661 142.69,69.214 C143.476667,65.7366667 145.019,62.592 147.317,59.78 C149.595261,56.9883215 152.413092,54.6847404 155.602,53.007 C158.806,51.344 162.163,50.467 165.67,50.437 M165.217,52.614 C162.133,52.644 159.17,53.43 156.358,54.912 C153.553127,56.3875357 151.082678,58.4256475 149.101,60.899 C147.075,63.409 145.714,66.16 145.049,69.214 C144.444,72.268 144.625,75.02 145.563,77.53 C146.530333,80.0393333 148.102667,82.035 150.28,83.517 C152.457,84.998 155.088,85.784 158.172,85.815 C161.256,85.784 164.189,84.998 167,83.517 C169.801421,82.0230315 172.278581,79.9880755 174.288,77.53 C176.314,75.02 177.675,72.268 178.34,69.245 C178.944,66.191 178.764,63.409 177.796,60.929 C176.828,58.4203333 175.255667,56.4243333 173.079,54.941 C170.872,53.43 168.271,52.675 165.217,52.614 M207.731,73.055 L212.447,50.921 L214.775,50.921 L209.938,73.75 C209.622991,75.5428202 209.147066,77.303607 208.516,79.011 C207.912,80.644 206.853,82.247 205.342,83.759 C203.824376,85.1436601 202.060104,86.2308531 200.141,86.964 C198.236,87.689 196.361,88.052 194.486,88.052 C192.611,88.052 190.889,87.689 189.286,86.964 C187.684,86.238 186.413,85.18 185.446,83.759 C184.601093,82.3251078 184.201178,80.6725455 184.297,79.011 C184.387,77.3783333 184.658667,75.6246667 185.112,73.75 L189.951,50.921 L192.279,50.921 L187.563,73.055 C187.176555,74.6767444 186.90323,76.3233742 186.745,77.983 C186.594,79.586 186.836,81.037 187.502,82.277 C188.197,83.456 189.256,84.333 190.646,84.938 C191.999598,85.5339142 193.462036,85.8427456 194.941,85.845 C196.391,85.845 197.964,85.543 199.627,84.938 C201.29,84.333 202.711,83.456 203.921,82.277 C205.087824,81.0557318 205.966024,79.5884207 206.491,77.983 C206.985965,76.3619588 207.399812,74.7172511 207.731,73.055 M255.264,50.921 L247.221,88.747 L223.454,56.061 L216.741,87.538 L214.413,87.538 L222.305,50.437 L246.163,82.882 L252.935,50.921 L255.264,50.921 Z M255.355,87.478 L263.126,50.86 L269.718,50.86 C272.378,50.83 274.736,51.132 276.822,51.767 C278.878,52.402 280.723,53.642 282.327,55.487 C283.869,57.301 284.866,59.387 285.35,61.746 C285.834,64.104 285.804,66.584 285.229,69.245 C284.684,71.785 283.687,74.204 282.266,76.502 C280.789981,78.842973 278.929531,80.9181035 276.763,82.64 C274.374,84.545 271.955,85.845 269.566,86.51 C267.178,87.206 264.638,87.508 261.947,87.478 L255.355,87.478 Z M258.167,85.27 L262.4,85.27 C264.789,85.301 267.057,84.998 269.234,84.363 C271.381,83.728 273.527,82.549 275.614,80.856 C277.518667,79.2826667 279.091,77.4986667 280.331,75.504 C281.557858,73.5750061 282.437789,71.4462505 282.931,69.214 C283.415,66.856 283.445,64.649 282.992,62.562 C282.548172,60.5178215 281.602396,58.6163017 280.24,57.029 C278.819,55.487 277.216,54.428 275.402,53.854 C273.588,53.279 271.532,53.007 269.264,53.037 L265.031,53.037 L258.167,85.27 Z M309.268,75.474 L293.182,75.474 L285.713,87.508 L283.324,87.508 L306.697,49.681 L313.955,87.508 L311.566,87.508 L309.268,75.474 Z M308.875,73.296 L305.488,55.638 L294.542,73.296 L308.875,73.296 Z M329.708,53.098 L322.391,87.538 L320.063,87.538 L327.38,53.098 L317.916,53.098 L318.369,50.921 L339.626,50.921 L339.173,53.098 L329.708,53.098 Z M346.188,50.921 L338.417,87.538 L336.089,87.538 L343.86,50.921 L346.188,50.921 Z M371.013,50.437 C374.49,50.467 377.453,51.344 379.963,53.007 C382.473,54.7 384.257,56.938 385.375,59.78 C386.494,62.592 386.706,65.767 386.01,69.214 C385.223,72.692 383.682,75.836 381.354,78.648 C379.026,81.461 376.274,83.728 373.069,85.422 C369.864,87.116 366.507,87.962 363.029,87.992 C359.553,87.962 356.589,87.085 354.08,85.422 C351.57,83.728 349.786,81.491 348.667,78.648 C347.549,75.836 347.337,72.661 348.032,69.214 C348.818667,65.7366667 350.361,62.592 352.659,59.78 C354.957,56.968 357.708,54.7 360.944,53.007 C364.149,51.344 367.505,50.467 371.013,50.437 M370.529,52.614 C367.445,52.644 364.481,53.43 361.669,54.912 C358.864923,56.3887325 356.394702,58.4266568 354.412,60.899 C352.387,63.409 351.026,66.16 350.361,69.214 C349.756,72.268 349.937,75.02 350.875,77.53 C351.842333,80.0393333 353.414667,82.035 355.592,83.517 C357.769,84.998 360.399,85.784 363.484,85.815 C366.568,85.784 369.501,84.998 372.313,83.517 C375.114062,82.0229218 377.590874,79.9879724 379.6,77.53 C381.626,75.02 382.986,72.268 383.652,69.245 C384.257,66.191 384.075,63.409 383.108,60.929 C382.14,58.4203333 380.567667,56.4243333 378.391,54.941 C376.214,53.43 373.583,52.675 370.529,52.614 M428.554,50.921 L420.541,88.747 L396.745,56.061 L390.062,87.538 L387.734,87.538 L395.596,50.437 L419.453,82.882 L426.226,50.921 L428.554,50.921 Z M122.763,15.119 C122.28,14.907 121.735,14.817 121.101,14.817 C118.44,14.938 116.263,16.086 114.599,18.263 C112.937,20.442 111.606,22.92 110.578,25.703 C109.706167,28.0771119 108.818815,30.4454959 107.916,32.808 C106.556,36.224 104.591,39.461 102.082,42.575 C99.42,45.599 96.336,47.927 92.92,49.56 C89.472,51.192 86.569,51.767 83.062,51.767 C81.791,51.737 80.19,51.435 79.131,51.102 L82.125,37.254 C83.274,37.465 84.423,37.616 85.209,37.616 C87.537,37.526 90.229,36.345 92.013,33.927 C93.433,31.992 94.492,29.785 95.308,27.426 C96.5282297,24.234328 97.8390943,21.078049 99.239,17.961 C100.699769,14.725625 102.624704,11.7206519 104.953,9.041 C107.645,6.108 110.638,3.871 113.965,2.328 C117.291,0.787 120.647,0 124.093,0 C125.153,0 126.211,0.091 127.209,0.302 L122.763,15.119 Z M14.453,87.387 L0,87.387 L10.673,37.284 L25.097,37.284 L14.453,87.387 Z M76.138,51.132 L61.683,51.132 L72.328,1.119 L86.75,1.119 L76.138,51.132 Z" id="Shape"></path>
            <polygon id="Path" points="41.486 87.387 27.031 87.387 34.742 51.132 25.641 51.132 28.574 37.284 61.231 37.284 58.298 51.132 49.196 51.132"></polygon>
        </g>
    </g>
</svg>