<?xml version="1.0" encoding="UTF-8"?>
<svg width="156px" height="46px" viewBox="0 0 156 46" version="1.1" xmlns="http://www.w3.org/2000/svg" xmlns:xlink="http://www.w3.org/1999/xlink">
    <title>Logo_FZ_Juellich_RGB_schutzzone_weiss</title>
    <g id="Page-1" stroke="none" stroke-width="1" fill="none" fill-rule="evenodd">
        <g id="Logo_FZ_Juellich_RGB_schutzzone_weiss" transform="translate(0.0001, 0.0003)" fill="#000000" fill-rule="nonzero">
            <path d="M94.2889382,36.9296709 L93.6489282,36.9296709 C93.5861556,36.9296116 93.5260862,36.9552115 93.4826534,37.0005326 C93.4392207,37.0458537 93.416199,37.1069576 93.4189282,37.1696709 L93.4189282,39.9796709 C93.4189282,40.8096809 92.9989182,41.2596709 92.3589282,41.2596709 C91.7189182,41.2596709 91.3589282,40.8096709 91.3589282,39.9796709 L91.3589282,37.1696709 C91.3535578,37.0355161 91.2431805,36.9295581 91.1089182,36.9296709 L90.4789182,36.9296709 C90.3463699,36.9296709 90.2389182,37.0371226 90.2389182,37.1696709 L90.2389182,39.8496709 C90.2389182,41.2996709 90.8289182,42.1996709 92.0489182,42.1996709 C92.5945676,42.2461852 93.1226332,41.9936282 93.4289182,41.5396609 L93.4289182,41.8596609 C93.426189,41.9223742 93.4492107,41.9834782 93.4926434,42.0287992 C93.5360762,42.0741203 93.5961456,42.0997203 93.6589182,42.0996609 L94.2989282,42.0996609 C94.4314766,42.0996609 94.5389283,41.9922093 94.5389283,41.8596609 L94.5389283,37.1696609 C94.538985,37.1042378 94.5123313,37.0416271 94.465136,36.9963195 C94.4179406,36.951012 94.3542945,36.9269349 94.2889282,36.9296609 L94.2889382,36.9296709 Z M86.2888382,36.8196709 C85.7208495,36.7782398 85.1745142,37.0456805 84.8588382,37.5196809 L84.8588382,35.1096809 C84.8588382,34.9716097 84.7469094,34.8596808 84.6088382,34.8596808 L83.9788282,34.8596808 C83.9134052,34.8596808 83.8507944,34.8862778 83.8054868,34.9334732 C83.7601793,34.9806686 83.7361022,35.0443146 83.7388282,35.1096809 L83.7388282,41.8597809 C83.7359577,41.9242701 83.7603203,41.9869971 83.8059662,42.032643 C83.851612,42.0782889 83.9143391,42.1026514 83.9788282,42.0997809 L84.6488382,42.0997809 C84.7142045,42.1025069 84.7778506,42.0784299 84.825046,42.0331223 C84.8722413,41.9878147 84.898895,41.925204 84.8988382,41.8597809 L84.8988382,39.0597809 C84.8988382,38.2297709 85.3488482,37.7697809 85.9988382,37.7697809 C86.6488482,37.7697809 87.0888382,38.2297809 87.0888382,39.0597809 L87.0888382,41.8597809 C87.0888382,41.9234346 87.1141252,41.9844811 87.1591361,42.0294901 C87.204147,42.0744991 87.2651945,42.0997836 87.3288482,42.0997809 L87.9588482,42.0997809 C88.0242145,42.1025069 88.0878606,42.0784299 88.135056,42.0331223 C88.1822513,41.9878147 88.208905,41.925204 88.2088483,41.8597809 L88.2088483,39.1797809 C88.1988482,37.7697809 87.5888482,36.8197809 86.3188482,36.8197809 L86.2888382,36.8196709 Z M87.9988382,7.97967091 L85.5088382,7.97967091 C84.9952079,7.97967091 84.5788282,8.39605057 84.5788282,8.90968091 L84.5788282,20.7896809 C84.5788282,23.8796809 83.0788282,25.1996809 80.9488282,25.1996809 C78.8188282,25.1996809 77.3788282,23.8796809 77.3788282,20.7896809 L77.3788282,8.90968091 C77.3788282,8.39605448 76.9624547,7.97967091 76.4488282,7.97967091 L73.9588282,7.97967091 C73.4451979,7.97967091 73.0288182,8.39605057 73.0288182,8.90968091 L73.0288182,20.7896809 C73.0288182,26.0397809 76.2088182,29.2797809 80.9489182,29.2797809 C85.6890182,29.2797809 88.9490182,26.0397809 88.9490182,20.7896809 L88.9490182,8.90968091 C88.9490182,8.39993061 88.5387291,7.98515204 88.0290082,7.97967091 L87.9988382,7.97967091 Z M70.5388382,36.9796709 L70.4088282,36.9796709 C69.8437657,36.9692506 69.3167075,37.2633376 69.0288282,37.7496809 L69.0288282,37.2196809 C69.0315575,37.1569676 69.0085357,37.0958637 68.965103,37.0505426 C68.9216703,37.0052215 68.8616008,36.9796216 68.7988282,36.9796809 L68.2188182,36.9796809 C68.0862699,36.9796809 67.9788182,37.0871326 67.9788182,37.2196809 L67.9788182,41.9096809 C67.9759477,41.9741701 68.0003103,42.0368971 68.0459562,42.082543 C68.091602,42.1281889 68.1543291,42.1525514 68.2188182,42.1496809 L68.8388282,42.1496809 C68.9730866,42.1497884 69.0834579,42.0438319 69.0888282,41.9096809 L69.0888282,39.5196809 C69.0888282,38.5196809 69.5288382,38.0296809 70.3988282,38.0296809 L70.5388382,38.0296809 C70.6025048,38.0323891 70.6646347,38.009666 70.7115313,37.9665212 C70.7584279,37.9233763 70.7862406,37.8633521 70.7888382,37.7996809 L70.7888382,37.1696709 C70.784786,37.0463392 70.6913528,36.9444121 70.5688382,36.9296709 L70.5388382,36.9796709 Z M79.9489382,37.8196809 C80.4897266,37.8092995 80.9532175,38.2041293 81.0289382,38.7396909 C81.0391249,38.8256938 81.1123362,38.8902921 81.1989382,38.8896909 L81.9189482,38.8896909 C81.9624514,38.8900796 82.0039802,38.8715618 82.032764,38.8389401 C82.0615478,38.8063185 82.0747506,38.7628071 82.0689482,38.7196909 C82.077843,38.676814 82.077843,38.6325678 82.0689482,38.5896909 C81.8795889,37.5824214 80.9937825,36.8569038 79.9689482,36.8696909 C79.3556983,36.8650387 78.7685942,37.1177333 78.3504215,37.5663186 C77.9322489,38.0149038 77.7213253,38.6182752 77.7689482,39.2296909 L77.7689482,39.8997009 C77.721148,40.5102131 77.9323345,41.1126778 78.3508503,41.5597288 C78.7693661,42.0067797 79.3566134,42.2571875 79.9689482,42.2497009 C80.9806856,42.2843089 81.8690303,41.5820935 82.0689482,40.5897009 C82.0727154,40.5330969 82.0727154,40.476305 82.0689482,40.4197009 C82.0690347,40.3754755 82.0508119,40.3331867 82.0186069,40.3028761 C81.9864018,40.2725655 81.9430873,40.2569367 81.8989482,40.2597009 L81.1789382,40.2597009 C81.1391346,40.2569585 81.0998784,40.2701866 81.0698521,40.2964596 C81.0398258,40.3227327 81.0215037,40.3598855 81.0189382,40.3997009 C80.9712039,40.9446376 80.4944693,41.3500892 79.9489382,41.3097109 C79.3089282,41.3097109 78.8389382,40.8597109 78.8389382,40.0297109 L78.8389382,39.1097009 C78.8689382,38.2296909 79.3389382,37.7697009 79.9789382,37.7697009 L79.9489382,37.8196809 Z M73.3188382,38.3396809 C73.3188382,37.9096809 73.7088482,37.7696809 74.1588482,37.7696809 C74.6075645,37.69216 75.0413067,37.9697594 75.1588482,38.4096909 C75.1588482,38.5196909 75.2288482,38.5696909 75.3488482,38.5696909 L75.9988582,38.5696909 C76.0457323,38.5697721 76.0905599,38.5504953 76.1227449,38.5164172 C76.1549298,38.482339 76.1716156,38.4364839 76.1688582,38.3896909 C76.1752951,38.3465966 76.1752951,38.3027852 76.1688582,38.2596909 C75.962955,37.379373 75.1390529,36.7859927 74.2388582,36.8696909 C73.2388582,36.8696909 72.2388582,37.3196909 72.2388582,38.3896909 C72.2388582,40.4896909 75.1788582,39.6196909 75.1788582,40.6996909 C75.1788582,41.1796909 74.8188582,41.3597009 74.1788582,41.3597009 C73.7064691,41.4107277 73.263398,41.1223094 73.1188582,40.6696909 C73.1188582,40.5696909 73.0488582,40.4996909 72.9388582,40.4996909 L72.2988482,40.4996909 C72.201253,40.4991489 72.1191201,40.5726362 72.1088482,40.6696909 C72.0981727,40.715747 72.0981727,40.7636348 72.1088482,40.8096909 C72.3278685,41.7181056 73.17787,42.3301067 74.1088482,42.2496909 C75.1788482,42.2496909 76.1088482,41.8496909 76.1088482,40.6796909 C76.2788482,38.5596909 73.3488482,39.4196909 73.3488482,38.2896909 L73.3188382,38.3396809 Z M77.9788382,6.19968091 C79.1717733,6.19968091 80.1388382,5.23261597 80.1388382,4.03968091 C80.1388382,2.84674585 79.1717733,1.87968091 77.9788382,1.87968091 C76.7859032,1.87968091 75.8188382,2.84674585 75.8188382,4.03968091 C75.7839205,4.62357796 76.0063717,5.19349547 76.4276091,5.59934523 C76.8488466,6.005195 77.4266441,6.20629336 78.0088382,6.14968091 L77.9788382,6.19968091 Z M84.2789382,6.19968091 C85.4718733,6.19968091 86.4389382,5.23261597 86.4389382,4.03968091 C86.4389382,2.84674585 85.4718733,1.87968091 84.2789382,1.87968091 C83.0860032,1.87968091 82.1189382,2.84674585 82.1189382,4.03968091 C82.0840205,4.62357796 82.3064717,5.19349547 82.7277091,5.59934523 C83.1489466,6.005195 83.7267441,6.20629336 84.3089382,6.14968091 L84.2789382,6.19968091 Z M68.3989987,8.95968091 C68.3989987,8.44605057 67.9825586,8.02967091 67.4689282,8.02967091 L64.9789282,8.02967091 C64.4652979,8.02967091 64.0489182,8.44605057 64.0489182,8.95968091 L64.0489182,22.4696809 C64.1082167,23.4133477 63.6384352,24.3118462 62.8296518,24.8016348 C62.0208685,25.2914234 61.006968,25.2914234 60.1981846,24.8016348 C59.3894013,24.3118462 58.9196197,23.4133477 58.9789182,22.4696809 L58.9789182,22.1996809 C58.9789182,21.9530269 58.8809353,21.7164752 58.7065246,21.5420645 C58.5321139,21.3676538 58.2955622,21.2696709 58.0489082,21.2696709 L55.6489082,21.2696709 C55.1352779,21.2696709 54.7187978,21.6860506 54.7187978,22.1996809 L54.7187978,22.4096809 C54.7056365,24.862189 56.006425,27.1340955 58.1281766,28.3641938 C60.2499282,29.5942921 62.8678683,29.5942921 64.9896198,28.3641938 C67.1113714,27.1340955 68.4121599,24.862189 68.3989987,22.4096809 L68.3989987,8.95968091 Z M16.2679382,19.2996809 L23.6480382,0.129680913 C14.3137375,-0.8701138 5.32697148,3.97900367 1.03803823,12.3296809 C1.04369545,12.3728296 1.04369545,12.4165322 1.03803823,12.4596809 L0.718038227,13.2896909 C-1.52196177,19.0797909 1.89803823,23.3696909 5.21803823,24.6496909 C7.39126774,25.4428457 9.79314972,25.3214951 11.8753715,24.3133417 C13.9575934,23.3051883 15.5424122,21.4962902 16.2680382,19.2995909 L16.2679382,19.2996809 Z M64.0279382,36.8196809 C63.412186,36.812449 62.821588,37.0636172 62.3996627,37.5121505 C61.9777373,37.9606838 61.7631107,38.56552 61.8079382,39.1796809 L61.8079382,39.8496909 C61.8079382,40.6463932 62.2329738,41.3825765 62.9229382,41.7809277 C63.6129026,42.1792788 64.4629738,42.1792788 65.1529383,41.7809277 C65.8429027,41.3825765 66.2679383,40.6463932 66.2679382,39.8496909 L66.2679382,39.1796809 C66.3131155,38.5619934 66.095841,37.9538743 65.6694729,37.504665 C65.2431047,37.0554557 64.647141,36.8067703 64.0279382,36.8196809 L64.0279382,36.8196809 Z M65.1479382,39.9796809 C65.1479382,40.8096909 64.6879382,41.2596809 64.0279382,41.2596809 C63.3679382,41.2596809 62.9279382,40.8096809 62.9279382,39.9796809 L62.9279382,39.0596709 C62.9279382,38.2296609 63.3979382,37.7696709 64.0279382,37.7696709 C64.6579382,37.7696709 65.1479382,38.2296709 65.1479382,39.0596709 L65.1479382,39.9796809 Z M29.6479382,24.2696809 C25.2479382,35.7696809 14.6479382,40.0796809 4.93793823,38.4196809 C10.6678409,44.323605 19.1466429,46.6597681 27.0917953,44.5237301 C35.0369476,42.387692 41.2012144,36.1147696 43.1981138,28.1335104 C45.1950132,20.1522512 42.7110704,11.7155594 36.7079382,6.08968091 L29.6479382,24.2696809 Z M60.6479382,34.8596809 L56.6479382,34.8596809 C56.584267,34.8622785 56.5242428,34.8900913 56.481098,34.9369879 C56.4379531,34.9838844 56.4152301,35.0460143 56.4179382,35.1096809 L56.4179382,41.8597809 C56.415209,41.9224942 56.4382307,41.9835982 56.4816634,42.0289192 C56.5250962,42.0742403 56.5851656,42.0998403 56.6479382,42.0997809 L57.2779482,42.0997809 C57.3433145,42.1025069 57.4069606,42.0784299 57.454156,42.0331223 C57.5013513,41.9878147 57.528005,41.925204 57.5279482,41.8597809 L57.5279482,39.2097809 L60.0279482,39.2097809 C60.1604966,39.2097809 60.2679482,39.1023293 60.2679482,38.9697809 L60.2679482,38.4197709 C60.2680557,38.2855125 60.1620992,38.1751412 60.0279482,38.1697709 L57.5279482,38.1697709 L57.5279482,35.8997709 L60.6479482,35.8997709 C60.7822066,35.8998784 60.8925779,35.7939219 60.8979482,35.6597709 L60.8979482,35.1097709 C60.8979482,34.9716997 60.7860194,34.8597709 60.6479482,34.8597709 L60.6479382,34.8596809 Z M146.098938,36.9296809 L145.468938,36.9296809 C145.405285,36.9296783 145.344237,36.9549627 145.299226,36.9999717 C145.254215,37.0449808 145.228928,37.1060272 145.228928,37.1696809 L145.228928,39.9796809 C145.228928,40.8096909 144.808928,41.2596809 144.168928,41.2596809 C143.528928,41.2596809 143.168928,40.8096809 143.168928,39.9796809 L143.168928,37.1696809 C143.163558,37.0355299 143.053187,36.9295735 142.918928,36.9296809 L142.288918,36.9296809 C142.15637,36.9296809 142.048918,37.0371326 142.048918,37.1696809 L142.048918,39.8496809 C142.048918,41.2996809 142.638928,42.1996809 143.858918,42.1996809 C144.404568,42.2461952 144.932633,41.9936382 145.238918,41.5396709 L145.238918,41.8596709 C145.236048,41.9241619 145.260411,41.9868906 145.30606,42.0325368 C145.351708,42.078183 145.414437,42.1025443 145.478928,42.0996709 L146.108928,42.0996709 C146.241477,42.0996709 146.348952,41.9922193 146.348952,41.8596709 L146.348952,37.1696709 C146.349926,37.098441 146.319229,37.0304489 146.265142,36.9840885 C146.211055,36.9377282 146.139168,36.9177911 146.068928,36.9296709 L146.098938,36.9296809 Z M135.508938,21.4796809 L132.418938,21.4796809 C131.818938,21.4796809 131.698938,21.9596809 131.638928,22.4096909 C131.460215,24.1219773 129.932219,25.3685 128.218928,25.1996909 C126.028928,25.1996909 124.218928,23.5796909 124.218928,20.4896909 L124.218928,16.4896909 C124.218928,13.3996909 125.988928,11.7196909 128.218928,11.7196909 C129.957267,11.6247837 131.465179,12.9084873 131.648928,14.6396909 C131.738928,15.2397009 132.068928,15.4497009 132.398928,15.4497009 L135.458928,15.4497009 C135.654194,15.4626866 135.844407,15.3841944 135.97369,15.2372821 C136.102973,15.0903698 136.156645,14.891721 136.118938,14.6996909 C135.856086,10.5834957 132.338586,7.44000368 128.218838,7.63959091 C123.418838,7.63959091 119.908738,11.1795909 119.908738,16.4296909 L119.908738,20.4296909 C119.908738,25.6797909 123.418738,29.2197909 128.218838,29.2197909 C132.353414,29.3889899 135.884276,26.2641719 136.218938,22.1396909 C136.213759,21.9575156 136.13567,21.7850436 136.002186,21.6609599 C135.868702,21.5368763 135.690996,21.471567 135.508928,21.4796809 L135.508938,21.4796809 Z M140.108938,36.9296809 L139.968938,36.9296809 C139.405816,36.9164873 138.880418,37.2117878 138.598938,37.6996909 L138.598938,37.1696909 C138.598938,37.1060372 138.573651,37.0449908 138.52864,36.9999817 C138.483629,36.9549727 138.422582,36.9296883 138.358928,36.9296909 L137.778928,36.9296909 C137.715275,36.9296883 137.654227,36.9549727 137.609216,36.9999817 C137.564205,37.0449908 137.538918,37.1060372 137.538918,37.1696909 L137.538918,41.8596909 C137.536048,41.9241819 137.560411,41.9869106 137.60606,42.0325568 C137.651708,42.078203 137.714437,42.1025643 137.778928,42.0996909 L138.398928,42.0996909 C138.53319,42.0998037 138.643568,41.9938458 138.648938,41.8596909 L138.648938,39.5196909 C138.648938,38.5196909 139.088938,38.0296909 139.958938,38.0296909 L140.108938,38.0296909 C140.171651,38.0324202 140.232755,38.0093984 140.278077,37.9659657 C140.323398,37.922533 140.348998,37.8624635 140.348938,37.7996909 L140.348938,37.1696809 C140.348938,37.0371326 140.241487,36.9296809 140.108938,36.9296809 L140.108938,36.9296809 Z M135.418938,36.9296809 L134.368938,36.9296809 L134.368938,35.8296809 C134.371664,35.7643146 134.347587,35.7006686 134.30228,35.6534732 C134.256972,35.6062778 134.194361,35.5796808 134.128938,35.5796808 L133.518928,35.5796808 C133.455257,35.5822785 133.395233,35.6100913 133.352088,35.6569879 C133.308943,35.7038844 133.28622,35.7660143 133.288928,35.8296809 L133.288928,36.2796809 C133.288928,36.8096809 133.078928,36.9296909 132.568918,36.9296909 C132.43637,36.9296909 132.328918,37.0371426 132.328918,37.1696909 L132.328918,37.6396909 C132.328918,37.7722393 132.43637,37.8796909 132.568918,37.8796909 L133.278928,37.8796909 L133.278928,40.4396909 C133.278928,41.5096909 133.638938,42.0996909 134.878928,42.0996909 L135.418928,42.0996909 C135.482582,42.0996909 135.543629,42.0744091 135.58864,42.0294001 C135.633651,41.9843911 135.658938,41.9233446 135.658938,41.8596909 L135.658938,41.3296909 C135.658998,41.2669165 135.633396,41.2068454 135.588073,41.1634124 C135.54275,41.1199793 135.481643,41.0969588 135.418928,41.0996909 L135.058928,41.0996909 C134.438918,41.0996909 134.368918,40.8796909 134.368918,40.2896809 L134.368918,37.9096809 L135.418918,37.9096809 C135.486374,37.9074057 135.549754,37.8768318 135.593523,37.8254532 C135.637292,37.7740746 135.657403,37.7066409 135.648928,37.6396809 L135.648928,37.1396809 C135.634256,37.0226821 135.536766,36.9336728 135.418918,36.9296809 L135.418938,36.9296809 Z M154.038938,36.8196809 C153.390472,36.7907341 152.776156,37.1112507 152.428938,37.6596909 C152.124268,37.1123849 151.534448,36.7864278 150.908938,36.8196809 C150.367316,36.78785 149.852196,37.0569462 149.568938,37.5196909 L149.568938,37.1696909 C149.563568,37.0355361 149.45319,36.9295781 149.318928,36.9296909 L148.648928,36.9296909 C148.585276,36.9296909 148.524231,36.9549766 148.479223,36.9999853 C148.434214,37.044994 148.408928,37.106039 148.408928,37.1696909 L148.408928,41.8596909 C148.406058,41.9241801 148.43042,41.9869071 148.476066,42.032553 C148.521712,42.0781989 148.584439,42.1025614 148.648928,42.0996909 L149.278928,42.0996909 C149.41319,42.0998037 149.523568,41.9938458 149.528938,41.8596909 L149.528938,39.2196909 C149.528938,38.3896809 149.688938,37.7696909 150.528938,37.7696909 C151.368938,37.7696909 151.528938,38.2796909 151.528938,39.2196909 L151.528938,41.8596909 C151.528938,41.9922393 151.63639,42.0996909 151.768938,42.0996909 L152.408948,42.0996909 C152.541497,42.0996909 152.648948,41.9922393 152.648948,41.8596909 L152.648948,39.2196909 C152.648948,38.3296809 152.858948,37.7696909 153.698948,37.7696909 C154.538948,37.7696909 154.698948,38.3296909 154.698948,39.2196909 L154.698948,41.8596909 C154.696078,41.9241801 154.72044,41.9869071 154.766086,42.032553 C154.811732,42.0781989 154.874459,42.1025614 154.938948,42.0996909 L155.648958,42.0996909 C155.783217,42.0997984 155.893588,41.9938419 155.898958,41.8596909 L155.898958,39.3296909 C155.858958,37.8396909 155.558958,36.8196909 154.038958,36.8196909 L154.038938,36.8196809 Z M129.038938,36.8196809 C128.471999,36.781961 127.928921,37.0535039 127.618938,37.5296909 L127.618938,37.1696909 C127.618938,37.0371426 127.511487,36.9296909 127.378938,36.9296909 L126.738938,36.9296909 C126.676164,36.9296288 126.616092,36.9552276 126.572657,37.000549 C126.529222,37.0458704 126.506199,37.1069759 126.508928,37.1696909 L126.508928,41.8596909 C126.506199,41.9224059 126.529222,41.9835115 126.572657,42.0288329 C126.616092,42.0741543 126.676164,42.099753 126.738938,42.0996909 L127.378938,42.0996909 C127.511487,42.0996909 127.618938,41.9922393 127.618938,41.8596909 L127.618938,39.0596909 C127.618938,38.2296809 128.078948,37.7696909 128.718938,37.7696909 C129.358938,37.7696909 129.818938,38.2296909 129.818938,39.0596909 L129.818938,41.8596909 C129.816068,41.9241801 129.84043,41.9869071 129.886076,42.032553 C129.931722,42.0781989 129.994449,42.1025614 130.058938,42.0996909 L130.648938,42.0996909 C130.712592,42.0996936 130.773639,42.0744091 130.81865,42.0294001 C130.863661,41.9843911 130.888948,41.9233446 130.888948,41.8596909 L130.888948,39.1796909 C130.908948,37.7696909 130.288938,36.8196909 129.018948,36.8196909 L129.038938,36.8196809 Z M155.038938,7.97968091 L152.548938,7.97968091 C152.035308,7.97968091 151.618928,8.39606057 151.618928,8.90969091 L151.618928,16.4097909 L144.448828,16.4097909 L144.448828,8.90969091 C144.448828,8.39606448 144.032455,7.97968091 143.518828,7.97968091 L141.028828,7.97968091 C140.515198,7.97968091 140.098818,8.39606057 140.098818,8.90969091 L140.098818,28.0496909 C140.098818,28.5633213 140.515198,28.9797009 141.028828,28.9797009 L143.518828,28.9797009 C144.032455,28.9797009 144.448828,28.5633173 144.448828,28.0496909 L144.448828,20.4895909 L151.558928,20.4895909 L151.558928,28.0496909 C151.558928,28.2963449 151.656911,28.5328966 151.831322,28.7073073 C152.005733,28.881718 152.242284,28.9797009 152.488938,28.9797009 L154.978938,28.9797009 C155.492569,28.9797009 155.908948,28.5633213 155.908948,28.0496909 L155.908948,8.90969091 C155.908948,8.39606057 155.492569,7.97968091 154.978938,7.97968091 L155.038938,7.97968091 Z M99.2179382,36.8196809 C98.6509988,36.781961 98.1079206,37.0535039 97.7979382,37.5296909 L97.7979382,37.1696909 C97.7979382,37.0371426 97.6904866,36.9296909 97.5579382,36.9296909 L96.9279282,36.9296909 C96.7953799,36.9296909 96.6879282,37.0371426 96.6879282,37.1696909 L96.6879282,41.8596909 C96.6850577,41.9241801 96.7094203,41.9869071 96.7550662,42.032553 C96.800712,42.0781989 96.8634391,42.1025614 96.9279282,42.0996909 L97.5579382,42.0996909 C97.6904866,42.0996909 97.7979382,41.9922393 97.7979382,41.8596909 L97.7979382,39.0596909 C97.7979382,38.2296809 98.2579482,37.7696909 98.8979382,37.7696909 C99.5379482,37.7696909 99.9979382,38.2296909 99.9979382,39.0596909 L99.9979382,41.8596909 C99.9950675,41.9241819 100.019431,41.9869106 100.06508,42.0325568 C100.110728,42.078203 100.173457,42.1025643 100.237948,42.0996909 L100.867948,42.0996909 C101.00221,42.0998037 101.112588,41.9938458 101.117958,41.8596909 L101.117958,39.1796909 C101.117958,37.7696909 100.497948,36.8196909 99.2179582,36.8196909 L99.2179382,36.8196809 Z M105.878038,41.0996809 L104.538038,41.0996809 C104.188038,41.0996809 104.038038,40.9896809 104.038038,40.7296809 C104.034033,40.6231478 104.077451,40.5203184 104.156597,40.4488945 C104.235742,40.3774707 104.342474,40.3447989 104.448038,40.3596809 L105.448038,40.3596809 C105.956786,40.4402982 106.474997,40.2900213 106.861686,39.949735 C107.248375,39.6094488 107.463318,39.1145494 107.448038,38.5996809 L107.448038,36.4796809 C107.448038,36.3471326 107.340587,36.2396809 107.208038,36.2396809 L106.648028,36.2396809 C106.51548,36.2396809 106.408028,36.3471326 106.408028,36.4796809 L106.408028,37.1496909 C106.096247,36.9349256 105.72662,36.8198532 105.348028,36.8196909 L105.088028,36.8196909 C104.578464,36.7528578 104.06501,36.9108019 103.681107,37.2524758 C103.297203,37.5941498 103.080761,38.0858135 103.088028,38.5996909 C103.062391,39.1084913 103.315164,39.5910578 103.748028,39.8596909 C103.333282,39.925183 103.032772,40.2900932 103.048028,40.7097009 C103.02849,41.044351 103.214611,41.3571968 103.518028,41.4997109 C103.068797,41.7218656 102.793932,42.1891299 102.818018,42.6897109 C102.822298,43.1524759 103.025506,43.5910215 103.375795,43.8934571 C103.726084,44.1958926 104.189577,44.3329684 104.648018,44.2697109 L105.848018,44.2697109 C106.466345,44.3549795 107.07781,44.072889 107.414258,43.5471495 C107.750705,43.0214099 107.750705,42.3480119 107.414258,41.8222723 C107.07781,41.2965328 106.466345,41.0144423 105.848018,41.0997109 L105.878038,41.0996809 Z M105.128038,37.6896809 L105.408038,37.6896809 C105.754101,37.6532169 106.09066,37.8172953 106.275087,38.1123819 C106.459513,38.4074685 106.459513,38.7818933 106.275087,39.0769799 C106.09066,39.3720665 105.754101,39.536145 105.408038,39.4996809 L105.128038,39.4996809 C104.870428,39.5388885 104.608807,39.4605635 104.415123,39.2862457 C104.221439,39.111928 104.116086,38.8599734 104.128038,38.5996709 C104.116661,38.3387511 104.221767,38.0862575 104.414927,37.91048 C104.608087,37.7347024 104.869344,37.6538026 105.128038,37.6896609 L105.128038,37.6896809 Z M105.668038,43.4097809 L104.848028,43.4097809 C104.148028,43.4097809 103.898018,43.1297809 103.898018,42.6897709 C103.898018,42.2497709 104.148028,41.9397609 104.848028,41.9397609 L105.648038,41.9397609 C106.358048,41.9397609 106.648038,42.2297609 106.648038,42.6897709 C106.648038,43.1497709 106.378038,43.4097809 105.648038,43.4097809 L105.668038,43.4097809 Z M110.268038,38.2896809 C110.268038,37.8596809 110.658038,37.7196709 111.108048,37.7196709 C111.555768,37.6470263 111.986496,37.922697 112.108048,38.3596809 C112.108048,38.4696809 112.178048,38.5196809 112.288048,38.5196809 L112.948058,38.5196809 C112.994932,38.5197621 113.03976,38.5004853 113.071945,38.4664072 C113.10413,38.432329 113.120816,38.3864739 113.118058,38.3396809 C113.124495,38.2965866 113.124495,38.2527752 113.118058,38.2096809 C112.912155,37.329363 112.088253,36.7359827 111.188058,36.8196809 C110.188058,36.8196809 109.188058,37.2696809 109.188058,38.3396809 C109.188058,40.4396809 112.128058,39.5696809 112.128058,40.6496809 C112.128058,41.1296809 111.768048,41.3096909 111.178048,41.3096909 C110.705659,41.3607177 110.262588,41.0722994 110.118048,40.6196809 C110.118048,40.5196809 110.048048,40.4496809 109.938038,40.4496809 L109.288038,40.4496809 C109.192405,40.4495332 109.113351,40.5241951 109.108038,40.6196809 C109.097363,40.665737 109.097363,40.7136248 109.108038,40.7596809 C109.325427,41.6913733 110.207845,42.3112178 111.158038,42.1996809 C112.228038,42.1996809 113.158038,41.7996809 113.158038,40.6296809 C113.198038,38.5596809 110.268038,39.4196809 110.268038,38.2896809 L110.268038,38.2896809 Z M107.158038,28.0496809 L107.158038,25.8296809 C107.158038,25.3160506 106.741659,24.8996709 106.228028,24.8996709 L98.2279282,24.8996709 L98.2279282,8.89967091 C98.2279282,8.38604057 97.8115486,7.96966091 97.2979182,7.96966091 L94.8079182,7.96966091 C94.2942879,7.96966091 93.8779082,8.38604057 93.8779082,8.89967091 L93.8779082,28.0496709 C93.8779082,28.5633013 94.2942879,28.9796809 94.8079182,28.9796809 L106.207918,28.9796809 C106.458019,28.9850606 106.699741,28.8894578 106.878502,28.7144606 C107.057263,28.5394634 107.158038,28.2998296 107.158038,28.0496709 L107.158038,28.0496809 Z M115.408138,28.0496809 L115.408138,8.90968091 C115.408138,8.39605057 114.991759,7.97967091 114.478128,7.97967091 L111.988128,7.97967091 C111.474498,7.97967091 111.058118,8.39605057 111.058118,8.90968091 L111.058118,28.0496809 C111.058118,28.5633113 111.474498,28.9796909 111.988128,28.9796909 L114.478128,28.9796909 C114.991759,28.9796909 115.408138,28.5633113 115.408138,28.0496809 Z M118.408138,36.9297808 L114.998138,36.9297808 C114.863876,36.9296681 114.753499,37.0356261 114.748128,37.1697809 L114.748128,37.6397809 C114.748071,37.7052058 114.774726,37.7678182 114.821924,37.813126 C114.869122,37.8584339 114.93277,37.8825097 114.998138,37.8797809 L117.348138,37.8797809 L114.938138,40.9597809 C114.806402,41.0749995 114.736106,41.2451806 114.748128,41.4197809 L114.748128,41.8397809 C114.748071,41.9052058 114.774726,41.9678182 114.821924,42.013126 C114.869122,42.0584339 114.93277,42.0825097 114.998138,42.0797809 L118.408138,42.0797809 C118.472627,42.0826514 118.535354,42.0582889 118.581,42.012643 C118.626646,41.9669971 118.651009,41.9042701 118.648138,41.8397809 L118.648138,41.3697809 C118.650864,41.3044146 118.626787,41.2407686 118.58148,41.1935732 C118.536172,41.1463778 118.473561,41.1197241 118.408138,41.1197809 L116.018138,41.1197809 L118.498138,38.0497809 C118.604717,37.9410097 118.659361,37.7916504 118.648138,37.6397809 L118.648138,37.1397809 C118.636081,37.0328634 118.554341,36.9470358 118.448138,36.9297808 L118.408138,36.9297808 Z M122.408138,36.8197809 C121.789877,36.8099559 121.195777,37.0595947 120.770096,37.5080798 C120.344415,37.9565648 120.126091,38.5628733 120.168138,39.1797809 L120.168138,39.8497909 C120.128848,40.4667931 120.349805,41.072043 120.77737,41.5186113 C121.204936,41.9651796 121.800011,42.2122307 122.418138,42.1997909 C123.305899,42.2069402 124.104091,41.6601787 124.418138,40.8297909 C124.425698,40.7733764 124.425698,40.7162055 124.418138,40.6597909 C124.420896,40.6129979 124.40421,40.5671428 124.372025,40.5330647 C124.33984,40.4989865 124.295012,40.4797097 124.248138,40.4797909 L123.578128,40.4797909 C123.478088,40.4865421 123.388035,40.5428256 123.338128,40.6297909 C123.177838,41.0353865 122.773179,41.2903256 122.338128,41.2598009 C122.021263,41.2580108 121.719438,41.1244181 121.505063,40.8910719 C121.290688,40.6577257 121.183107,40.3456822 121.208128,40.0298009 L121.208128,39.8898009 L124.278128,39.8898009 C124.360539,39.9358915 124.461886,39.9316186 124.540124,39.8787549 C124.618362,39.8258912 124.660141,39.7334571 124.648128,39.6398009 L124.648128,39.1598009 C124.686746,38.5542045 124.473509,37.9595506 124.058853,37.516494 C123.644198,37.0734374 123.064953,36.8213291 122.458128,36.8198009 L122.408138,36.8197809 Z M123.528138,39.0997809 L121.288138,39.0997809 L121.288138,38.9797809 C121.288138,38.361222 121.789579,37.8597809 122.408138,37.8597809 C123.026697,37.8597809 123.528138,38.361222 123.528138,38.9797809 L123.528138,39.0997809 Z" id="Shape"></path>
        </g>
    </g>
</svg>