<?xml version="1.0" encoding="UTF-8"?>
<svg width="157px" height="31px" viewBox="0 0 157 31" version="1.1" xmlns="http://www.w3.org/2000/svg" xmlns:xlink="http://www.w3.org/1999/xlink">
    <title>krakend</title>
    <g id="Page-1" stroke="none" stroke-width="1" fill="none" fill-rule="evenodd">
        <g id="krakend" transform="translate(-0, 0.928)" fill="#000000" fill-rule="nonzero">
            <path d="M15.0240104,0 C19.0480104,0 22.8200104,1.531 25.6430104,4.31 C28.4830104,7.107 30.0480104,10.865 30.0480104,14.89 C30.0480104,23.222 23.3080104,30 15.0240104,30 C8.84601044,30 3.52701044,26.23 1.22101044,20.857 C1.20036172,20.8141191 1.18068998,20.7707746 1.16201044,20.727 C0.393270973,18.8770828 -0.00165327586,16.8932851 5.20192595e-06,14.89 C5.20192595e-06,10.865 1.56501044,7.107 4.40501044,4.31 C7.23001044,1.532 11.0000052,0.001 15.0240104,0.001 L15.0240104,0 Z M16.0750104,4.44 L15.8740104,4.469 L15.8570104,4.471 L15.8670104,4.47 L15.8740104,4.469 L16.0770104,4.446 L15.8670104,4.47 L15.8530104,4.472 L15.8330104,4.475 L16.0770104,4.445 C11.4770104,4.925 9.43301044,8.309 9.44901044,11.448 C9.45101044,11.805 9.48101044,12.156 9.53701044,12.498 C10.9173917,11.4029942 12.6290648,10.8098681 14.3910104,10.816 C18.6990104,10.816 22.1610104,14.29 22.2710104,18.726 C22.3240104,20.846 21.5950104,22.749 20.1630104,24.226 C18.5350104,25.906 16.1710104,26.87 13.4690104,26.969 C13.2070104,26.987 12.9490104,26.992 12.6970104,26.992 C10.1550104,26.992 8.12901044,26.49 6.52901044,25.771 C8.94462936,27.6896419 11.9391446,28.7330515 15.0240104,28.731003 C22.6120104,28.731003 28.7860194,22.521 28.7860194,14.89 C28.7874504,13.6291901 28.6158494,12.3741471 28.2760104,11.16 L28.1440104,10.719 L27.9830104,10.439 C24.8930104,5.263 19.8790104,3.938 16.0750104,4.44 L16.0750104,4.44 Z M15.0240104,1.27 C11.3320104,1.27 7.87401044,2.672 5.28801044,5.218 C2.69201044,7.774 1.26301044,11.209 1.26301044,14.89 C1.26301044,16.831 1.66301044,18.68 2.38301044,20.359 C2.80301044,21.214 5.42301044,25.841 13.0070104,25.719 L13.0070104,25.707 C15.5580104,25.707 17.7790104,24.867 19.2590104,23.339 C20.4490104,22.113 21.0540104,20.529 21.0090104,18.757 C21.0004723,18.4049924 20.9663827,18.0540695 20.9070104,17.707 C19.5286848,18.794495 17.8226839,19.3831358 16.0670104,19.377 C11.7440104,19.377 8.20901044,15.823 8.18701044,11.454 C8.16501044,7.136 11.2500104,3.776 15.7180104,3.209 L15.6420104,3.22 C18.2780104,2.812 21.4820104,3.197 24.3640104,4.947 L24.6930104,5.154 L24.4890104,4.959 C21.9350104,2.577 18.5890104,1.269 15.0240104,1.269 L15.0240104,1.27 Z M10.4260104,19.099 C11.8596063,19.1045122 13.0182266,20.2693952 13.0160136,21.703 C13.0182266,23.1366048 11.8596063,24.3014878 10.4260104,24.307 C8.99241456,24.3014878 7.83379429,23.1366048 7.83600726,21.703 C7.83379429,20.2693952 8.99241456,19.1045122 10.4260104,19.099 L10.4260104,19.099 Z M10.4260104,20.369 C9.69401044,20.369 9.09901044,20.967 9.09901044,21.703 C9.09901044,22.438 9.69501044,23.037 10.4260104,23.037 C11.1580104,23.037 11.7530104,22.438 11.7530104,21.703 C11.7530104,20.967 11.1580104,20.368 10.4260104,20.368 L10.4260104,20.369 Z M5.48101044,13.701 C7.14010001,13.7076142 8.48078052,15.0558996 8.47801472,16.715 C8.48078052,18.3741004 7.14010001,19.7223858 5.48101044,19.729 C3.82208208,19.7223852 2.48168819,18.3739382 2.48500427,16.715 C2.48223871,15.0562883 3.82231185,13.7081639 5.48101044,13.701 L5.48101044,13.701 Z M25.5040104,13.758 C26.9376063,13.7640626 28.0957802,14.929394 28.0930154,16.363 C28.0952266,17.7966048 26.9366063,18.9614878 25.5030104,18.967 C24.0698055,18.9609381 22.9117927,17.796216 22.9140055,16.363 C22.9112422,14.9290052 24.0700235,13.7635127 25.5040104,13.758 L25.5040104,13.758 Z M5.48001044,14.972 C4.52401044,14.972 3.74601044,15.754 3.74601044,16.716 C3.74601044,17.677 4.52401044,18.46 5.48001044,18.46 C6.43701044,18.46 7.21501044,17.677 7.21501044,16.716 C7.21501044,15.754 6.43701044,14.972 5.48001044,14.972 L5.48001044,14.972 Z M14.3900104,12.0859658 C12.7241808,12.080617 11.1191784,12.7116008 9.90301044,13.85 C10.8710104,16.34 13.2730104,18.1080399 16.0660104,18.1080399 C17.7231912,18.1137856 19.3206603,17.4896681 20.5350104,16.362 C19.5580104,13.837 17.1870104,12.0859658 14.3910104,12.0859658 L14.3900104,12.0859658 Z M25.5030104,15.029 C24.7710104,15.029 24.1760104,15.627 24.1760104,16.363 C24.1760104,17.099 24.7710104,17.698 25.5030104,17.698 C26.2340104,17.698 26.8300104,17.099 26.8300104,16.363 C26.8300104,15.627 26.2340104,15.029 25.5030104,15.029 L25.5030104,15.029 Z M22.2270104,6.98 C23.8861,6.98661425 25.2267805,8.33489955 25.2240166,9.994 C25.2273314,11.6533271 23.8863298,13.0019353 22.2270104,13.008 C20.5676911,13.0019353 19.2266895,11.6533271 19.2300043,9.994 C19.2272404,8.33489955 20.5679209,6.98661425 22.2270104,6.98 L22.2270104,6.98 Z M5.44501044,7.742 C6.70541857,7.74696141 7.72377823,8.77158515 7.72101607,10.032 C7.72212239,11.2912446 6.70424578,12.3140407 5.44501044,12.319 C4.18538437,12.3140397 3.16734688,11.2906347 3.16900683,10.031 C3.16679493,8.77097519 4.18499345,7.74696096 5.44501044,7.742 Z M22.2280104,8.25 C21.2720104,8.25 20.4940104,9.033 20.4940104,9.994 C20.4940104,10.956 21.2720104,11.739 22.2280104,11.739 C23.1840104,11.739 23.9620152,10.956 23.9620152,9.994 C23.9642235,9.03380221 23.1882051,8.25330849 22.2280104,8.25 L22.2280104,8.25 Z M5.44501044,9.012 C4.88601044,9.012 4.43201044,9.469 4.43201044,10.032 C4.43201044,10.593 4.88601044,11.05 5.44501044,11.05 C6.00401044,11.05 6.45801044,10.593 6.45801044,10.031 C6.45801044,9.469 6.00401044,9.012 5.44501044,9.012 Z M15.7380104,5.588 C16.9976364,5.59351069 18.0152275,6.6173639 18.0130141,7.877 C18.0146758,9.13624605 16.9972455,10.1594902 15.7380104,10.165 C14.4783844,10.1600397 13.4603469,9.13663473 13.4620048,7.877 C13.4592426,6.61658515 14.4776023,5.59196141 15.7380104,5.587 L15.7380104,5.588 Z M15.7380104,6.858 C15.1780104,6.858 14.7240104,7.314 14.7240104,7.876 C14.7240104,8.438 15.1790104,8.895 15.7380104,8.895 C16.2960104,8.895 16.7510104,8.438 16.7510104,7.876 C16.7510104,7.314 16.2960104,6.857 15.7380104,6.857 L15.7380104,6.858 Z M40.0640104,7.735 L44.8060104,5 L44.8060104,14.76 L50.3600104,8.55 L56.0400104,8.55 L49.6740104,15.269 L56.2570104,25.619 L50.8280104,25.619 L46.4600104,18.644 L44.8060104,20.428 L44.8060104,25.618 L40.0640104,25.618 L40.0640104,7.735 Z M57.2850104,8.549 L62.0280104,8.549 L62.0280104,11.989 C62.9950104,9.632 64.5550104,8.104 67.3630104,8.231 L67.3630104,13.294 L67.1130104,13.294 C63.9630104,13.294 62.0280104,15.237 62.0280104,19.313 L62.0280104,25.618 L57.2850104,25.618 L57.2850104,8.549 Z M67.3000104,20.714 L67.3000104,20.65 C67.3000104,16.924 70.0770104,15.205 74.0400104,15.205 C75.7250104,15.205 76.9410104,15.491 78.1270104,15.905 L78.1270104,15.619 C78.1270104,13.613 76.9100104,12.499 74.5390104,12.499 C72.7290104,12.499 71.4490104,12.849 69.9210104,13.422 L68.7360104,9.728 C70.5760104,8.9 72.3860104,8.358 75.2260104,8.358 C77.8150104,8.358 79.6870104,9.059 80.8730104,10.269 C82.1210104,11.543 82.6830104,13.422 82.6830104,15.714 L82.6830104,25.618 L78.0960104,25.618 L78.0960104,23.772 C76.9410104,25.078 75.3500104,25.938 73.0410104,25.938 C69.8910104,25.938 67.3010104,24.09 67.3010104,20.715 L67.3000104,20.714 Z M78.1900104,19.599 L78.1900104,18.739 C77.3790104,18.357 76.3170104,18.103 75.1630104,18.103 C73.1350104,18.103 71.8870104,18.931 71.8870104,20.459 L71.8870104,20.523 C71.8870104,21.829 72.9470104,22.593 74.4770104,22.593 C76.6920104,22.593 78.1890104,21.351 78.1890104,19.599 L78.1900104,19.599 Z M85.0480104,7.735 L89.7910104,5 L89.7910104,14.76 L95.3450104,8.55 L101.02301,8.55 L94.6580104,15.269 L101.24201,25.619 L95.8120104,25.619 L91.4440104,18.644 L89.7910104,20.428 L89.7910104,25.618 L85.0480104,25.618 L85.0480104,7.735 Z" id="Shape"></path>
            <path d="M100.68001,17.179 L100.68001,17.115 C100.68001,12.243 104.08001,8.231 108.94701,8.231 C114.53201,8.231 117.09101,12.657 117.09101,17.498 C117.09101,17.88 117.06001,18.326 117.02801,18.771 L105.39001,18.771 C105.85801,20.969 107.35601,22.115 109.47801,22.115 C111.06801,22.115 112.22401,21.605 113.53401,20.365 L116.24801,22.815 C114.68801,24.79 112.44201,26 109.41601,26 C104.39201,26 100.67901,22.402 100.67901,17.18 L100.68001,17.179 Z M112.47301,15.747 C112.19301,13.581 110.94401,12.117 108.94701,12.117 C106.98101,12.117 105.70301,13.549 105.32801,15.747 L112.47301,15.747 Z M118.89501,8.549 L123.63701,8.549 L123.63701,10.97 C124.72901,9.537 126.13301,8.231 128.53601,8.231 C132.12401,8.231 134.21501,10.651 134.21501,14.568 L134.21501,25.618 L129.47201,25.618 L129.47201,16.097 C129.47201,13.804 128.41201,12.626 126.60201,12.626 C124.79201,12.626 123.63701,13.804 123.63701,16.096 L123.63701,25.618 L118.89501,25.618 L118.89501,8.549 Z M141.76301,5 L145.27401,5 C151.76501,5 156.25001,9.315 156.25001,14.943 L156.25001,15 C156.25001,20.629 151.76501,25 145.27401,25 L137.22001,25 L137.22001,8.971 L141.76301,5 L141.76301,5 Z M145.27401,21.029 C148.99201,21.029 151.50001,18.6 151.50001,15.057 L151.50001,15 C151.50001,11.457 148.99201,8.971 145.27401,8.971 L141.76401,8.971 L141.76401,21.029 L145.27401,21.029 Z" id="Shape"></path>
        </g>
    </g>
</svg>