<?xml version="1.0" encoding="UTF-8"?>
<svg width="291px" height="83px" viewBox="0 0 291 83" version="1.1" xmlns="http://www.w3.org/2000/svg" xmlns:xlink="http://www.w3.org/1999/xlink">
    <title>unknown</title>
    <g id="Page-1" stroke="none" stroke-width="1" fill="none" fill-rule="evenodd">
        <g id="unknown" transform="translate(0, -0.0009)" fill="#000000" fill-rule="nonzero">
            <g id="Group" transform="translate(97.163, 11.7759)">
                <path d="M35.848,59.042 C33.769,59.837 31.637,60.425 29.453,60.807 C27.267,61.189 25.014,61.38 22.691,61.38 C15.419,61.38 9.816,59.408 5.891,55.467 C1.963,51.525 0,45.765 0,38.185 C0,34.549 0.565,31.248 1.695,28.284 C2.826,25.32 4.416,22.783 6.462,20.674 C8.511,18.565 10.955,16.939 13.797,15.792 C16.64,14.646 19.772,14.073 23.195,14.073 C25.578,14.073 27.809,14.24 29.888,14.578 C31.966,14.913 33.952,15.464 35.847,16.227 L35.847,23.837 C33.86,22.798 31.836,22.042 29.773,21.567 C27.71,21.094 25.578,20.857 23.378,20.857 C21.33,20.857 19.397,21.247 17.579,22.025 C15.761,22.805 14.162,23.929 12.788,25.395 C11.413,26.863 10.328,28.651 9.533,30.758 C8.739,32.867 8.342,35.25 8.342,37.908 C8.342,43.471 9.694,47.635 12.399,50.4 C15.103,53.167 18.854,54.55 23.652,54.55 C25.821,54.55 27.922,54.305 29.955,53.816 C31.987,53.327 33.951,52.593 35.846,51.616 L35.846,59.042 L35.848,59.042 Z" id="Path"></path>
                <path d="M88.794,60.097 C86.991,60.555 85.127,60.884 83.201,61.082 C81.277,61.281 79.321,61.38 77.334,61.38 C71.559,61.38 67.248,60.074 64.408,57.461 C61.564,54.848 60.143,50.837 60.143,45.429 L60.143,21.407 L47.262,21.407 L47.262,14.714 L60.143,14.714 L60.143,2.062 L68.121,-5.32907052e-15 L68.121,14.714 L88.795,14.714 L88.795,21.407 L68.121,21.407 L68.121,44.786 C68.121,48.086 68.999,50.555 70.755,52.188 C72.513,53.824 75.104,54.642 78.527,54.642 C79.993,54.642 81.597,54.527 83.338,54.298 C85.082,54.068 86.9,53.71 88.795,53.22 L88.795,60.097 L88.794,60.097 Z" id="Path"></path>
                <path d="M140.317,60.738 L133.166,60.738 L132.892,53.312 C131.515,54.902 130.21,56.222 128.972,57.278 C127.736,58.331 126.504,59.179 125.283,59.821 C124.06,60.463 122.83,60.914 121.593,61.172 C120.355,61.432 119.048,61.563 117.674,61.563 C112.936,61.563 109.361,60.173 106.947,57.391 C104.532,54.61 103.325,50.409 103.325,44.786 L103.325,14.714 L111.302,14.714 L111.302,44.145 C111.302,51.204 113.961,54.735 119.278,54.735 C120.256,54.735 121.21,54.59 122.144,54.298 C123.075,54.007 124.052,53.503 125.077,52.785 C126.1,52.067 127.2,51.096 128.378,49.873 C129.554,48.652 130.877,47.109 132.344,45.244 L132.344,14.714 L140.319,14.714 L140.319,60.738 L140.317,60.738 Z" id="Path"></path>
                <path d="M193.814,35.298 C193.814,36.428 193.798,37.375 193.768,38.139 C193.739,38.903 193.692,39.622 193.631,40.294 L161.313,40.294 C161.313,45.001 162.628,48.614 165.256,51.135 C167.884,53.656 171.674,54.918 176.625,54.918 C177.969,54.918 179.313,54.865 180.659,54.756 C182.003,54.651 183.301,54.506 184.555,54.321 C185.807,54.137 187.006,53.931 188.152,53.702 C189.299,53.473 190.36,53.22 191.339,52.945 L191.339,59.501 C189.169,60.112 186.715,60.609 183.981,60.991 C181.247,61.373 178.412,61.564 175.478,61.564 C171.536,61.564 168.144,61.029 165.301,59.959 C162.459,58.89 160.129,57.339 158.309,55.307 C156.492,53.275 155.148,50.785 154.276,47.835 C153.405,44.887 152.969,41.549 152.969,37.819 C152.969,34.581 153.434,31.516 154.367,28.628 C155.3,25.741 156.659,23.204 158.447,21.019 C160.234,18.834 162.426,17.099 165.025,15.816 C167.622,14.532 170.572,13.89 173.873,13.89 C177.081,13.89 179.924,14.396 182.399,15.403 C184.876,16.413 186.96,17.841 188.656,19.69 C190.352,21.539 191.635,23.786 192.507,26.428 C193.379,29.071 193.814,32.026 193.814,35.298 Z M185.517,34.152 C185.61,32.104 185.41,30.232 184.921,28.535 C184.432,26.84 183.675,25.381 182.652,24.158 C181.629,22.935 180.352,21.981 178.825,21.292 C177.296,20.605 175.524,20.262 173.507,20.262 C171.764,20.262 170.176,20.597 168.74,21.269 C167.302,21.941 166.065,22.89 165.026,24.113 C163.987,25.334 163.147,26.801 162.506,28.511 C161.861,30.223 161.466,32.103 161.312,34.151 L185.517,34.151 L185.517,34.152 Z" id="Shape"></path>
            </g>
            <path d="M30.93,82.7838957 C30.211,82.7838957 29.481,82.6618957 28.767,82.4058957 C11.56,76.2238957 0,59.7858957 0,41.5008957 C0,23.0398957 11.711,6.54989566 29.142,0.46889566 C32.478,-0.69710434 36.128,1.06489566 37.291,4.40289566 C38.456,7.73789566 36.694,11.3868957 33.358,12.5508957 C21.06,16.8418957 12.797,28.4758957 12.797,41.5008957 C12.797,54.4018957 20.953,66.0008957 33.094,70.3608957 C36.42,71.5558957 38.147,75.2198957 36.951,78.5458957 C36.014,81.1568957 33.553,82.7838957 30.93,82.7838957 Z" id="Path"></path>
            <path d="M55.663,82.8928957 C53.017,82.8928957 50.542,81.2408957 49.621,78.6008957 C48.457,75.2648957 50.218,71.6158957 53.555,70.4528957 C65.854,66.1608957 74.117,54.5258957 74.117,41.5008957 C74.117,28.3488957 65.748,16.6788957 53.29,12.4618957 C49.943,11.3288957 48.148,7.69689566 49.282,4.34889566 C50.415,1.00089566 54.048,-0.79510434 57.393,0.34089566 C75.05,6.31789566 86.914,22.8578957 86.914,41.5008957 C86.914,59.9628957 75.203,76.4538957 57.771,82.5348957 C57.073,82.7778957 56.361,82.8928957 55.663,82.8928957 Z" id="Path"></path>
        </g>
    </g>
</svg>