<svg xmlns="http://www.w3.org/2000/svg" width="98" height="20" fill="none" viewBox="0 0 98 20"><path fill="#161A1E" d="M22.95 9.389H6.022L0 16.556h16.928z"></path><path fill="#161A1E" fill-rule="evenodd" d="M47.51 17.062c-1.768 0-2.4-.383-2.4-1.66 0-1.15.632-1.61 2.532-1.61h1.9v1.328c0 1.278-.633 1.942-2.031 1.942m-1.636 2.812c2.058 0 2.982-.665 3.642-1.636v1.485h3.72v-9.28c0-3.09-1.187-4.65-5.304-4.65-3.985 0-5.942 1.364-5.942 4.446l3.68.046c.025-.128.072-.292.102-.401.244-.894.665-1.177 2.029-1.177 1.477 0 1.715.613 1.715 1.635v.946h-1.742c-4.723 0-6.333 1.43-6.333 4.344 0 2.862 1.452 4.242 4.433 4.242" clip-rule="evenodd"></path><path fill="#161A1E" d="M35.88 15.338h-.002c-.267-.43-.892-.613-1.939-.808l-.365-.06c-2.377-.392-5.333-.878-5.308-4.182 0-2.683 1.478-4.37 5.673-4.37 3.826 0 5.5 1.636 5.57 4.37l-3.604.076c-.132-1.2-.617-1.61-2.041-1.61-1.162 0-1.904.308-1.904 1.125 0 1.098.818 1.252 2.613 1.559 2.294.375 5.046.944 5.172 3.9q.008.143.006.293c0 2.683-1.478 4.369-5.673 4.369-3.827 0-5.62-1.636-5.69-4.37l3.664-.076c.132 1.2.706 1.61 2.13 1.61 1.162 0 1.874-.307 1.874-1.125 0-.292-.058-.521-.177-.7M55.32 4.531 59.12 0v19.728h-3.8z"></path><path fill="#161A1E" fill-rule="evenodd" d="M80.502 19.943c4.354 0 6.147-2.224 6.147-5.213v-3.68c0-3.041-1.793-5.213-6.147-5.213s-6.096 2.172-6.096 5.213v3.68c0 2.99 1.715 5.213 6.096 5.213m0-2.965c-1.531 0-2.296-.792-2.296-2.07v-3.935c0-1.303.765-2.095 2.295-2.095s2.348.792 2.348 2.096v3.934c0 1.278-.818 2.07-2.347 2.07M64.691 11.408v-.69c0-1.202.554-2.02 2.216-2.02 1.61 0 2.138.691 2.138 2.02v.69zm2.215 8.535c3.544 0 4.98-1.338 5.54-2.932.116-.329.194-.67.246-1.01.013-.209.017-.343.02-.417l-3.643-.09c0 .015-.006.06-.006.06s-.045.28-.079.416c-.198.8-.634 1.213-2.077 1.213-1.82 0-2.217-.895-2.217-2.07v-1.124h8.022v-2.454c0-3.424-1.345-5.698-5.805-5.698-4.407 0-5.91 2.3-5.91 5.213v3.68c0 2.836 1.529 5.213 5.91 5.213" clip-rule="evenodd"></path><path fill="#161A1E" d="m97.228 5.956-3.134 3.737-.031.032h-2.036v10.003h-3.8V9.72l3.156-3.763z"></path></svg>
