<?xml version="1.0" encoding="UTF-8"?> <svg xmlns="http://www.w3.org/2000/svg" xmlns:xlink="http://www.w3.org/1999/xlink" version="1.1" id="Layer_2" x="0px" y="0px" viewBox="0 0 247.9 247.7" style="enable-background:new 0 0 247.9 247.7;" xml:space="preserve"> <style type="text/css"> .st0{fill:#000000;} </style> <rect class="st0" width="4.2" height="237.5"></rect> <g> <path d="M53.1,120.7c0,8.9-5.1,13.6-13.9,13.6c-9.1,0-14.5-4.2-14.5-13.6V98.1h4.7v22.6c0,6.2,3.6,9.7,9.8,9.7 c5.9,0,9.2-3.4,9.2-9.7V98.1h4.7V120.7z"></path> <path d="M59.4,98.1h4.7v17.6L82,98.1h6.1l-14.9,14.3l15.5,21.1h-5.9L70,115.6l-5.9,5.5v12.4h-4.7V98.1z"></path> <path d="M114.8,98.1h5.2l13.8,35.3h-5.2l-3.9-10.6h-14.9l-4,10.6H101L114.8,98.1z M111.3,118.8h12l-5.9-16.5h-0.1L111.3,118.8z"></path> <path d="M140.5,107.9h5.1v3.7h-5.1v15.9c0,1.9,0.5,2.3,3.2,2.3h1.9v3.7h-3.2c-4.4,0-6.1-0.9-6.1-5.6v-16.3h-4.4v-3.7h4.4v-7.7h4.2 V107.9z"></path> <path d="M159.2,107.3c8.1,0,12.4,5.9,12.4,13.4c0,7.5-4.3,13.4-12.4,13.4c-8.1,0-12.4-5.9-12.4-13.4 C146.7,113.2,151,107.3,159.2,107.3z M159.2,130.3c4.4,0,8-3.5,8-9.7c0-6.2-3.6-9.7-8-9.7c-4.4,0-8,3.5-8,9.7 C151.2,126.9,154.8,130.3,159.2,130.3z"></path> <path d="M175.4,107.9h4v3.8h0.1c1.9-2.9,4.8-4.4,8.3-4.4c3.1,0,6,1.2,7,4.4c1.7-2.7,4.8-4.4,8-4.4c5.1,0,8.5,2.1,8.5,7.4v18.8h-4.2 v-16.8c0-3.2-0.8-5.7-4.9-5.7c-4.1,0-6.7,2.6-6.7,6.5v15.9h-4.2v-16.8c0-3.3-1-5.7-4.8-5.7c-5,0-6.8,4.6-6.8,6.5v15.9h-4.2V107.9z"></path> <path d="M220.7,103.3h-4.2v-5.1h4.2V103.3z M216.5,107.9h4.2v25.6h-4.2V107.9z"></path> <path d="M243.4,116.1c-0.6-3.2-2.9-5.1-6.3-5.1c-6.1,0-8,4.8-8,10c0,4.7,2.1,9.4,7.5,9.4c4.1,0,6.5-2.4,7-6.2h4.3 c-0.9,6.2-4.9,9.9-11.3,9.9c-7.8,0-12-5.4-12-13.1c0-7.7,4-13.7,12.1-13.7c5.8,0,10.4,2.7,11,8.8H243.4z"></path> <path d="M24.9,150.1h24.4v4H29.6v11.2H48v4H29.6v12.2h19.8v4H24.9V150.1z"></path> <path d="M52.9,159.9h4v4.1H57c1.8-3.2,4.7-4.7,8.3-4.7c6.7,0,8.8,3.9,8.8,9.4v16.8h-4.2v-17.3c0-3.1-2-5.1-5.2-5.1 c-5.1,0-7.6,3.4-7.6,8v14.5h-4.2V159.9z"></path> <path d="M101,177.3c-1.1,5.6-5.2,8.7-10.9,8.7c-8.2,0-12-5.6-12.3-13.5c0-7.7,5-13.3,12-13.3c9.1,0,11.8,8.5,11.6,14.7H82.3 c-0.1,4.5,2.4,8.4,8,8.4c3.5,0,5.9-1.7,6.6-5H101z M97,170.2c-0.2-4-3.2-7.2-7.4-7.2c-4.4,0-7,3.3-7.3,7.2H97z"></path> <path d="M104.8,159.9h4v5.4h0.1c2-4.1,4.9-6.1,9.4-6v4.5c-6.8,0-9.3,3.9-9.3,10.3v11.4h-4.2V159.9z"></path> <path d="M142.2,183.3c0,8.3-3.8,12.6-11.9,12.6c-4.8,0-10.3-1.9-10.6-7.5h4.2c0.2,3.1,3.9,4.2,6.6,4.2c5.5,0,7.7-4,7.7-9.7v-1.7 h-0.1c-1.4,3.1-4.8,4.7-8,4.7c-7.6,0-11.4-6-11.4-13c0-6,3-13.5,11.8-13.5c3.2,0,6.1,1.4,7.6,4.3h0v-3.7h4V183.3z M138.1,172.1 c0-4.5-2-9.2-7.3-9.2c-5.4,0-7.6,4.4-7.6,9.3c0,4.6,1.7,9.8,7.2,9.8C136,182,138.1,176.9,138.1,172.1z"></path> <path d="M157.6,188.9c-1.9,5-3.7,6.8-7.4,6.8c-1,0-2-0.1-2.9-0.4v-3.9c0.8,0.2,1.6,0.6,2.5,0.6c1.7,0,2.7-0.8,3.5-2.3l1.7-4.4 l-10.1-25.4h4.8l7.5,20.9h0.1l7.2-20.9h4.5L157.6,188.9z"></path> <path d="M34.5,202.1h5.2l13.8,35.3h-5.2l-3.9-10.6H29.5l-4,10.6h-4.9L34.5,202.1z M31,222.8h12l-5.9-16.5H37L31,222.8z"></path> <path d="M76,237.5h-4v-4.1h-0.1c-1.8,3.2-4.7,4.7-8.3,4.7c-6.7,0-8.8-3.9-8.8-9.4v-16.8H59v17.3c0,3.1,2,5.1,5.2,5.1 c5.1,0,7.6-3.4,7.6-8v-14.5H76V237.5z"></path> <path d="M87.1,211.9h5.1v3.7h-5.1v15.9c0,1.9,0.5,2.3,3.2,2.3h1.9v3.7H89c-4.4,0-6.1-0.9-6.1-5.6v-16.3h-4.4v-3.7h4.4v-7.7h4.2 V211.9z"></path> <path d="M95.3,202.1h4.2v13.5h0.1c1.4-3.1,5-4.4,8.1-4.4c6.7,0,8.8,3.9,8.8,9.4v16.8h-4.2v-17.3c0-3.1-2-5.1-5.2-5.1 c-5.1,0-7.6,3.4-7.6,8v14.5h-4.2V202.1z"></path> <path d="M132.7,211.3c8.1,0,12.4,5.9,12.4,13.4c0,7.5-4.3,13.4-12.4,13.4c-8.1,0-12.4-5.9-12.4-13.4 C120.2,217.2,124.5,211.3,132.7,211.3z M132.7,234.3c4.4,0,8-3.5,8-9.7c0-6.2-3.6-9.7-8-9.7c-4.4,0-8,3.5-8,9.7 C124.7,230.9,128.3,234.3,132.7,234.3z"></path> <path d="M148.8,211.9h4v5.4h0.1c2-4.1,4.9-6.1,9.4-6v4.5c-6.8,0-9.3,3.9-9.3,10.3v11.4h-4.2V211.9z"></path> <path d="M168.9,207.3h-4.2v-5.1h4.2V207.3z M164.7,211.9h4.2v25.6h-4.2V211.9z"></path> <path d="M180.1,211.9h5.1v3.7h-5.1v15.9c0,1.9,0.5,2.3,3.2,2.3h1.9v3.7H182c-4.4,0-6.1-0.9-6.1-5.6v-16.3h-4.4v-3.7h4.4v-7.7h4.2 V211.9z"></path> <path d="M199.7,240.9c-1.9,5-3.7,6.8-7.4,6.8c-1,0-2-0.1-2.9-0.4v-3.9c0.8,0.2,1.6,0.6,2.5,0.6c1.7,0,2.7-0.8,3.5-2.3l1.7-4.4 l-10.1-25.4h4.8l7.5,20.9h0.1l7.2-20.9h4.5L199.7,240.9z"></path> </g> <polygon points="68.4,17.9 68.3,17.8 68.3,17.8 "></polygon> <path d="M59,19.2h0.8c-0.2-0.2-0.3-0.2-0.6-0.2C59.2,19,59.1,19.1,59,19.2z"></path> <path d="M61.2,19c-0.1,0-0.1,0-0.2,0C61.1,19,61.1,19,61.2,19z"></path> <path d="M59.4,18.7C59.4,18.8,59.4,18.8,59.4,18.7C59.5,18.8,59.4,18.8,59.4,18.7L59.4,18.7z"></path> <polygon points="65.3,16.9 65.3,16.9 65.3,16.9 "></polygon> <path d="M72.2,19.9c0,0-0.1-1.1-0.9-1.4c-0.7-0.3-1.2-0.3-1.4-0.3c-0.2,0-0.3,0.1-0.4,0.1c-0.2-0.2-0.7-0.4-0.7-0.4l-0.4-0.1 c-0.6-0.1-0.9-0.1-1.1-0.1c-0.4,0.1-0.8,0.1-0.8,0.1c-0.8-0.4-1.9-0.3-2.8,0.2c0,0-0.5-0.3-1.5-0.3c-0.8,0-1.4,0.1-1.7,0.5 c-0.2-0.1-0.4-0.2-0.7-0.2c-0.1,0-0.1,0-0.2,0c-0.5,0-1,0.2-1.4,0.5c-0.2,0.2-0.4,0.3-0.6,0.5c-0.1,0-0.1-0.1-0.2-0.1 c-1.2-0.4-2.6,1.7-0.7,2.7c0.3,0.2,0.8,0,1.1-0.1c0,0,1.4-0.3,1.5-0.4c0.5-0.2,1.7-0.2,2-0.3c-0.1,0.2,2.9-0.1,3.4-0.1 c0.5,0,7.1,0.4,7,0.4C72,21,72.4,20.9,72.2,19.9z M58.1,21.1c-0.2-0.1-0.7-0.4-0.8-0.9c-0.1,0.6,0.7,1.1,0.7,1.1 c-0.4,0.1-0.6,0.1-0.8,0.1c-0.5-0.1-0.8-0.6-0.8-1.1c0-0.8,0.6-1.1,0.9-1.1c0.3,0,0.5,0.1,0.7,0.2c0.6,0.4,0.4,1.4,1.3,1.6 C58.9,21.2,58.4,21.3,58.1,21.1z M63.9,20.3c-0.3,0-0.4,0-0.6-0.1c-0.2-0.1-0.6-0.2-0.7-1.2c-0.3,0.5,0,1.1,0.3,1.4 c-0.7,0.1-1.1,0-1.5-0.5c-0.3-0.4-0.5-0.9-0.5-1.2c0-0.6,0.8-0.6,1.2-0.7c0.6,0,1,0,1.4,0.3c0.3,0.3,0.4,0.4,0.5,1 c0,0.2,0.2,0.6,0.5,0.8C64.3,20.3,64.1,20.3,63.9,20.3z M69.6,20.6c-0.3,0-0.6-0.2-0.8-0.4c-0.3-0.3-0.4-0.5-0.4-1.1 c-0.2,0.6,0,0.8,0.2,1.2c-0.3,0.1-0.4,0.1-0.9-0.1c-0.6-0.2-0.7-0.9-0.9-1.4c0,0-0.2-0.7,0.2-0.9c0.4-0.1,0.7-0.1,0.9-0.1 c0.2,0,0.5,0,0.8,0.1l0,0c0.3,0.1,0.7,0.4,0.8,0.7c0.1,0.3,0.2,0.7,0.2,1.1c0,0.2,0.2,0.6,0.4,0.7C70,20.7,69.7,20.7,69.6,20.6z"></path> <path d="M70.3,25.9c-0.1-0.4-0.2-0.7-0.2-0.7s0,0.2-0.1,0.7c0,0.5-0.7,4.7,0,6.2c0.1,0.3,0.4,0.5,0.7,0.5c0,0-0.7-0.2-0.7-1 c-0.1-0.8-0.1-1.6,0-2.3c0-0.8,0.1-1.5,0.1-1.7c0-0.4,0.2-1.3,0.2-1.3s0.7,1,0.5,0.8c-0.2-0.3,0.7,0.9,0.7,0.9S70.4,26.3,70.3,25.9z "></path> <path d="M65.8,13.7l-1.4-1.1l1.2,0.5l-1-0.8c0,0,0.5,0.2,1,0.5c-0.4-0.4-1-1-1.2-1.2c-0.2-0.2-1.1-0.8-1.2-1.1 c-0.2-0.4-0.3-0.6-0.7-0.6c-0.3,0-0.6,0.3-0.6,0.3h-0.4l0.4,0.3c0,0-0.1,0.7,0.1,1c0.2,0.3,0.9,0.7,0.9,0.7l0.2,0.2l0,0 c0,0,0,0-0.1,0.1c0,0-0.1,0-0.1,0.1c0,0-0.1,0-0.1,0c0,0-0.1,0-0.1,0c0,0,0,0,0,0c0,0,0,0-0.1,0c0,0-0.1,0-0.1,0c0,0,0,0-0.1,0 c0,0,0,0,0,0c0,0,0,0,0,0c0,0,0,0,0,0c0,0,0,0,0,0c0,0,0,0,0,0c0,0,0,0,0,0c0,0,0,0,0,0c0,0,0,0,0,0c0,0,0,0,0,0c0,0,0,0,0,0 c0,0,0,0,0,0c0,0,0,0,0,0h0l0.1,0c0,0-0.1,0-0.1,0c0,0,0,0,0,0c0,0,0,0,0,0.1c0,0,0,0,0,0.1c0,0,0,0,0,0c0,0,0,0,0,0c0,0,0,0,0,0 c0,0,0,0,0,0c0,0,0.1,0,0.1-0.1c0,0,0.1,0,0.1,0c0,0,0,0,0,0c0,0,0,0,0,0c0,0,0,0,0,0c0,0,0,0,0,0c0,0,0,0,0,0c0,0,0,0,0,0 c0,0,0,0,0,0c0,0,0,0,0,0c0,0,0,0,0.1,0.1c0,0,0.1,0,0.1,0c0,0,0,0-0.1,0c0,0,0,0-0.1,0c0,0,0,0-0.1,0c0,0,0,0,0,0.1v0c0,0,0,0,0,0 c0,0,0,0,0,0c0,0,0,0,0,0c0,0,0,0,0,0c0,0,0.1,0,0.1,0c0,0,0.1,0,0.1,0c0,0,0,0,0.1,0c0,0,0,0,0.1,0h0c0,0,0,0.1-0.1,0.1 c0,0-0.1,0-0.1,0.1c0,0,0,0-0.1,0.1c0,0,0,0.1,0,0.1v0c0,0,0,0,0,0c0,0,0,0,0,0c0,0,0,0,0,0c0,0,0-0.1,0-0.1c0,0,0-0.1,0.1-0.1 c0,0,0,0,0.1-0.1c0,0,0,0,0.1-0.1c0,0,0,0,0.1-0.1c0,0,0,0,0-0.1c0,0,0,0,0,0c0,0,0,0,0,0c0,0,0,0,0,0c0,0,0,0,0,0.1 c0,0,0,0,0.1,0.1c0,0,0,0,0.1,0c0,0,0,0,0,0c0,0,0,0,0,0c0,0,0,0,0,0c0,0,0,0,0,0v0c0,0,0,0,0,0c0,0,0,0,0,0c0,0,0,0-0.1,0 c0,0,0,0-0.1,0c0,0,0,0-0.1-0.1c0,0,0-0.1,0-0.1v0c0,0,0,0,0,0c0,0,0,0,0-0.1l0.7,0.3l1.3,1.4l-0.6-1.2L65.8,13.7z M62.4,12.9 C62.4,12.9,62.4,12.9,62.4,12.9C62.4,12.9,62.4,12.9,62.4,12.9C62.4,12.9,62.4,12.9,62.4,12.9C62.4,12.9,62.4,12.9,62.4,12.9 C62.4,12.9,62.4,12.8,62.4,12.9L62.4,12.9L62.4,12.9C62.4,12.9,62.4,12.9,62.4,12.9z M63.1,13c0,0-0.1,0-0.1,0h0l0,0c0,0,0,0,0,0 c0,0,0,0,0,0c0,0,0,0,0,0c0,0,0,0,0-0.1c0,0,0-0.1,0-0.1c0,0,0,0,0-0.1c0,0,0,0,0.1-0.1c0,0,0,0,0,0l0.1,0l0.2,0.2c0,0,0,0,0,0 C63.2,12.9,63.2,12.9,63.1,13z"></path> <path d="M66.4,9.5c0,0.8,0,1.9-0.2,3c-0.4,2.3-1.2,3.7-2.5,4.1c-2.5-0.7-2.7-5-2.7-7.1H66.4 M67.6,8.2h-7.7c0,0-0.9,8.7,3.9,9.6 C68.5,17,67.6,8.2,67.6,8.2L67.6,8.2z"></path> <path d="M76.3,11.5l0-0.4l-5.3,0l4.9-2l-0.1-0.4l-5.2,1l4.4-2.9l-0.2-0.4l-4.9,2l3.7-3.7l-0.3-0.3l-4.4,2.9l2.9-4.4l-0.3-0.3 l-3.7,3.7l2-4.9l-0.4-0.2l-2.9,4.4l1-5.2l-0.4-0.1l-2,4.9l0-5.3l-0.4,0l-1,5.2l-1-5.2l-0.4,0l0,5.3l-2-4.9l-0.4,0.1l1,5.2L58,1.3 l-0.4,0.2l2,4.9l-3.7-3.7l-0.3,0.3l2.9,4.4l-4.4-2.9l-0.3,0.3l3.7,3.7l-4.9-2l-0.2,0.4L57,9.7l-5.2-1l-0.1,0.4l4.9,2l-5.3,0l0,0.4 l5.2,1l-5.2,1l0,0.4l5.3,0l-4.9,2l0.1,0.4l5.2-1l-4.4,2.9l0.2,0.4l4.9-2l-3.7,3.7l0.3,0.3l4.4-2.9l-0.9,1.4c0.1,0,0.2-0.1,0.3,0 c0.1-0.2,0.3-0.3,0.6-0.5l1.6-2.3l-4.4,2.9l3.7-3.7l-4.9,2l4.4-2.9l-5.2,1l4.9-2l-5.3,0l5.2-1l-5.2-1l5.3,0l-4.9-2l5.2,1l-4.4-2.9 l4.9,2l-3.7-3.7L60,8.8c0,0,0,0,0,0l-2.9-4.3l3.7,3.7l-2-4.9l2.9,4.4l-1-5.2l2,4.9l0-5.3l1,5.2l1-5.2l0,5.3l2-4.9l-1,5.2l2.9-4.4 l-2,4.9l3.7-3.7l-2.9,4.4l4.4-2.9l-3.7,3.7l4.9-2l-4.4,2.9l5.2-1l-4.9,2l5.3,0l-5.2,1l5.2,1l-5.3,0l4.9,2l-5.2-1l4.4,2.9l-4.9-2 l3.7,3.7l-1.4-0.9l-3-2l1.1,1.7l0.1,0.1c0,0,0.2,0.1,0.5,0.3l0.7,0.6l-0.9-1.2l0.9,0.6l3.5,2.4l0.3-0.3l-3.7-3.7l4.9,2l0.2-0.4 l-4.4-2.9l5.2,1l0.1-0.4l-4.9-2l5.3,0l0-0.4l-5.2-1L76.3,11.5z"></path> <g> <g> <g> <g> <path d="M64.1,76.1c-1.5,0-2.4-0.1-6.4-1.7c-3.8-1.6-6.4-0.9-8.2-0.4c-0.2,0.1-0.4,0.1-0.6,0.2c-0.4,0.1-0.9,0.3-1.4,0.4 c-2.4,0.7-5.7,1.8-6.5-0.2c-0.1-0.3-0.1-0.7,0-1c0.4-0.9,1.6-1.4,1.8-1.5c0.8-0.3,2.4-0.7,2.9,0.1c0.1,0.2,0.2,0.4,0.1,0.6 c-0.1,0.4-0.6,0.9-1.6,1.3l-0.1-0.2c0.9-0.5,1.4-0.9,1.5-1.2c0-0.2,0-0.3-0.1-0.5c-0.4-0.7-1.8-0.4-2.7-0.1 c-0.2,0.1-1.4,0.6-1.7,1.4c-0.1,0.3-0.1,0.6,0,0.9c0.8,1.9,3.9,0.9,6.3,0.1c0.5-0.2,1-0.3,1.4-0.4c0.2-0.1,0.4-0.1,0.6-0.2 c1.9-0.5,4.5-1.2,8.4,0.4c4.1,1.7,4.9,1.7,6.6,1.7h0.2v0.2h-0.2C64.2,76.1,64.1,76.1,64.1,76.1z"></path> <path d="M64.1,76.2c-1.6,0-2.5-0.1-6.5-1.7c-1.6-0.6-3.1-1-4.5-1c-1.5,0-2.7,0.3-3.7,0.6l0,0c-0.2,0.1-0.4,0.1-0.6,0.2 c-0.4,0.1-0.9,0.2-1.4,0.4c-1.3,0.4-3,0.9-4.3,0.9c-1.2,0-1.9-0.4-2.3-1.2c-0.2-0.4-0.1-0.7,0-1.1c0.4-0.9,1.6-1.4,1.9-1.5 c0.4-0.2,1.1-0.4,1.8-0.4c0.6,0,1,0.2,1.3,0.5c0.1,0.2,0.2,0.5,0.1,0.7c-0.1,0.5-0.6,0.9-1.6,1.4l-0.1,0L44,73.8l0.1,0 c0.8-0.4,1.3-0.8,1.4-1.2c0-0.1,0-0.3-0.1-0.4c-0.2-0.3-0.6-0.4-1-0.4c-0.5,0-1.1,0.1-1.6,0.3c-0.2,0.1-1.3,0.6-1.7,1.3 c-0.1,0.3-0.1,0.5,0,0.8c0.3,0.7,0.9,1,1.9,1c1.3,0,2.9-0.5,4.2-0.9l0,0c0.5-0.2,1-0.3,1.4-0.4c0.2,0,0.4-0.1,0.6-0.2 c1-0.3,2.2-0.6,3.8-0.6c1.5,0,3,0.3,4.7,1c3.9,1.6,4.8,1.7,6.3,1.7l0.5,0v0.4L64.1,76.2z M53.1,73.4c1.5,0,3,0.3,4.6,1 c4,1.6,4.9,1.7,6.4,1.7l0.3,0h-0.3c-1.5,0-2.4-0.1-6.4-1.7C56.1,73.7,54.6,73.4,53.1,73.4c-1.5,0-2.7,0.3-3.7,0.6 c-0.2,0.1-0.4,0.1-0.6,0.2c-0.4,0.1-0.9,0.2-1.4,0.4l0,0c-1.3,0.4-3,0.9-4.3,0.9c-1.1,0-1.8-0.4-2.1-1.1c-0.1-0.3-0.1-0.6,0-1 c0.4-0.8,1.5-1.3,1.8-1.4c0.6-0.2,1.2-0.4,1.7-0.4c0.5,0,0.9,0.2,1.1,0.5c0.1,0.2,0.1,0.4,0.1,0.6c-0.1,0.4-0.6,0.8-1.4,1.2l0,0 c0.9-0.5,1.3-0.9,1.4-1.2c0.1-0.2,0-0.4-0.1-0.6c-0.2-0.3-0.6-0.5-1.1-0.5c-0.6,0-1.3,0.2-1.7,0.4c-0.2,0.1-1.4,0.6-1.8,1.4 c-0.1,0.3-0.1,0.6,0,1c0.3,0.8,1,1.1,2.1,1.1c1.3,0,2.9-0.5,4.3-0.9c0.5-0.2,1-0.3,1.4-0.4c0.2,0,0.4-0.1,0.6-0.2l0,0 C50.4,73.7,51.6,73.4,53.1,73.4z"></path> </g> <g> <path d="M64.2,80.6c-2.2,0-4.2-0.2-6.6-1.2c-1.7-0.7-3.6-1.2-5.1-1.2c-1.6,0-3,0.3-4,0.6c-0.4,0.1-1.9,0.6-3.1,0.9 c-1.3,0.3-1.9,0-2.7-1.2c-0.1-0.1-0.1-0.2-0.2-0.3c-0.7-1.2-2-3.2-1.7-4.4l0.2,0c-0.3,1.1,1,3.1,1.7,4.3 c0.1,0.1,0.1,0.2,0.2,0.3c0.7,1.2,1.2,1.5,2.5,1.2c1.2-0.3,2.7-0.7,3.1-0.9c1-0.3,2.4-0.6,4-0.6c1.5,0,3.4,0.5,5.1,1.2 c2.5,1,4.6,1.2,6.9,1.2l0,0.2C64.4,80.6,64.3,80.6,64.2,80.6z"></path> <path d="M64.2,80.7c-1.9,0-4-0.1-6.6-1.2c-1.7-0.7-3.6-1.2-5-1.2c-1.6-0.1-3,0.3-3.9,0.6c-0.3,0.1-1.9,0.6-3.1,0.9 c-0.3,0.1-0.6,0.1-0.8,0.1c-0.8,0-1.3-0.4-1.9-1.4c-0.1-0.1-0.1-0.2-0.2-0.3l0-0.1c-0.8-1.2-2-3.3-1.7-4.5l0-0.1l0.4,0.1l0,0.1 c-0.2,1.1,1,3.1,1.7,4.2l0,0c0.1,0.1,0.1,0.2,0.2,0.3c0.6,0.9,1,1.2,1.6,1.2c0.2,0,0.5,0,0.8-0.1c1.2-0.3,2.7-0.7,3.1-0.9 c0.9-0.3,2.4-0.7,4.1-0.6c1.5,0,3.4,0.5,5.2,1.2c2.6,1.1,4.7,1.2,6.5,1.2c0.1,0,0.2,0,0.3,0h0.1l0,0.4l-0.1,0 C64.4,80.7,64.3,80.7,64.2,80.7z M52.2,78c0.1,0,0.2,0,0.3,0c1.5,0,3.4,0.5,5.1,1.2c2.6,1.1,4.7,1.2,6.6,1.2c0.1,0,0.2,0,0.2,0 v0c-0.1,0-0.2,0-0.2,0c-1.9,0-4-0.1-6.6-1.2c-1.7-0.7-3.6-1.2-5.1-1.2c-1.6-0.1-3.1,0.3-4,0.6c-0.4,0.1-1.9,0.6-3.1,0.9 c-0.3,0.1-0.6,0.1-0.8,0.1c-0.7,0-1.2-0.3-1.8-1.3c-0.1-0.1-0.1-0.2-0.2-0.3l0,0c-0.7-1.2-1.9-3.1-1.7-4.3l0,0 c-0.2,1.2,1,3.1,1.7,4.3l0,0.1c0.1,0.1,0.1,0.2,0.2,0.3c0.6,1,1.1,1.3,1.8,1.3c0.2,0,0.5,0,0.8-0.1c1.2-0.3,2.8-0.8,3.1-0.9 C49.3,78.4,50.7,78,52.2,78z"></path> </g> <g> <path d="M44.8,75.3l-0.2,0c0-0.1-0.2-0.8-0.5-1.3l0.2-0.1C44.4,74.3,44.8,75.2,44.8,75.3z"></path> <path d="M44.9,75.4l-0.3,0l0-0.1c0-0.1-0.2-0.6-0.5-1.3l0-0.1l0.3-0.1l0,0.1C44.7,74.7,44.9,75.2,44.9,75.4L44.9,75.4z M44.7,75.2L44.7,75.2c0-0.2-0.2-0.5-0.4-1.2l0,0C44.3,74.2,44.6,74.9,44.7,75.2z"></path> </g> <g> <path d="M46.5,74.9c-0.4-0.3-0.9-2.4-1-2.6l0.2,0c0.2,0.9,0.7,2.3,0.9,2.5L46.5,74.9z"></path> <path d="M46.5,75L46.5,75c-0.4-0.3-0.9-2.2-1.1-2.7l0-0.1l0.3-0.1l0,0.1c0.3,1.1,0.7,2.3,0.9,2.5l0.1,0.1L46.5,75z M45.6,72.3 c0.3,1,0.6,2.1,0.9,2.4l0,0C46.2,74.3,45.7,72.7,45.6,72.3L45.6,72.3z"></path> </g> </g> <g> <g> <path d="M64.9,76.1c-0.1,0-0.1,0-0.2,0h-0.2V76h0.2c1.6,0,2.4,0,6.6-1.7c3.9-1.6,6.5-0.9,8.4-0.4c0.2,0.1,0.4,0.1,0.6,0.2 c0.4,0.1,0.9,0.3,1.4,0.4c2.3,0.7,5.5,1.7,6.3-0.1c0.1-0.3,0.1-0.6,0-0.9c-0.3-0.8-1.5-1.3-1.7-1.4c-0.9-0.3-2.3-0.6-2.7,0.1 c-0.1,0.2-0.1,0.3-0.1,0.5c0.1,0.4,0.6,0.8,1.5,1.2L84.8,74c-0.9-0.5-1.4-0.9-1.5-1.3c-0.1-0.2,0-0.4,0.1-0.6 c0.5-0.8,2.1-0.5,2.9-0.1c0.2,0.1,1.4,0.6,1.8,1.5c0.1,0.3,0.1,0.7,0,1c-0.8,2-4.1,1-6.5,0.2c-0.5-0.2-1-0.3-1.4-0.4 c-0.2-0.1-0.4-0.1-0.6-0.2c-1.9-0.5-4.4-1.2-8.2,0.4C67.4,76.1,66.4,76.1,64.9,76.1z"></path> <path d="M64.9,76.2l-0.5,0v-0.4l0.5,0c1.5,0,2.4-0.1,6.3-1.7c1.6-0.7,3.2-1,4.7-1c1.5,0,2.8,0.3,3.7,0.6 c0.2,0.1,0.4,0.1,0.6,0.2c0.4,0.1,0.9,0.2,1.4,0.4l0,0c1.3,0.4,2.9,0.9,4.2,0.9c1,0,1.7-0.3,1.9-1c0.1-0.3,0.1-0.6,0-0.8 c-0.3-0.8-1.4-1.2-1.7-1.3c-0.5-0.2-1.1-0.3-1.6-0.3c-0.3,0-0.8,0.1-1,0.4c-0.1,0.1-0.1,0.3-0.1,0.4c0.1,0.3,0.6,0.7,1.4,1.2 l0.1,0l-0.2,0.3l-0.1,0c-1-0.5-1.5-0.9-1.6-1.4c-0.1-0.2,0-0.5,0.1-0.7c0.2-0.4,0.7-0.5,1.3-0.5c0.6,0,1.3,0.2,1.8,0.4 c0.2,0.1,1.5,0.6,1.9,1.5c0.2,0.4,0.2,0.7,0,1.1c-0.3,0.8-1.1,1.2-2.3,1.2c-1.3,0-3-0.5-4.3-0.9c-0.5-0.2-1-0.3-1.4-0.4 c-0.2,0-0.4-0.1-0.6-0.2l0,0c-1-0.3-2.2-0.6-3.7-0.6c-1.5,0-3,0.3-4.5,1C67.4,76.2,66.5,76.2,64.9,76.2z M64.6,76.1h0.3 c1.5,0,2.4-0.1,6.4-1.7c1.6-0.7,3.1-1,4.6-1c1.5,0,2.7,0.3,3.7,0.6l0,0c0.2,0.1,0.4,0.1,0.6,0.2c0.4,0.1,0.9,0.3,1.4,0.4 c1.3,0.4,3,0.9,4.3,0.9c1.1,0,1.8-0.4,2.1-1.1c0.1-0.3,0.1-0.6,0-1c-0.4-0.8-1.5-1.3-1.8-1.4c-0.4-0.2-1.1-0.4-1.7-0.4 c-0.6,0-0.9,0.2-1.1,0.5c-0.1,0.2-0.1,0.4-0.1,0.6c0.1,0.4,0.6,0.8,1.4,1.2l0,0c-0.9-0.4-1.3-0.9-1.4-1.2 c-0.1-0.2,0-0.4,0.1-0.6c0.2-0.3,0.6-0.5,1.1-0.5c0.5,0,1.1,0.1,1.7,0.4c0.2,0.1,1.4,0.6,1.8,1.4c0.1,0.3,0.1,0.6,0,1 c-0.3,0.7-1,1.1-2.1,1.1c-1.3,0-2.9-0.5-4.3-0.9l0,0c-0.5-0.2-1-0.3-1.4-0.4c-0.2-0.1-0.4-0.1-0.6-0.2c-1-0.3-2.2-0.6-3.7-0.6 c-1.5,0-3,0.3-4.6,1c-4,1.6-4.9,1.7-6.4,1.7L64.6,76.1L64.6,76.1z"></path> </g> <g> <path d="M64.8,80.6c-0.1,0-0.2,0-0.3,0l0-0.2c2.3,0,4.3-0.2,6.9-1.2c1.7-0.7,3.7-1.2,5.1-1.2c1.6,0,3.1,0.3,4,0.6 c0.4,0.1,1.9,0.6,3.1,0.9c1.2,0.3,1.7,0,2.5-1.2c0.1-0.1,0.1-0.2,0.2-0.3c0.7-1.2,2-3.2,1.7-4.3l0.2,0c0.3,1.2-1,3.2-1.7,4.4 c-0.1,0.1-0.1,0.2-0.2,0.3c-0.8,1.3-1.4,1.5-2.7,1.2c-1.2-0.3-2.7-0.7-3.1-0.9c-0.9-0.3-2.4-0.6-4-0.6c-1.5,0-3.3,0.5-5.1,1.2 C69,80.3,67,80.6,64.8,80.6z"></path> <path d="M64.8,80.7c-0.1,0-0.2,0-0.3,0l-0.1,0l0-0.4h0.1c0.1,0,0.2,0,0.3,0c1.8,0,3.9-0.1,6.5-1.2c1.8-0.7,3.7-1.2,5.2-1.2 c1.6,0,3.1,0.3,4.1,0.6c0.4,0.1,1.9,0.6,3.1,0.9c0.3,0.1,0.5,0.1,0.8,0.1c0.6,0,1-0.3,1.6-1.2c0.1-0.1,0.1-0.2,0.2-0.3 c0.7-1.2,1.9-3.1,1.7-4.2l0-0.1l0.4-0.1l0,0.1c0.3,1.3-1,3.3-1.7,4.5l0,0.1c-0.1,0.1-0.1,0.2-0.2,0.3c-0.6,1-1.1,1.4-1.9,1.4 c-0.2,0-0.5,0-0.8-0.1c-1.2-0.3-2.8-0.8-3.1-0.9c-0.9-0.3-2.4-0.6-3.9-0.6c-1.4,0-3.3,0.5-5,1.2C68.8,80.5,66.7,80.7,64.8,80.7z M64.6,80.5c0.1,0,0.2,0,0.2,0c1.9,0,4-0.1,6.6-1.2c1.7-0.7,3.6-1.2,5.1-1.2c1.6-0.1,3.1,0.3,4,0.6c0.3,0.1,1.9,0.6,3.1,0.9 c0.4,0.1,0.7,0.1,1,0.1c-0.3,0-0.6,0-1-0.1c-1.2-0.3-2.7-0.7-3.1-0.9c-0.9-0.3-2.4-0.6-4-0.6c-1.5,0-3.4,0.5-5.1,1.2 c-2.6,1.1-4.7,1.2-6.6,1.2C64.7,80.5,64.7,80.5,64.6,80.5L64.6,80.5z M88.1,73.7c0.2,1.2-1,3.1-1.7,4.3 c-0.1,0.1-0.1,0.2-0.2,0.3c-0.4,0.7-0.8,1-1.2,1.2c0.4-0.2,0.8-0.5,1.2-1.2c0-0.1,0.1-0.2,0.2-0.3l0-0.1 C87.1,76.8,88.3,74.9,88.1,73.7L88.1,73.7z"></path> </g> <g> <path d="M84.2,75.3c0-0.2,0.3-1.1,0.5-1.4l0.2,0.1c-0.2,0.6-0.5,1.3-0.5,1.3L84.2,75.3z"></path> <path d="M84.1,75.4L84.1,75.4c0-0.2,0.1-0.7,0.5-1.6l0-0.1l0.3,0.1l0,0.1c-0.3,0.7-0.5,1.2-0.5,1.3l0,0.1l-0.1,0L84.1,75.4z M84.7,74c-0.3,0.7-0.4,1.1-0.4,1.2h0C84.4,74.9,84.7,74.2,84.7,74L84.7,74z"></path> </g> <g> <path d="M82.5,74.9l-0.1-0.1c0.2-0.2,0.7-1.6,0.9-2.5l0.2,0C83.4,72.5,82.9,74.6,82.5,74.9z"></path> <path d="M82.5,75l-0.2-0.3l0.1-0.1c0.2-0.1,0.6-1.4,0.9-2.5l0-0.1l0.3,0.1l0,0.1C83.4,72.8,82.9,74.6,82.5,75L82.5,75z M82.5,74.7L82.5,74.7c0.2-0.3,0.6-1.4,0.9-2.4l0,0C83.3,72.7,82.8,74.3,82.5,74.7z"></path> </g> </g> </g> <g> <g> <path d="M80.2,74.2c-2-0.5-4.6-1.5-8.9,0.2c-4.3,1.8-5,1.7-6.8,1.7c-1.8,0-2.5,0.1-6.8-1.7c-4.3-1.8-7-0.7-8.9-0.2 c-2.2,0.5-6.9,2.6-7.8,0.2c0.2,1.3,1.4,3,1.9,3.9c0.7,1.2,1.3,1.5,2.6,1.2c1-0.2,2.3-0.6,3.1-0.9c1-0.3,2.5-0.6,4-0.6 c1.3,0,3.1,0.4,5.1,1.2c2.5,1,4.5,1.3,6.9,1.2c2.4,0,4.4-0.2,6.9-1.2c2-0.8,3.8-1.2,5.1-1.2c1.5,0,3,0.3,4,0.6 c0.8,0.3,2.1,0.6,3.1,0.9c1.3,0.3,1.8,0,2.6-1.2c0.6-0.9,1.7-2.6,1.9-3.9C87.1,76.8,82.4,74.7,80.2,74.2z"></path> </g> </g> </g> <path d="M54.5,37.5c0-0.1-0.1-0.1-0.1-0.1c-0.4-0.4-0.9-0.8-1.4-1.1c-0.1,0-0.1-0.1-0.2-0.1c-0.3-0.2-0.7-0.5-1.1-0.6 c-0.1,0-0.2-0.1-0.2-0.1c-0.3-0.3-0.7-0.5-1.1-0.6c-0.1,0-0.1,0-0.2-0.1c-0.6,0-1.2,0-1.8-0.1c-0.1,0-0.3,0-0.4,0 c-0.4,0-0.7,0-1.1,0c-0.8,0-1.5,0.3-1.9,1.1c-0.2,0.5-0.5,1-0.7,1.5c-0.3,0.6-0.6,1.3-0.9,1.9c-0.3,0.6-0.6,1.2-0.9,1.8 c0,0,0,0.1-0.1,0.1c-0.1,0-0.1,0.1-0.2,0.1c-0.1,0-0.1-0.1-0.2-0.1c0-0.1,0-0.1-0.1-0.2c-0.2-0.3-0.3-0.6-0.5-0.9 c-0.1-0.2-0.3-0.4-0.5-0.6c-1-1.2-2-2.4-3.1-3.5c-0.4-0.4-0.9-0.8-1.4-1.2c-0.2-0.1-0.4-0.3-0.5-0.5c-0.2-0.2-0.1-0.4,0.1-0.5 c0.3-0.2,0.7-0.4,1.1-0.6c0.6-0.3,1.2-0.4,1.8-0.3c0.7,0.1,1.3-0.1,1.8-0.6c0.2-0.2,0.4-0.3,0.5-0.5c0.1-0.1,0.1-0.2,0.1-0.2 c0,0-0.1-0.1-0.2-0.1C41,31.4,41,31.3,41,31.1c0.1-0.2,0.2-0.5,0.3-0.7c0.1-0.3,0.1-0.5-0.2-0.6c-0.2-0.1-0.5-0.2-0.8-0.3 c-0.3-0.1-0.6-0.1-0.9,0.1c-0.2,0.1-0.5,0.1-0.7,0c-0.6-0.1-1.2-0.2-1.8-0.3c-0.3,0-0.5-0.1-0.7-0.3c-0.4-0.3-0.9-0.5-1.4-0.4 c-0.1,0-0.2,0-0.4,0c-0.1,0-0.2,0-0.4,0c-0.2,0-0.3-0.1-0.2-0.3c0.3-0.8,0.1-1.6,0-2.3c0-0.1-0.2-0.5-0.2-0.6 c-0.3,0.4-0.7,1.4-0.8,2.1c-0.1,0.4,0,0.7,0,1.1c0,0.1,0,0.2,0,0.3c0,0.1-0.1,0.1-0.2,0.1c-0.1,0-0.1,0-0.2-0.1c0-0.1,0-0.1,0-0.2 c0-0.6-0.1-1.1-0.4-1.6c-0.3-0.5-0.3-0.5-0.6-0.9c-0.1-0.1-0.3-0.3-0.3-0.5c-0.1,0.4-0.2,1-0.2,1.4c-0.1,0.8,0,1.5,0.2,2.2 c0.1,0.5,0.1,1,0,1.4c-0.4,0.9-0.5,1.9-0.5,2.8c0,0.7,0.1,1.3,0.2,2c0.2,1.2,0.7,2.2,1.4,3.2c0.3,0.3,0.5,0.7,0.6,1.1 c0.2,0.4,0.4,0.9,0.6,1.4c0.3,0.7,0.6,2.2,0.6,2.9c0.1,0.9,0.1,1.7-0.1,2.6c-0.3,1.4-0.7,2.9-1.2,4.3c-0.4,1.2-0.7,2.4-0.8,3.7 c0,0.4-0.1,0.8-0.2,1.2c-0.2,0.9-0.8,1.4-1.7,1.7c-0.2,0-0.4,0.1-0.6,0.1c-0.5,0.1-0.9,0-1.2-0.3c-0.4-0.3-0.8-0.5-1.2-0.8 c-1.5-1.1-3.4-0.6-4.6,0.7c-0.5,0.5-0.8,1.2-0.9,1.8c0,0.1,0,0.2-0.1,0.3c-0.1,0.7-0.1,1,0,1.9c0.1,0.6,0.3,1.1,0.5,1.7 c0.3,0.6,0.6,1.3,0.8,1.9c0.3,1,0.4,2,0.3,3c-0.1,0.4,0,0.9,0.1,1.3c0.1,0.4,0.7,0.9,1.1,1.1c-0.3-0.3-0.4-0.4-0.4-0.5 c-0.1-0.3-0.1-0.5,0.1-0.7c0.1-0.1,0.2-0.2,0.3-0.4c0.3-0.4,0.5-0.8,0.7-1.2c0.2-0.4,0.3-0.8,0.2-1.2c0-0.2,0-0.3,0-0.5 c0-0.1,0-0.2,0.2-0.2c0.1,0,0.1,0.1,0.1,0.2c0,0.6,0,1.1-0.3,1.6c-0.1,0.1-0.1,0.2-0.2,0.4c-0.1,0.2-0.2,0.4,0,0.6 c0.2,0.2,0.4,0.2,0.6,0c0,0-0.9,0,0.4-1.4c0.4-0.4,0.6-0.8,0.6-1.3c0.1-0.5,0-1.1-0.2-1.5c-0.1-0.2-0.2-0.4-0.3-0.7 c-0.1-0.3-0.1-0.4,0.2-0.5c0.3-0.1,0.5-0.3,0.7-0.6c0,0,0-0.1,0.1-0.2c-0.3,0.3-0.6,0.3-0.8,0.2c-0.2-0.1-0.4-0.2-0.5-0.7 c-0.1-0.3,0.2-0.9,0.5-1.1c0.2-0.1,0.5-0.2,0.7-0.3c0.4-0.1,0.8-0.1,1.2-0.2c0.4-0.1,0.8-0.1,1.2-0.2c0.4-0.1,0.8-0.3,1.1-0.5 c0.1-0.1,0.2-0.1,0.4-0.3c0,0.1-0.2,1.4-0.2,2c0,0.8,0.1,1.5,0.1,2.3c0,0.9-0.1,1.7-0.3,2.5c-0.1,0.4-0.3,0.8-0.6,1.2 c-0.3,0.5-0.7,0.9-1.1,1.3c-0.4,0.3-0.5,0.6-0.4,1c0.4,1.3,0.7,2.7,0.9,4.1c0,0.1,0,0.1,0,0.2c0,0.1,0,0.1,0,0.2 c0.1,0.3,0.3,0.5,0.4,0.5c0.4-0.1,0.6-0.1,0.7,0.1c0,0-0.1,0-0.1,0c-0.2,0-0.2,0-0.2,0.1c0,0,0,0.1,0,0.2c-0.1,0.2-0.1,0.5,0,0.7 c0,0.1,0.3,0.6,0.4,0.8c0.1,0.1,0.1,0.2,0.2,0.3c0.4,0.4,0.8,0.7,1.4,0.9c0,0,0,0,0,0c0.3,0.1,1,0.1,1-0.1c0-0.1,0-0.2-0.1-0.3 c0-0.2-0.1-0.3-0.1-0.4c0,0,0,0,0-0.1c-0.1-0.3-0.1-0.5-0.2-0.8c-0.1-0.4-0.2-0.7-0.4-1c-0.1-0.1-0.2-0.3-0.3-0.4c0,0,0,0,0,0 c-0.1-0.1-0.2-0.2-0.2-0.3c0-0.1,0-0.5,0-0.6c0-0.1-0.1-0.3-0.1-0.3c0,0-0.1-0.1-0.2-0.1c0,0-0.1,0-0.1-0.1 c-0.1-0.1-0.2-0.1-0.2-0.3c-0.3-0.7-0.4-1.4-0.3-2.2c0.1-0.6,0.4-1.2,0.8-1.6c0.2-0.2,0.4-0.4,0.6-0.5c1-0.7,1.9-1.5,2.8-2.3 c0.4-0.3,0.7-0.7,0.9-1.1c0.4-0.7,0.5-1.5,0.5-2.3c0-0.3,0-0.6,0.1-0.8c0.1-0.2,0.2-0.2,0.4-0.1c0.3,0.2,0.5,0.4,0.8,0.5 c0.5,0.3,0.8,0.8,1,1.2c0.2,0.4,0.3,0.8,0.4,1.3c0.2,0.7,0.3,1.5,0,2.3c-0.1,0.4,0,0.7,0.4,0.9c0.2,0.1,0.3,0.1,0.5,0.2 c0.9,0.3,1.8,0.4,2.6,0.9c0.1,0,1,0.6,1.3,1.1c0,0,0,0,0,0c0.2,0.2,0.6,0,0.9-0.1c0.2-0.1,0.3,0,0.2,0.2c0,0.1-0.1,0.4-0.1,0.4 c0,0.1,0.1,0.2,0.2,0.3c0.1,0.1,0.2,0.2,0.3,0.3c0,0,0,0,0,0c0.1,0.1,0.5,0.4,0.6,0.5c0.1,0.1,0.2,0.1,0.3,0.2 c0.1,0,0.1,0.1,0.2,0.1c0.4,0.2,0.8,0.2,1.3,0.2c0.3,0,0.8-0.2,0.9-0.5c0-0.1-0.2-0.4-0.3-0.5c-0.1-0.2-0.2-0.3-0.4-0.5 c0,0-0.1-0.1-0.1-0.2c-0.1-0.2-0.3-0.4-0.4-0.5c0,0-0.3-0.3-0.3-0.3c-0.3-0.2-0.5-0.5-0.7-0.8c-0.1-0.1-0.1-0.2-0.1-0.3c0,0,0,0,0,0 c-0.1-0.5-0.5-0.8-1-0.9c-0.1,0-0.2,0-0.3-0.1c-0.6-0.2-1.2-0.5-1.7-0.7c-0.2-0.1-0.4-0.2-0.6-0.3c-0.5-0.4-0.8-0.9-0.8-1.5 c0-0.8,0-1.6,0.1-2.4c0.1-1,0.3-1.9,0.2-2.9c0-0.5-0.1-1-0.2-1.5c-0.1-0.6-0.3-1.1-0.7-1.6c-0.3-0.4-0.6-0.8-1-1 c-0.6-0.3-1.2-0.6-1.9-0.7c-0.2,0-0.4-0.1-0.6-0.1c-0.3-0.1-0.3-0.2-0.2-0.4c0-0.1,0.1-0.1,0.1-0.1c0.9-0.7,1.6-1.6,2.1-2.6 c0.2-0.4,0.4-0.8,0.6-1.3c0.1-0.2,0.1-0.2,0.4-0.2c0.1,0,0.1,0,0.2,0c0.5,0.1,1,0.3,1.4,0.4c0.5,0.1,0.9,0.3,1.4,0.4 c0.4,0.1,0.9,0.2,1.3,0.4c0.3,0.1,0.5,0.3,0.8,0.5c0.2,0.3,0.5,0.5,0.7,0.7c0.6,0.6,1,1,1.2,1.9c0,0.1,0,0.2,0.1,0.3 c0,0.1,0,0.2,0,0.2c0.1,0.2,0.1,0.3,0.2,0.4c0,0,0.1,0.1,0.2,0c0.2,0,0.4,0,0.5,0.1c0,0.1-0.2,0.1-0.2,0.2c0,0,0,0,0,0c0,0,0,0,0,0 c-0.1,0.1-0.1,0.3-0.1,0.5c0.2,0.4,0.3,0.8,0.5,1.1c0.1,0.2,0.2,0.3,0.3,0.4c0.3,0.3,0.6,0.5,1,0.6c0.1,0,0.1,0,0.2,0c0,0,0,0,0,0 c0,0,0,0,0,0c0.2,0,0.2-0.1,0.2-0.2c0-0.4-0.1-0.7-0.1-0.9c0-0.2-0.1-0.5-0.2-0.7c-0.1-0.3-0.2-0.6-0.3-0.8c0-0.1-0.1-0.2-0.1-0.2 c0,0,0,0,0,0c-0.1-0.1-0.1-0.2-0.1-0.2c0-0.1-0.1-0.3-0.1-0.4c-0.1-0.2-0.2-0.4-0.4-0.6c0,0,0,0,0,0c0-0.1-0.1-0.1-0.1-0.2 c-0.3-0.6-0.6-1.2-0.7-1.9c-0.1-0.4-0.2-0.8-0.4-1.2c-0.1-0.3-0.3-0.6-0.6-0.8c-0.5-0.3-1-0.7-1.4-1.1c-0.6-0.5-1.2-1-1.8-1.5 c-0.5-0.4-1-0.8-1.6-1.1c-0.1,0-0.2-0.1-0.3-0.2c0.1-0.2,0.2-0.4,0.3-0.6c0.2-0.3,0.4-0.5,0.7-0.5c0.6-0.1,0.9-0.4,1.1-0.9 c0.1-0.4,0.3-0.9,0.4-1.3c0.3-1.1,0.5-2.1,0.7-3.2c0.1-0.7,0.3-1.3,0.7-1.9c0.3-0.5,0.7-0.8,1.3-0.9c0.6-0.2,1.1-0.1,1.7,0.1 c0.1,0,0.1,0,0.2,0.1c0.2,0.1,0.4,0.1,0.6,0.2c0,0,0.1,0,0.1,0c0,0,0,0,0-0.1c0.1-0.1,0.3-0.3,0.5-0.2c0,0.1-0.1,0.2-0.1,0.3 c0,0,0,0,0,0c0,0.2,0.1,0.4,0.3,0.4c0.4,0.2,0.8,0.4,1.2,0.6c0.6,0.2,1.3,0.3,1.9-0.1c0.1,0,0.1-0.1,0.2-0.1 C54.6,37.8,54.7,37.7,54.5,37.5z M34,31.3c-0.3-0.1-0.9-0.4-0.8-0.7c0.1-0.4,0.2-0.4,0.7-0.6c0.1,0,0.3,0.1,0.4,0.1 c0,0,0.1,0.1,0.1,0.2c-0.2-0.1-0.6,0-0.6,0.2c-0.1,0.2,0,0.3,0.2,0.5c0.4,0.1,0.8-0.1,0.9-0.2l0.1-0.2c0.1,0,0.2,0.1,0.3,0.2 C34.9,30.8,34.5,31.3,34,31.3z"></path> <path d="M107.5,55.9c-0.4-0.8-1-1.3-1.9-1.6c-0.6-0.2-1.3-0.1-1.9,0c-0.8,0.1-1.6,0.4-2.3,0.9c-0.6,0.4-1.3,0.6-2.1,0.4 c-0.4-0.1-0.5-0.3-0.6-0.5c-0.3-0.3-0.5-0.6-0.7-1c-0.6-0.9-0.8-1.7-1.1-2.7c-0.2-0.7-0.4-1.5-0.6-2.2c0-0.1-0.7-2.8-0.8-3.2 c0-0.5-0.2-1-0.2-1.5c-0.1-1,0-2,0.1-3.1c0.1-1,0.4-2,1.1-2.8c0.1-0.1,0.8-1.3,1-1.8c0.7-1.6,1-3.3,0.9-5.1c0-0.4-0.1-0.8-0.2-1.2 c-0.1-0.2-0.2-0.8-0.2-0.9c-0.2-0.5-0.2-1.1-0.1-1.6c0.2-0.7,0.3-1.5,0.2-2.2c0-0.4-0.1-1-0.2-1.4c0,0.3-0.2,0.4-0.4,0.6 c-0.3,0.4-0.4,0.5-0.6,1c-0.3,0.5-0.4,1-0.4,1.6c0,0.1,0,0.1,0,0.2c-0.1,0.1-0.1,0.1-0.2,0.1c-0.1,0-0.2-0.1-0.2-0.1 c0-0.1,0-0.2,0-0.3c0.1-0.4,0.1-0.7,0-1.1c-0.1-0.7-0.5-1.7-0.8-2.1c0,0.1-0.1,0.5-0.2,0.6c-0.2,0.8-0.3,1.5-0.1,2.3 c0.1,0.2,0,0.3-0.2,0.3c-0.1,0-0.2,0-0.4,0.1c-0.6,0.1-1.1,0.2-1.6,0.5c-0.4,0.3-0.8,0.4-1.2,0.4c-0.6,0.1-1.2,0.2-1.8,0.4 c-0.3,0.1-0.6,0.2-0.9,0.1c-0.1,0-0.2,0-0.3,0c-0.5,0.1-1,0.4-1.4,0.8c-0.1,0.1-0.1,0.2-0.1,0.3c0.1,0.3,0.2,0.5,0.4,0.7 c0.1,0.1,0.2,0.2,0.2,0.4c0,0.1-0.1,0.1-0.1,0.1c-0.1,0-0.3,0-0.6,0c0,0.1,0.3,0.1,0.5,0.2c0,0,0.3,0,0.3,0c0.1,0.1,0,0.3,0.1,0.4 c0.2,0.2,0.6,0.3,1,0.3c0.3,0,0.6,0,0.9,0c0.6-0.1,1.2-0.1,1.7,0c0.5,0.1,0.9,0.3,1,0.8c0.1,0.5,0,0.9-0.2,1.3 c-0.5,0.8-1.2,1.5-1.9,2.1C90,37,88.4,38.6,88,39c-0.4,0.3-0.7,0.6-1,1c-0.1,0.2-0.2,0.4-0.4,0.6c-0.2,0.2-0.3,0.2-0.4,0 c-0.2-0.3-0.3-0.6-0.4-0.9c-0.2-0.6-0.5-1.1-0.8-1.6c-0.2-0.3-0.5-0.6-0.6-1c-0.2-0.5-0.5-1-0.7-1.6c-0.1-0.2-0.2-0.3-0.3-0.4 c-0.3-0.3-0.7-0.5-1.1-0.6c-0.2-0.1-0.4-0.1-0.5,0c-1,0.3-1.9,0.5-2.9,0.7c-0.1,0-0.1,0-0.2,0c-0.4,0-0.8,0.2-1.2,0.4 c-0.1,0.1-0.2,0.1-0.3,0.1c-0.4,0-0.8,0.2-1.1,0.4c-0.6,0.3-1.1,0.7-1.7,1.1c-0.1,0-0.1,0.1-0.2,0.1c-0.1,0.1-0.1,0.2,0,0.4 c0.1,0.1,0.1,0.1,0.2,0.1c0.6,0.4,1.2,0.4,1.9,0.3c0.4-0.1,0.9-0.3,1.3-0.4c0.2-0.1,0.3-0.2,0.3-0.4c0-0.1,0-0.3,0-0.4 c0.2,0,0.4,0.1,0.5,0.3c0.1,0.2,0.2,0.1,0.3,0.1c0.2-0.1,0.5-0.2,0.7-0.3c0.2-0.1,0.4-0.2,0.6-0.3c0.1,0,0.8-0.3,1.1-0.3 c0.2,0,0.4,0,0.5,0.1c0.2,0.2,0.4,0.4,0.5,0.7c0.4,1.3,0.7,2.7,1.1,4c0.1,0.2,0.5,1.3,0.5,1.6c0,0.2,0.1,0.5,0.1,0.7 c0,0.4,0.3,0.6,0.6,0.8c0.3,0.1,0.5,0.3,0.7,0.5c0.1,0.1,0.2,0.2,0.2,0.3c0.1,0.2,0.4,0.8,0.4,1c-0.4,0.3-0.7,0.5-1,0.8 c-0.6,0.5-1.1,0.9-1.7,1.4c-0.2,0.2-0.5,0.4-0.7,0.5c-0.8,0.4-1.3,1-1.6,1.9c0,0.1-0.1,0.2-0.1,0.3c-0.3,0.7-0.6,1.3-0.9,2 c-0.1,0.2-0.2,0.4-0.4,0.6c0,0,0,0,0,0c0,0-0.1,0.1-0.1,0.1c-0.2,0.3-0.4,0.7-0.4,1.1c0,0.1,0,0.2-0.1,0.2c-0.2,0.3-0.4,0.4-0.5,0.8 c0,0.2-0.2,0.5-0.2,0.6c-0.1,0.4,0,0.7-0.1,1.1c0,0.1,0.1,0.4,0.1,0.5c0,0.2,0.1,0.2,0.2,0.2h0c0,0,0,0,0,0c0.1,0,0.1,0,0.2,0 c0.6-0.1,1-0.6,1.3-1.1c0.2-0.4,0.3-0.8,0.5-1.1c0.1-0.2,0-0.4-0.1-0.5c0,0,0,0,0,0c-0.1-0.1-0.3-0.1-0.2-0.2 c0.1-0.1,0.3-0.2,0.5-0.2c0.1,0,0.2,0,0.2,0c0.1-0.2,0.2-0.4,0.3-0.6c0-0.1,0-0.1,0.1-0.2c0-0.1,0-0.1,0.1-0.2 c0.1-0.4,0.2-0.7,0.4-1.1c0.3-0.8,0.9-1.5,1.7-1.8c0.1,0,0.2-0.1,0.2-0.2c0.4-0.5,1-0.8,1.6-1c0.8-0.3,2.5-0.8,2.5-0.8 c0,0.1,0.6,0.9,0.9,1.2c0.9,1,1.8,2,2.8,2.8c0.1,0.1,0.3,0.3,0.4,0.4c-0.1,0.1-0.8,0.5-1,0.6c-0.7,0.3-1.3,0.6-1.9,1 c-0.9,0.6-1.4,1.4-1.4,2.5c-0.1,1.7,0,3.3,0.2,5c0.1,0.8,0.1,1.6-0.1,2.4c-0.1,0.4-0.3,0.7-0.5,0.9c-0.5,0.4-1,0.7-1.5,0.9 c-0.6,0.2-1.2,0.4-1.8,0.8c0,0,0,0,0,0c-0.1,0.1-0.2,0.1-0.2,0.2c0,0,0,0,0,0c-0.3,0.3-0.6,0.7-1,0.9c-0.3,0.1-0.5,0.4-0.5,0.7 c0,0.1,0,0.2-0.1,0.3c0,0-0.1,0.1-0.1,0.1c-0.2,0.2-0.3,0.3-0.4,0.5c0,0.1-0.1,0.1-0.1,0.2c-0.1,0.2-0.2,0.4-0.3,0.5 c-0.1,0.2-0.4,0.7-0.4,0.7c0.3,0.2,0.6,0.3,1,0.3c0.7,0,1.3-0.2,1.8-0.6c0.1-0.1,0.6-0.5,0.6-0.6c0.1-0.1,0.5-0.5,0.4-0.7 c0-0.1-0.1-0.3-0.1-0.4c-0.1-0.2,0-0.3,0.2-0.2c0.3,0.1,0.6,0,0.8-0.2c0.1-0.1,0.1-0.1,0.2-0.2c0.3-0.3,0.6-0.5,1-0.7 c0.3-0.2,0.6-0.3,1-0.4c0.5-0.2,2.2-0.6,2.5-0.8c0.4-0.1,0.6-0.4,0.6-0.8c0-0.3,0-0.7,0-1c0-0.6,0-1.2,0.1-1.8 c0.1-0.6,0.3-1.2,0.7-1.6c0.2-0.2,0.4-0.5,0.7-0.6c0.3-0.2,0.6-0.3,0.9-0.4c0.3-0.1,0.3,0,0.4,0.2c0,0.4,0,0.8,0.1,1.1 c0.2,1,0.7,1.8,1.5,2.4c0.9,0.7,1.8,1.4,2.7,2c0.4,0.2,0.7,0.6,1.1,0.9c0.4,0.3,0.6,0.8,0.7,1.3c0.1,0.6,0.1,1.2,0,1.7 c-0.1,0.3-0.2,0.5-0.2,0.8c-0.1,0.3-0.2,0.5-0.3,0.8c0,0,0,0.1,0,0.1c0,0,0,0.1-0.1,0.1c-0.1,0.1-0.1,0.2-0.2,0.3 c-0.1,0.2,0,0.4,0,0.6c0,0.1-0.2,0.3-0.3,0.3c-0.1,0.1-0.2,0.3-0.3,0.4c-0.2,0.3-0.3,0.7-0.4,1.1c-0.1,0.3-0.1,0.6-0.2,0.9 c-0.1,0.2-0.2,0.8-0.2,0.9c0.4,0.1,0.7,0,1.1-0.1c0.7-0.2,1.2-0.7,1.6-1.2c0.1-0.2,0.4-0.7,0.4-0.8c0.1-0.2,0.1-0.5,0-0.7 c0-0.1,0-0.1,0-0.2c0-0.1,0-0.1-0.2-0.1c0,0-0.1,0-0.1,0c0.1-0.4,0.3-0.4,0.7-0.2c0.1,0,0.4-0.3,0.4-0.7c0-0.1,0-0.2,0.1-0.4 c0,0,0-0.1,0-0.1c0-0.2,0-0.3,0-0.5c0-0.9,0.2-1.7,0.4-2.6c0.2-0.7,0.3-1.5,0.1-2.2c0-0.1,0-0.1,0-0.2c0.1-0.3-0.1-0.5-0.3-0.6 c-0.7-0.4-1.2-0.9-1.6-1.6c-0.2-0.4-0.3-0.8-0.3-1.3c0-0.8-0.1-1.7-0.1-2.5c0-0.5-0.1-1-0.1-1.5c0-0.3,0-0.6,0-0.9 c0-0.3-0.1-0.6-0.1-0.9c0-0.1,0-0.1,0-0.2c0,0,0.2,0.3,0.3,0.4c0.6,0.7,1.2,1.2,2.1,1.2c0.4,0,0.8,0,1.3,0c0.2,0,0.5,0,0.7,0.1 c0.3,0.1,0.4,0.3,0.5,0.6c0.1,0.7,0,1.1-0.3,1.6c-0.3,0.5-0.5,1-0.6,1.5c-0.1,0.9,0.2,1.6,0.9,2.1c0.4,0.3,0.9,0.5,1.4,0.8 c0.2,0.1,0.3,0.2,0.5,0.3c0.3,0.2,0.4,0.5,0.3,0.8c-0.1,0.3-0.1,0.5-0.2,0.8c-0.1,0.2-0.1,0.7,0,0.9c-0.1-0.2,0-0.4,0-0.4 c0.1-0.2,0.2-0.4,0.5-0.6c0.1-0.1,0.2-0.2,0.3-0.2c0.7-0.8,0.8-1.9,0.1-2.7c-0.1-0.1-0.1-0.1-0.2-0.2c-0.4-0.4-0.5-0.9-0.4-1.5 c0.1-0.3,0.2-0.7,0.2-1c0-0.1,0-0.2,0.1-0.4c0.3,0.2,0.5,0.5,0.7,0.7c0.2,0.3,0.4,0.7,0.2,1.1c0.4-0.2,0.5-0.7,0.4-1 c0-0.2-0.1-0.4-0.1-0.5c-0.1-0.6-0.1-1.2,0.2-1.8c0.3-0.5,0.5-1.1,0.6-1.7C108,57.8,107.9,56.8,107.5,55.9z M93.7,30.6 c-0.3-0.1-0.9-0.4-0.8-0.7c0.1-0.4,0.2-0.4,0.7-0.6c0.1,0,0.3,0.1,0.4,0.1c0,0.1,0.1,0.1,0.1,0.2c-0.2-0.1-0.6,0-0.6,0.2 c-0.1,0.2,0,0.3,0.2,0.5c0.4,0.1,0.8-0.1,0.9-0.2l0.1-0.2c0.1,0,0.2,0.1,0.3,0.2C94.5,30.2,94.2,30.6,93.7,30.6z"></path> <g> <path d="M95.1,10.6c-0.2,0-0.5,0.1-0.7,0c0,0.1-0.2,0.4-0.2,0.5c-0.2,0.6-0.1,1.3-0.1,1.8c0,0.3,0.1,0.4,0.1,0.5 c-1.3-0.3-2.3-1.4-3.3-2c-0.8-0.4-1.6-0.7-2.2-1c0.7,0,1.8,0.1,2,0.1c3.7,0,1.8-1.8,2-4.6c0-0.7,0.2-1,0.2-1 c-0.9,0.3-1.9,2.5-3,3.1c-1.4,0.7-3.4-0.3-4.9,0.2c-0.7,0.3-1.2,0.9-1.6,1.4c-1.1,1.2-2.8,2-2,4.8c0.4,1.4,1.4,2.9,1.6,4 c0.1,0.3,0.1,0.7,0.1,0.8l-0.3-0.7c-0.6-1.3-1.2-2.2-2.5-2.8c-0.2-0.1-0.6-0.4-0.5-0.6c-0.1,0-0.3,0.2-0.4,0.2 c-0.3,0.3-0.4,0.8,0.3,1.9c-0.3-0.1-0.4,0-0.6,0c-0.2,0.1-0.4,0.2-0.5,0.6c-0.2,0.3-0.2,0.5-0.4,0.9c-0.2,0.3-0.5,0.6-0.7,1.1 c-0.5,1-0.2,1.5,0.8,1.8c0.3,0.1,0.7,0.2,1,0.2c-0.2-0.2-0.1-0.5-0.1-0.7c0.1-0.4,0.1-0.8,0.1-1.2c1.8-0.6,3,0.9,3.5,2.3 c0.1,0.2,0.1,0.4,0.2,0.6v0c-0.5,0.2-1,0.2-1.6,0.3c-3.2,0.6-6.5-1.5-9.4-2c-0.8-0.2-4.7-0.9-7.7-0.8c-3,0-6.6,1.1-7.4,1.3 c-0.7,0.2-1.5,0.5-1.7,0.6c-2.6,1-5.7,1.3-9.2,1.3c0.1-0.9,0.7-1.4,1.4-1.4c0.8,0,1.8,0.3,2.6,0.1c1.1-0.3,1.2-0.7,1.8-1.1 c-0.3-1.3-1.2-1.7-2.7-1.7c0.5-0.5,1.3-0.8,1.7-1.5c0.8-1.4,0.2-2.7-1.2-3.4c-0.5-0.2-0.6-0.9-0.6-0.9c-0.9,0.7-0.3,2.1,0.4,2.5 c-1.1,1.4-2,1.5-2.7,2.3c-0.3,0.3-0.9,1-1,1.6c-0.3-0.5,0.4-2.7,0.6-3.4c0.4-1.5,1.6-3.6,0.4-5.4C46,10.3,42,8,39.7,8.7 c-1.1,0.3-2.6,0.7-3.4,0.4C35.9,9,35.9,9,35.8,8.9c0.1-0.4,0.3-0.4,0.6-1c0.2-0.3,0.2-0.8,0.3-1.3c-0.2,0-0.3-0.1-0.4-0.2 c-0.3-0.2-0.7-0.4-1.2,0c-1.1,0.7-0.4,4.5,0.5,5c1,0.6,3-0.1,3.4-0.2c0.2-0.1,0.4-0.2,0.4-0.2c-0.1,0.2-0.7,0.4-0.7,0.4 c-1,0.4-1.7,0.9-2.4,1.6c-0.6,0.6-0.7,1.1-1.4,1.3c-0.1-0.9-0.2-1.1-0.5-1.4c-0.3-0.3-1.6-0.8-1.3-1.6c-0.9-0.2-1,1.6-1.1,1.9 c0,0.7,0.2,1.5,0.5,2.1c0.7,1.2,1.9,2.2,2.9,2c1.6-0.3,3-1.8,3.8-3c0.3-0.5,0.4-0.8,0.8-1.2c0.1-0.1,0.3-0.3,0.4-0.3 c0,0.8-1,1.8-1,2.6c0,0.8,0.3,1.2,0.2,1.9c-0.1,0.5-0.3,1.2-1,1.4c0.5,0,1.3-0.1,1.6-0.2c1.6-0.4,1.8-1.5,1.7-3.6 c0.7,0.4,0.8,1,1.9,1c0,1.7-0.8,3.3-0.5,5.1c0.5,2.7,2.4,6.6,6.2,5.4c0.8-0.2,1.4-0.6,2-0.8c-0.2,0.3-5,3.4-5.5,3.5 c0.1-2.6,0.2-3.1-2.1-3.9c-0.7-0.2-1.6-1-2.1,0c-0.1,0.2-0.1,0.5-0.1,0.7c0,0.1,0.1,0.2,0,0.4c0.1,0,0.3,0.1,0.5,0.2 c0.3,0.1,0.6,0.1,1,0.1c-0.1,0.8-0.3,1.6,0,2.4c0.3,0.8,3.5,2.5,4.8,2.1c1.8-0.6,2.6-2.2,3.6-3.6c0.1-0.2,0.6-0.7,0.8-0.8 c0,0.1-0.1,0.2-0.2,0.4c-0.8,1.3-0.7,2.4-0.4,4.2c0.1,0.5,0.1,0.7,0,0.9c-0.7,0-1.1-0.1-1.3-0.2c-0.2,0.3-0.5,0.8-0.5,1.4 c0,0.7,1,0.7,1.4,0.4c0.6-0.3,2.2-2,2.4-2.5c0.2-0.6-0.1-1.5-0.1-2.1c0.6,0.6,1.1,0.4,1.7,0c-0.1-0.6-0.8-1.4-0.9-1.7 c0-0.1,0-0.2,0-0.3c1.9,1.2,3.1,4.8,4.2,7.2c-0.4,0.2-1.5,1.6-1.7,2.6c0,0.1-0.1,0.4-0.1,0.5c0,0.1,0.1,0.1,0.2,0.2 c1.3,0.6,3.3,1.9,4.8,2.8c0.4,0.2,1.4-1.9,2-2.9c3.6-0.1,7.3,0,8,0c-0.3-0.8-0.9-2.1-1.2-2.7c0.4,0.3,0.7,0.4,1.2,0.6 c1.6,0.4,3.4-0.9,2.9-2.6c-0.2-0.7-1-2.5-1.7-2.8c-1.5-0.7-2.4,0.7-2,2.1c0.6,0.3,1.1,0.2,1.7-0.1c-0.4,0.8-1.6,1.2-2.3,1 c-0.2-1.4,0.3-2.8,0.6-4c0.1-0.2,0.2-0.7,0.2-0.7c1.2,0.9,2,1.7,3.3,1.1c0.3-0.1,1-0.6,1-0.6c0.1,0.4,0.2,1,0.1,1.3 c-0.2,1.3-0.4,1.8,0.4,2.8c0.1,0.2,0.5,0.5,0.8,0.7c-0.1-0.3,0.2-0.4,0.3-0.6c0.4-0.5,0.8-1.2,0.9-1.9c0.1-0.6,0-1.2-0.2-1.8 c0.8,0.8,1.2,1.6,3.4,2.1c2,0.4,3.4-1.7,3.9-3.7c0.2-0.8-0.5-1.7-0.6-2.1c0.3-0.1,0.7-0.1,1,0.3c0.2-0.4,0.9-2.4-0.2-2.2 c-0.4,0.1-0.9,0.5-1.2,0.7c-0.9,0.9-2,1.9-1.3,3.6c0,0,0.1,0.2,0.1,0.2c-1.5,0.2-3-1-4-1.6c-0.6-0.3-1.6-0.7-1.6-0.7 c0.5-0.1,2,0.7,3.3,0.4c1-0.2,1.7-0.6,3.1-2.1c0.9-0.9,1.5-2,1.7-2.8c0.3-1.2-0.2-4.3-0.6-5.9c0,0-0.2-0.8-0.3-0.9 c-0.2-0.6-0.4-2.1-0.3-3c1.4,0.7,0.6,2.1,0.5,3.2c0,0.3,0,0.5,0,0.6c0.2,0.1,0.4,0,0.6-0.2l0.2-0.2l-0.1,0.2 c-0.3,1.4,0.3,2.6,1.6,2.8c1,0.2,2.6,0.5,2.9-0.3c0.1-0.3,0.1-0.4,0-0.6c-0.1-0.2-0.2-0.4-0.3-0.5c-0.1-0.1-0.2-0.2-0.3-0.3 C89.4,16,89.2,16,89,16.1c-0.2,0.1-0.4,0.2-0.6,0.4c-0.1,0-0.1,0.1-0.1,0.1c0-0.7,0.2-1.6,0-2.5c-0.1-0.6-0.5-1.4-0.8-2.1 c0,0,0.5,0.5,0.8,0.8c0.2,0.2,1.1,1.5,2.5,2.3c0.9,0.6,1.8,0.9,2.7,0.6c1.1-0.4,0.9-0.5,1.9-1.1c0.4-0.2,0.7-0.4,1.2-0.9 C98.3,12.6,97.1,10.3,95.1,10.6z M79,17.8c-0.7,0.7-0.1,1.4,0,2.1c0,0.4,0,0.9-0.1,1.3c0,0.1,0,0.3,0,0.4c-0.2,0-1.2-0.2-1.3-0.5 c-0.2-0.4-0.2-0.6-0.1-1.1c0.1-0.2,0.5-0.7,0.5-0.8c0.3-0.3,0.6-1,0.8-1.5c0-0.1,0.2-0.3,0.4-0.4c0.3-0.1,0.4-0.1,0.6,0 C79.5,17.6,79.3,17.5,79,17.8z M35.5,8.6C35.1,8.3,35,8,34.9,7.7c-0.1-0.1-0.1-0.4-0.1-0.6c0.1-0.2,0.2-0.4,0.3-0.5 c0.2-0.2,0.5-0.2,0.8-0.2c0.2,0.1,0.4,0.2,0.6,0.3c0,0.4-0.1,0.9-0.3,1.2C35.9,8.2,35.5,8.3,35.5,8.6z M34.7,16.9 c-1.1-0.2-2.4-1.9-2.5-3.3c0-0.2,0-0.9,0.1-1.2c0-0.2,0.1-0.6,0.4-0.7c0,0.2,0.1,0.4,0.5,0.7c0,0,0.6,0.3,0.7,0.5 c0.2,0.2,0.7,0.6,0.7,2.1c0,0.4,0.3,1.6,1.5,1.6C35.8,16.8,35.3,17,34.7,16.9z M43.5,11.1c0.1,0.5,0.1,0.9,0.2,1.4 C43.2,12.1,43,11.3,43.5,11.1z M45.4,24.7c-0.4-0.3-0.8-1.2-1.1-1.7c-0.6-1.2-0.9-2.1-0.9-3.1c0-0.7,0.1-1.6,0.3-2.4 c0.1-0.7,0.2-1.2,0.3-1.8c0.2,0,0.5-0.2,0.8-0.1c0.7-0.9,1-2.8-0.8-3.1c-0.1-0.7-0.1-1-0.2-1.6c1-0.4,1.5-0.1,2.3,0.8 c0.9,1-0.1,4.3-0.4,5.6c-0.2,0.8-0.8,2.9-0.1,3.2c0.1-0.5,0.5-1.4,1.2-2.1c0.7-0.7,1.6-1,2.6-2.3c2,1.4-0.5,2.2-0.8,3.4 c0.8-0.2,2.6,0.1,2.8,1.3c-0.5,0.3-0.9,0.8-1.6,1c-0.7,0.1-1.8,0-2.4,0c-1.4-0.1-1.8,1-2,2.1C45.4,24.1,45.4,24.6,45.4,24.7z M45.6,29.1c-0.3,0.1-0.8,0.4-1.3,0.2c-0.3-0.1-0.4-0.3-0.5-0.3c-0.6-0.7-0.4-1.7-0.2-2.7c0.3-0.1,0.6-0.2,0.9-0.3 C46,26.2,45.7,27.6,45.6,29.1z M58,21.7c0.5-0.2,3.2-0.8,3.5-0.8c-0.4,0.4-1.4,1.6-1.5,2.2c0.3-0.1,1.3-0.4,1.6-0.5 c-0.3,0.2-1,0.5-1.4,0.6c-1.3,0.5-3.8,1.1-4.6,1.2C55.7,24.1,57.1,22,58,21.7z M51.4,33.3c-0.4,0.1-0.6,0.1-0.8-0.1 c-0.2-0.2-0.2-0.6-0.1-0.9c0-0.1,0.2-0.3,0.2-0.4c0.4,0.2,1.4,0.4,2.4-0.3C52.8,32.2,51.9,33.1,51.4,33.3z M53.2,25.7 c0,0-0.3,0-0.2-0.2c0.2-0.5,2-1.1,2.6-1.2c-1,0.6-0.9,0.6-0.5,0.5c0.8-0.2,0.7-0.2,1.6-0.4c2.2-0.6,4.6-1.2,6.2-2.4 c0.2-0.2,0.4-0.3,0.5-0.3c0.2-0.1,0.6-0.1,0.7,0.1c-0.2-0.1-0.7,0-0.9,0.1c-0.5,0.3-0.9,0.6-1.4,1c0.6-0.1,2.1-0.6,2.2-0.5 c-0.5,0.4-2.7,1.3-3.5,1.6C58.1,24.8,56,25.2,53.2,25.7z M63.1,34.6c-0.4,0.4-0.4,0.4-0.8,0.8c-0.2,0.2-0.4,0.5-0.5,0.8 c0.3,0.9,0.7,1.4,0.2,2.2c-0.5,0.6-0.2,1.2-0.3,1.2c-0.9-0.7-1.9-1.2-2.8-1.8c-0.3-0.2-0.7-0.4-1.1-0.6c-0.1-0.1-0.2-0.1-0.3-0.2 c0,0,0-0.2,0-0.4c0.1-0.2,0.3-0.6,0.6-1.1c0.2-0.2,0.6-0.9,0.8-1c0.1,0.2,0.3,0.7,0.3,1c0.2,0.6,0.1,1.1,0.1,1.7 c0.6,0,0.6-1.1,0.5-1.5c-0.4-1.5-1.3-3.4-2.2-5.4c-0.9-2-1.8-3.2-3.4-4.4c1.7-0.2,4.2-0.8,4.2-0.8c0.8,0.3,2.2,2.1,2.8,3.1 c0.7,1.4,1.4,2.9,1.9,4.6C63.3,33.2,63.8,34,63.1,34.6z M71.7,37.2h-0.3c-0.5-1.3-1.1-2.3-1.9-2.6c-0.8-0.4-1.6-0.2-3.2,0.7 c-0.3,0.2-0.6,0.4-0.9,0.7c0.2,0.2,0.5,0.5,0.6,1c-0.6,0-1.9,0-1.8,0c0.8-1,1.5-1.6,2-1.9c1.4-0.8,2.4-1.2,3.3-0.8 C70.2,34.5,71.1,35.4,71.7,37.2z M70.7,33c1.8,0.3,3.4-1.7,2.5-3c0.4,0.2,0.7,0.9,1,1.3c0.6,1.1,1.2,2.4-0.4,3.3 c-1.9,1-3.8-1.2-4.1-1.5c0,0,0,0,0,0c-1.3-1.3-1.7-2.6-1.7-2.6c-0.3-0.8-0.4-2.5-0.3-3.7c-0.6,1.7-2,2.2-3,1.7 c-1-0.5-2.2-1.5-2.2-1.5c0,0-0.1-0.1-0.1-0.1c-0.2-0.2-0.4-0.5-0.3-0.9c0.1-0.6,0.4-0.8,0.6-0.9c0.4-0.2,0.7-0.2,1.2,0.1 c0.2,0.1,1.2,0.9,1.4,1.1c0.4-0.6,0.5-1.5,0.5-2.1c0-0.6-1-3.6-1-3.6l0.5,0.6c0.2,0.2,0.8,1.1,1.3,1.6c0.7,0.6,0.7,1.2,0.8,1.6 c0,0.2,0.1,0.7-0.2,1c-0.1-0.5-0.4-0.6-0.8-0.8c0,0.6-0.1,1.8-1.4,2.3c-1,0.4-1.8,0.3-2.1,0.2c0.5,0.4,1.6,1.1,2,1.2 c0,0,0.5,0.3,1.1,0.1c0.6-0.1,1.4-0.6,2-2.5l0.1-0.4l0,0.4c0,0.8-0.1,3.5,0.3,4.5c0,0,0.1,0.4,0.5,0.9C69.2,32.3,69.8,32.9,70.7,33 z M73.6,29.1L73.3,29c0.6,0.2,2.5-0.6,2.6-2.2c0-0.1,0-0.5,0-0.6c0.2,0,0.8,0,1,0.3c0.3,0.3-0.1,0.6-0.3,0.8 C76.2,27.8,74.8,29.4,73.6,29.1z M73.2,25.6c0.9,0.2,1.7,0.9,2.3,1.8c-0.1,0.2-0.2,0.3-0.3,0.4c-0.3-0.1-0.6-0.4-0.7-0.5 C74.1,26.9,73.5,26.1,73.2,25.6z M83.1,26.5c0.1-1.1,1.1-2,1.8-2.5c0.3-0.3,1.1-0.6,1.1,0c0,0.3-0.1,0.9-0.3,1.2 c-0.9-0.5-1.8,0.1-2.3,0.8C83.4,26.1,83.1,26.5,83.1,26.5z M85.1,21.6c0,0.5-0.5,1.2-0.9,1.6c-1,1.2-2.1,2.9-4.4,2.7 c-0.9-0.1-1.9-0.5-2.7-0.4c-0.2,0-0.3,0.1-0.5,0.1c0.7,0.2,1.8,0.7,2.2,0.9c0.4,0.3,1.9,1.4,3,1.6c0.1,0,0.8,0.2,1.3,0.1 c0.1,0.2,0.6,1.4,0,2c-0.4,0.4-0.8,0.6-1.2,0.7c-0.7,0.1-1.7-0.2-2.5-0.8c-0.8-0.5-1.5-1.4-1.9-1.8c0.1,0.5,0.2,1,0.3,1.5 c0.3,1.1-0.3,2.2-0.7,2.6l-0.4,0.4c-0.5-0.4-1-1.3-0.9-2.2c0.1-0.5,0.2-0.7,0.1-1.4c0-0.3-0.1-0.5-0.2-0.9c0.3-0.3,0.6-0.6,1-1 c0.3-0.4,0.4-1-0.4-1.1L76,25.9c0,0-0.4-0.1-0.4-0.2c0.1,0.7,0.1,1.1,0.1,1.4c-0.4-0.8-1-1.3-1.7-1.6c-0.3-0.1-0.6-0.2-0.8-0.3 C73,25.3,73,25.2,73,25.1c-0.3-0.4-0.9-1.3-1.1-1.6c-0.3-0.4-1.4-1.3-1.6-1.7c-0.3-0.4-0.5-0.9-0.5-0.9s1.2,0.6,1.8,0.7 c0.2,0.1,1.2,0.3,2.3,0.6c2.2,0.4,5.1,0.8,5.1,0.8s-4.2-0.5-5-0.6c0,0,0,0-0.1,0c-0.1,0-0.1,0,0.1,0c0,0-2.4-0.4-3.7-1 c0,0,0.1,0.2,0.3,0.4c0.3,0.4,0.9,0.9,1.2,1.2c0.3,0.3,0.9,1.4,1.3,1.9c-0.2-0.5-0.1-1.3-0.1-1.8C76.2,23.5,83.2,24.7,85.1,21.6z M96.3,13.6L96.3,13.6c-1,0.8-1.7,1.3-2.8,1.9c-1.1,0.4-2,0-2.8-0.6c-1.2-0.9-2.4-2.3-2.8-2.8h0c0,0-0.7-0.6-0.8-0.6 c0.1,0.6,0.5,1.2,0.7,1.7c0.4,1,0.5,1.7,0.2,3.6c-0.4,0.2-1.7,0-1.8-0.1c-0.4-0.6-0.5-1.3-0.2-2.3c0-0.1,0.1-0.3,0.1-0.4 c-0.2,0.2-0.7,1-1.1,0.9c0-0.6,0.5-0.9,0.6-1.5c0.4-1.1-0.6-2.3-1.2-2.6c0.1-2,1-2.4,2.9-2.3c1.9,0.1,2.9,0.2,3.9-1.2 C91.4,7,92,6,92.5,5.6c0,0.5-0.1,1,0,1.6c0,0.8,0.3,1.1,0.2,2c-0.1,0.8-0.8,0.9-1.7,0.9c-0.6,0-2.3,0-3-0.1c0,0,0.4,0.3,0.8,0.5 c0.5,0.3,1.9,0.9,2.5,1.3c0.9,0.6,1.8,1.6,2.9,1.9c0.6,0.1,1,0.1,1.7-0.2c0.3-0.1,0.6-0.4,0.9-0.6C96.9,13.3,96.5,13.4,96.3,13.6z"></path> <path d="M64.8,26.7c0,0,0.2-0.1,0.5-0.3c0.2-0.2,0.5-0.4,0.6-0.7c0.2-0.5,0.3-0.8,0.3-1c0-0.3,0-0.2,0-0.4c0.4,0.2,0.8,0.3,1,0.6 c0.1-0.4,0-1.5-0.8-2.1c-0.7-0.5-1-1.1-1.3-1.7c0.1,0.4,0.7,2.2,0.8,2.8C65.9,24.7,65.8,26,64.8,26.7z"></path> <path d="M65.1,26.4c-0.3-0.3-0.5-0.4-0.9-0.7c0.1,0.3,0.1,0.6,0,0.8c-0.1,0.3-0.3,0.4-0.7,0.5c0.3,0,0.7-0.1,0.8-0.2 C64.7,26.7,64.9,26.6,65.1,26.4z"></path> <path d="M73,25.1c0.1,0.1,0.1,0.2,0.1,0.2S73,25.2,72.9,25C72.9,25,72.9,25.1,73,25.1z"></path> <path d="M71.4,34.2c-1.5-0.9-2.4-2-2.8-2.8c0,0,0,0,0,0c0.2,0.6,0.6,1.2,1.1,1.7c0.4,0.4,0.9,0.8,1.5,1.2L71.4,34.2z"></path> <path d="M64.2,37l0.3,0c0.3-0.4,0.6-0.8,0.9-1c-0.1-0.1-0.1-0.1-0.1-0.1S64.2,37,64.2,37z"></path> </g> <g> <path d="M80,37.2c-1.8,0-9.6,0-17,0c0,0.2-0.1,0.3-0.2,0.5h10.7L73,39.5c0.2,0.2,0.4,0.5,0.4,0.8c0,0.6-0.5,1-1,1c0,0-0.1,0-0.1,0 l-0.6,1.5l-2.3-4.3L66.9,43l-2.6-4.5L62,42.9l-2.4-4.5L57.3,43l-0.9-1.5l-0.1-0.2c-0.1,0-0.2,0-0.3,0c-0.6,0-1-0.5-1-1 c0-0.5,0.3-0.9,0.8-1l-0.4-1.6h2.8c-0.3-0.1-0.5-0.3-0.7-0.5c-4.7,0-8.4,0-8.8,0c0,6-0.8,30.8,15.8,37.8C80.9,68,80,43.2,80,37.2z M51.5,39.2c0.6,0,1,0.5,1,1c0,0.6-0.5,1-1,1c-0.6,0-1-0.5-1-1C50.4,39.7,50.9,39.2,51.5,39.2z M52.5,49.8c0,0.6-0.5,1-1,1 c-0.6,0-1-0.5-1-1c0-0.6,0.5-1,1-1C52,48.8,52.5,49.2,52.5,49.8z M51.4,44c0.6,0,1,0.5,1,1c0,0.6-0.5,1-1,1c-0.6,0-1-0.5-1-1 C50.4,44.5,50.9,44,51.4,44z M50.4,54.6c0-0.6,0.5-1,1-1c0.6,0,1,0.5,1,1c0,0.6-0.5,1-1,1C50.9,55.6,50.4,55.1,50.4,54.6z M52.1,60.2c-0.2-0.4-0.6-1.6-0.7-2c0.1,0,0.1,0,0.2,0c0.6,0,1,0.5,1,1C52.6,59.7,52.4,60.1,52.1,60.2z M56.1,65.1 c-0.6,0-1-0.5-1-1c0-0.6,0.5-1,1-1c0.6,0,1,0.5,1,1C57.1,64.7,56.6,65.1,56.1,65.1z M56.1,60.4c-0.6,0-1-0.5-1-1c0-0.6,0.5-1,1-1 c0.6,0,1,0.5,1,1C57.1,59.9,56.6,60.4,56.1,60.4z M56.1,55.6c-0.6,0-1-0.5-1-1c0-0.6,0.5-1,1-1c0.6,0,1,0.5,1,1 C57.1,55.1,56.6,55.6,56.1,55.6z M56.1,50.8c-0.6,0-1-0.5-1-1c0-0.6,0.5-1,1-1c0.6,0,1,0.5,1,1C57.1,50.4,56.6,50.8,56.1,50.8z M56.1,46.1c-0.6,0-1-0.5-1-1c0-0.6,0.5-1,1-1c0.6,0,1,0.5,1,1C57.1,45.6,56.6,46.1,56.1,46.1z M72.3,44c0.6,0,1,0.5,1,1 c0,0.6-0.5,1-1,1c-0.6,0-1-0.5-1-1C71.3,44.5,71.7,44,72.3,44z M72.3,48.8c0.6,0,1,0.5,1,1c0,0.6-0.5,1-1,1c-0.6,0-1-0.5-1-1 C71.3,49.2,71.7,48.8,72.3,48.8z M61.2,69.8c-0.6,0-1-0.5-1-1c0-0.6,0.5-1,1-1c0.6,0,1,0.5,1,1C62.2,69.3,61.8,69.8,61.2,69.8z M60.1,64.1c0-0.6,0.5-1,1-1c0.6,0,1,0.5,1,1c0,0.6-0.5,1-1,1C60.6,65.1,60.1,64.7,60.1,64.1z M64.5,72.9c-0.6,0-1-0.5-1-1 c0-0.5,0.3-0.9,0.8-1l0.3-0.5l0.2,0.4l0,0.1c0.5,0.1,0.8,0.5,0.8,1C65.5,72.4,65.1,72.9,64.5,72.9z M65.6,67.5l-1.2-2.1l-1.1,2.2 l-0.8-3l1.9-3.7l2,3.5L65.6,67.5z M67.7,69.8c-0.6,0-1-0.5-1-1c0-0.6,0.5-1,1-1c0.6,0,1,0.5,1,1C68.7,69.3,68.3,69.8,67.7,69.8z M66.6,64.1c0-0.6,0.5-1,1-1s1,0.5,1,1c0,0.6-0.5,1-1,1S66.6,64.7,66.6,64.1z M68.7,59.3c0,0.6-0.5,1-1,1c-0.2,0-0.4-0.1-0.6-0.2 l-0.2,0.4l-2.6-4.5L62,60.5l-0.2-0.4c-0.2,0.1-0.4,0.2-0.7,0.2c-0.6,0-1-0.5-1-1c0-0.5,0.3-0.9,0.7-1l-1.5-5.6l0.3-0.6l2.4,4.4 l2.3-4.5l2.6,4.4l2.3-4.4l0.2,0.4L68,58.3C68.4,58.5,68.7,58.9,68.7,59.3z M70.4,49.4l-1.1-2.1l-2.4,4.5l-2.6-4.5L62,51.7l-2.4-4.5 l-1.1,2.1L57.8,47l1.8-3.6l2.4,4.4l2.3-4.5l2.6,4.4l2.3-4.4l1.8,3.3L70.4,49.4z M72.3,53.5c0.6,0,1,0.5,1,1c0,0.6-0.5,1-1,1 c-0.6,0-1-0.5-1-1C71.3,54,71.7,53.5,72.3,53.5z M72.3,65.1c-0.6,0-1-0.5-1-1c0-0.6,0.5-1,1-1c0.6,0,1,0.5,1,1 C73.4,64.7,72.9,65.1,72.3,65.1z M72.3,60.4c-0.6,0-1-0.5-1-1c0-0.6,0.5-1,1-1c0.6,0,1,0.5,1,1C73.4,59.9,72.9,60.4,72.3,60.4z M76.8,60.2c-0.3-0.2-0.6-0.5-0.6-0.9c0-0.6,0.5-1,1-1c0.1,0,0.1,0,0.2,0C77.4,58.6,77,59.8,76.8,60.2z M77.1,55.6 c-0.6,0-1-0.5-1-1c0-0.6,0.5-1,1-1c0.6,0,1,0.5,1,1C78.2,55.1,77.7,55.6,77.1,55.6z M77.1,50.8c-0.6,0-1-0.5-1-1c0-0.6,0.5-1,1-1 c0.6,0,1,0.5,1,1C78.2,50.4,77.7,50.8,77.1,50.8z M77.1,46.1c-0.6,0-1-0.5-1-1c0-0.6,0.5-1,1-1c0.6,0,1,0.5,1,1 C78.2,45.6,77.7,46.1,77.1,46.1z M77.1,41.3c-0.6,0-1-0.5-1-1c0-0.6,0.5-1,1-1c0.6,0,1,0.5,1,1C78.2,40.8,77.7,41.3,77.1,41.3z"></path> </g> </svg> 