<?xml version="1.0" encoding="UTF-8"?>
<svg width="148px" height="28px" viewBox="0 0 148 28" version="1.1" xmlns="http://www.w3.org/2000/svg" xmlns:xlink="http://www.w3.org/1999/xlink">
    <title>veritone</title>
    <g id="Page-1" stroke="none" stroke-width="1" fill="none" fill-rule="evenodd">
        <g id="veritone" fill="#000000" fill-rule="nonzero">
            <path d="M63.2936,0.337402 C62.6548,0.337402 62.1111,0.555656 61.6825,0.988196 C61.25,1.42074 61.0317,1.96042 61.0317,2.59931 C61.0317,3.2382 61.25,3.74613 61.6825,4.1747 C62.1111,4.60724 62.6548,4.8255 63.2936,4.8255 C63.9325,4.8255 64.4405,4.60724 64.8809,4.18264 C65.3294,3.7501 65.5555,3.21835 65.5555,2.60328 C65.5555,1.9882 65.3294,1.41677 64.8809,0.984228 C64.4365,0.555656 63.9048,0.341371 63.2936,0.341371 L63.2936,0.337402 Z" id="Path"></path>
            <polygon id="Path" points="61.4443 9.02792 61.4443 27.6271 65.107 27.6271 65.107 7.91284"></polygon>
            <path d="M35.3017,7.42456 C32.4207,7.42456 29.9723,8.42059 28.0239,10.3809 C26.0755,12.3412 25.0874,14.8095 25.0874,17.7103 C25.0874,20.6111 26.0953,23.0833 28.0834,25.0436 C30.0676,27.0039 32.5596,27.996 35.4882,27.996 C37.6112,27.996 39.5199,27.4642 41.1549,26.4087 C42.7898,25.3571 44.0398,23.9444 44.8692,22.2023 L45.0596,21.8015 L41.8771,20.4603 L41.7025,20.8254 C41.139,21.996 40.3096,22.9325 39.2342,23.6111 C38.1588,24.2896 36.9088,24.6349 35.5239,24.6349 C33.7144,24.6349 32.1668,24.0595 30.9168,22.9246 C29.7779,21.8928 29.0676,20.5714 28.8096,18.996 L45.4049,18.996 L45.4326,18.6031 C45.6668,15.4722 44.7898,12.7976 42.8295,10.6547 C40.8652,8.51186 38.3334,7.42456 35.2977,7.42456 L35.3017,7.42456 Z M39.5755,12.3492 C40.6311,13.2817 41.3255,14.4484 41.6469,15.8254 L28.9287,15.8254 C29.2858,14.4285 30.008,13.2579 31.0755,12.3333 C32.266,11.3055 33.6866,10.7857 35.2977,10.7857 C36.9088,10.7857 38.3969,11.3095 39.5715,12.3492" id="Shape"></path>
            <path d="M75.1389,0 L71.4762,1.12302 L71.4762,7.80159 L67.2024,7.80159 L67.2024,11.2024 L71.4762,11.2024 L71.4762,20.6389 C71.4762,22.9722 72.0675,24.7381 73.2341,25.8929 C74.3968,27.0437 76.1945,27.627 78.5754,27.627 L80.9127,27.627 L80.9127,24.2262 L78.5754,24.2262 C77.3254,24.2262 76.4286,23.9643 75.9127,23.4524 C75.3968,22.9365 75.1389,22.0278 75.1389,20.754 L75.1389,11.2024 L80.9127,11.2024 L80.9127,7.80159 L75.1389,7.80159 L75.1389,0 Z" id="Path"></path>
            <path d="M91.9247,7.42456 C88.9961,7.42456 86.5041,8.41662 84.52,10.3769 C82.5319,12.3373 81.5239,14.8055 81.5239,17.7103 C81.5239,20.615 82.5319,23.0833 84.52,25.0436 C86.5041,27.0039 88.9961,27.996 91.9247,27.996 C94.8533,27.996 97.3454,27.0039 99.3295,25.0436 C101.318,23.0833 102.326,20.615 102.326,17.7103 C102.326,14.8055 101.318,12.3373 99.3295,10.3769 C97.3454,8.41662 94.8533,7.42456 91.9247,7.42456 Z M91.9247,24.5238 C90.0239,24.5238 88.4763,23.8849 87.1827,22.5714 C85.889,21.2539 85.262,19.6666 85.262,17.7142 C85.262,15.7619 85.9088,14.1547 87.1827,12.8571 C88.4723,11.5436 90.0239,10.9047 91.9247,10.9047 C93.8255,10.9047 95.4049,11.5396 96.6827,12.8412 C97.9446,14.1269 98.5874,15.7698 98.5874,17.7182 C98.5874,19.6666 97.9485,21.3095 96.6827,22.5952 C95.4049,23.8968 93.8493,24.5317 91.9247,24.5317 L91.9247,24.5238 Z" id="Shape"></path>
            <path d="M114.841,7.42456 C113.103,7.42456 111.556,7.9325 110.234,8.93647 C109.437,9.54361 108.774,10.2817 108.254,11.1428 L108.254,7.79758 L104.591,7.79758 L104.591,27.623 L108.254,27.623 L108.254,16.3611 C108.254,14.7658 108.778,13.4801 109.853,12.4285 C110.929,11.373 112.27,10.8611 113.944,10.8611 C115.464,10.8611 116.698,11.3769 117.726,12.4365 C118.758,13.5039 119.258,14.7857 119.258,16.3611 L119.258,27.623 L122.921,27.623 L122.921,16.0238 C122.921,13.5754 122.159,11.5079 120.651,9.88488 C119.135,8.25393 117.183,7.42456 114.845,7.42456 L114.841,7.42456 Z" id="Path"></path>
            <path d="M142.774,10.6586 C140.81,8.51577 138.278,7.42847 135.242,7.42847 C132.361,7.42847 129.913,8.4245 127.964,10.3848 C126.016,12.3451 125.028,14.8134 125.028,17.7142 C125.028,20.615 126.036,23.0872 128.024,25.0475 C130.008,27.0078 132.5,27.9999 135.429,27.9999 C137.552,27.9999 139.46,27.4681 141.095,26.4126 C142.73,25.361 143.98,23.9483 144.81,22.2062 L145,21.8055 L141.818,20.4642 L141.643,20.8293 C141.079,21.9999 140.25,22.9364 139.175,23.615 C138.099,24.2935 136.849,24.6388 135.464,24.6388 C133.655,24.6388 132.107,24.0634 130.857,22.9285 C129.718,21.8967 129.008,20.5753 128.75,18.9999 L145.345,18.9999 L145.373,18.607 C145.607,15.4761 144.73,12.8015 142.77,10.6586 L142.774,10.6586 Z M131.016,12.3332 C132.206,11.3055 133.627,10.7856 135.238,10.7856 C136.849,10.7856 138.337,11.3094 139.512,12.3491 C140.568,13.2816 141.262,14.4483 141.583,15.8253 L128.865,15.8253 C129.222,14.4285 129.944,13.2578 131.012,12.3332 L131.016,12.3332 Z" id="Shape"></path>
            <path d="M147.714,26.881 C147.714,27.508 147.222,28.0001 146.583,28.0001 C145.944,28.0001 145.444,27.508 145.444,26.881 C145.444,26.254 145.948,25.7778 146.583,25.7778 C147.218,25.7778 147.714,26.2699 147.714,26.881 Z M145.726,26.881 C145.726,27.3731 146.091,27.762 146.587,27.762 C147.083,27.762 147.428,27.3731 147.428,26.885 C147.428,26.3969 147.071,25.9961 146.579,25.9961 C146.087,25.9961 145.722,26.3929 145.722,26.877 L145.726,26.881 Z M146.409,27.4604 L146.155,27.4604 L146.155,26.3572 C146.254,26.3374 146.397,26.3255 146.579,26.3255 C146.79,26.3255 146.881,26.3572 146.964,26.4048 C147.024,26.4524 147.071,26.5397 147.071,26.6469 C147.071,26.7699 146.976,26.8612 146.841,26.9008 L146.841,26.9128 C146.948,26.9524 147.008,27.0358 147.044,27.1826 C147.075,27.3493 147.099,27.4167 147.123,27.4604 L146.845,27.4604 C146.813,27.4207 146.79,27.3175 146.758,27.1905 C146.738,27.0675 146.671,27.0159 146.528,27.0159 L146.405,27.0159 L146.405,27.4604 L146.409,27.4604 Z M146.413,26.8334 L146.536,26.8334 C146.678,26.8334 146.794,26.7858 146.794,26.6707 C146.794,26.5715 146.718,26.504 146.559,26.504 C146.492,26.504 146.444,26.512 146.417,26.5159 L146.417,26.8334 L146.413,26.8334 Z" id="Shape"></path>
            <polygon id="Path" points="21.9484 7.52783 10.9683 24.4921 13.2341 28.0001 26.4841 7.52783"></polygon>
            <polygon id="Path" points="12.9167 20.4762 4.53571 7.52783 0 7.52783 8.38095 20.4762"></polygon>
            <path d="M58.8136,7.58333 C56.9406,7.23809 55.2541,7.5238 53.8057,8.42857 C52.8533,9.0238 52.0596,9.9246 51.4366,11.1151 L51.4366,7.81349 L47.7739,8.92857 L47.7739,27.623 L51.4366,27.623 L51.4366,16.3611 C51.4366,14.4881 52.1231,13.0714 53.5319,12.0357 C54.9525,10.9921 56.6271,10.7024 58.643,11.1508 L59.1588,11.2659 L59.1588,7.64285 L58.8096,7.57936 L58.8136,7.58333 Z" id="Path"></path>
        </g>
    </g>
</svg>