<?xml version="1.0" encoding="UTF-8" standalone="no"?>
<!-- Created with Inkscape (http://www.inkscape.org/) -->

<svg
   xmlns:dc="http://purl.org/dc/elements/1.1/"
   xmlns:cc="http://creativecommons.org/ns#"
   xmlns:rdf="http://www.w3.org/1999/02/22-rdf-syntax-ns#"
   xmlns:svg="http://www.w3.org/2000/svg"
   xmlns="http://www.w3.org/2000/svg"
   xmlns:sodipodi="http://sodipodi.sourceforge.net/DTD/sodipodi-0.dtd"
   xmlns:inkscape="http://www.inkscape.org/namespaces/inkscape"
   width="131.96875mm"
   height="55.00774mm"
   viewBox="0 0 131.96875 55.00774"
   version="1.1"
   id="svg665"
   inkscape:version="0.92.0 r15299"
   sodipodi:docname="xbrl.svg">
  <defs
     id="defs659" />
  <sodipodi:namedview
     id="base"
     pagecolor="#ffffff"
     bordercolor="#666666"
     borderopacity="1.0"
     inkscape:pageopacity="0.0"
     inkscape:pageshadow="2"
     inkscape:zoom="1.8121212"
     inkscape:cx="247.5"
     inkscape:cy="102.06139"
     inkscape:document-units="mm"
     inkscape:current-layer="layer1"
     showgrid="false"
     fit-margin-top="0"
     fit-margin-left="0"
     fit-margin-right="0"
     fit-margin-bottom="0"
     inkscape:window-width="1280"
     inkscape:window-height="744"
     inkscape:window-x="-4"
     inkscape:window-y="-4"
     inkscape:window-maximized="1" />
  <metadata
     id="metadata662">
    <rdf:RDF>
      <cc:Work
         rdf:about="">
        <dc:format>image/svg+xml</dc:format>
        <dc:type
           rdf:resource="http://purl.org/dc/dcmitype/StillImage" />
        <dc:title></dc:title>
      </cc:Work>
    </rdf:RDF>
  </metadata>
  <g
     inkscape:label="Layer 1"
     inkscape:groupmode="layer"
     id="layer1"
     transform="translate(-7.8430101,-312.84124)">
    <g
       id="g706"
       transform="translate(0.50000005,-0.50000197)">
      <path
         sodipodi:nodetypes="cccc"
         inkscape:connector-curvature="0"
         id="rect3828"
         d="m 46.108374,323.63077 -12.36927,16.7597 12.36927,16.5778 z"
         style="color:#000000;display:inline;overflow:visible;visibility:visible;fill:#31a1e1;fill-opacity:1;fill-rule:evenodd;stroke:none;stroke-width:5.29166651;marker:none;enable-background:accumulate" />
      <path
         sodipodi:nodetypes="scccccscccccsccsscccssscc"
         inkscape:connector-curvature="0"
         id="B"
         d="m 62.578686,314.0975 c -0.528716,0.002 -1.074377,0.007 -1.637109,0.0165 H 53.08676 l -6.978386,9.51673 v 34.39583 h 21.323763 c 4.367945,0.0141 12.361002,-2.54173 12.361002,-12.98939 0,-7.08006 -4.580598,-9.76478 -8.582421,-10.86445 v -0.23978 c 1.727988,-0.74677 3.079242,-1.48658 4.051432,-3.27422 0.972124,-1.78758 1.463336,-3.6886 1.480013,-5.70508 -0.109371,-4.14727 -2.007606,-7.67453 -4.969206,-9.26041 -2.591456,-1.38758 -5.493258,-1.60647 -9.194271,-1.59577 z m -5.357812,8.47493 h 3.323828 c 2.278899,-0.0614 5.142839,0.60109 5.142839,3.96875 0,3.36767 -2.368376,4.49792 -5.142839,4.49792 h -3.323828 z m 0,16.93334 h 6.35 c 2.776384,0 5.027083,2.2507 5.027083,5.02708 0,2.77638 -2.250699,5.02708 -5.027083,5.02708 h -6.35 z"
         style="font-style:normal;font-variant:normal;font-weight:900;font-stretch:normal;font-size:104.1650238px;line-height:125%;font-family:'Noto Sans S Chinese Black';-inkscape-font-specification:'Noto Sans S Chinese Black, Heavy';text-align:start;letter-spacing:0px;word-spacing:0px;writing-mode:lr-tb;text-anchor:start;fill:#000000;fill-opacity:1;stroke:none;stroke-width:0.26458332" />
      <path
         sodipodi:nodetypes="scccccccccccssccscc"
         inkscape:connector-curvature="0"
         id="R"
         d="m 97.85922,314.10163 c -0.100769,0.002 -0.157096,0.008 -0.157096,0.008 h -7.672917 -5.55625 -5.820833 v 43.9167 h 11.377083 v -15.61042 c 0.759931,-0.0159 1.526606,0.0377 2.298568,0 l 9.607685,15.61042 h 13.49375 L 103.9033,339.98532 c 4.41619,-2.03768 7.55716,-5.78138 7.55716,-12.65039 0,-13.04068 -12.089705,-13.25716 -13.60124,-13.2333 z m -7.830013,8.73539 h 4.671549 c 0,0 4.853451,-0.26559 4.853451,5.19244 0,6.1612 -5.789769,5.92006 -9.525,5.92006 z"
         style="color:#000000;display:inline;overflow:visible;visibility:visible;opacity:1;fill:#000000;fill-opacity:1;fill-rule:evenodd;stroke:none;stroke-width:5.29166651;marker:none;enable-background:accumulate" />
      <path
         sodipodi:nodetypes="ccccccc"
         d="m 113.31254,358.0266 h 25.4 v -9.78963 l -13.75833,9e-5 v -34.13121 l -11.64167,-8e-5 z"
         style="font-style:normal;font-variant:normal;font-weight:900;font-stretch:normal;font-size:104.1650238px;line-height:125%;font-family:'Noto Sans S Chinese Black';-inkscape-font-specification:'Noto Sans S Chinese Black, Heavy';text-align:start;letter-spacing:0px;word-spacing:0px;writing-mode:lr-tb;text-anchor:start;opacity:1;fill:#000000;fill-opacity:1;stroke:none;stroke-width:0.26458332"
         id="L"
         inkscape:connector-curvature="0" />
      <path
         inkscape:connector-curvature="0"
         id="X"
         d="M 8.0083747,322.57243 21.171395,340.39047 8.0083747,358.0266 H 20.708375 l 6.746874,-9.12813 6.746875,9.12813 h 12.7 l -13.16302,-17.63613 13.16302,-17.81804 H 34.466708 l -7.011459,9.39271 -7.011458,-9.39271 z"
         style="opacity:1;fill:#000000;fill-opacity:1;stroke:none;stroke-width:0.26458332" />
      <path
         inkscape:connector-curvature="0"
         id="slogan"
         d="m 35.095093,363.14463 c -0.303062,10e-6 -0.563001,0.0422 -0.785482,0.11576 -0.222483,0.0736 -0.413099,0.17054 -0.562239,0.29765 -0.149143,0.12713 -0.257392,0.2732 -0.330729,0.43822 -0.07334,0.16503 -0.107487,0.3419 -0.107487,0.52917 0,0.16945 0.02738,0.32474 0.09095,0.46302 0.06357,0.13828 0.157956,0.25676 0.272852,0.3638 0.114895,0.10705 0.246226,0.19705 0.405143,0.27285 0.158914,0.0758 0.335121,0.13349 0.520898,0.17363 0.381395,0.0892 0.659085,0.1814 0.835091,0.27286 0.175999,0.0915 0.264581,0.22365 0.264584,0.3886 -3e-6,0.0758 -0.02461,0.13822 -0.06615,0.19844 -0.04156,0.0602 -0.08868,0.11477 -0.157096,0.1571 -0.06842,0.0423 -0.1484,0.0769 -0.231511,0.0992 -0.08311,0.0223 -0.164936,0.0331 -0.248047,0.0331 -0.141904,0 -0.280474,-0.0162 -0.405143,-0.0496 -0.124672,-0.0334 -0.233876,-0.0787 -0.338997,-0.13229 -0.105125,-0.0536 -0.203814,-0.11725 -0.289388,-0.1819 -0.08558,-0.0647 -0.159676,-0.1277 -0.223242,-0.19017 l -0.711068,0.7028 c 0.09281,0.0936 0.201133,0.1919 0.330729,0.28112 0.129593,0.0892 0.276836,0.16244 0.438216,0.23151 0.161377,0.0691 0.345231,0.12296 0.545703,0.16536 0.20047,0.0424 0.425307,0.0661 0.669727,0.0661 0.26411,0 0.50854,-0.0301 0.735872,-0.0992 0.227325,-0.0691 0.426622,-0.17278 0.595313,-0.29766 0.168685,-0.12487 0.299061,-0.26876 0.396875,-0.43821 0.09781,-0.16945 0.148823,-0.35322 0.148828,-0.55398 -5e-6,-0.23191 -0.04091,-0.43253 -0.124024,-0.59531 -0.08312,-0.16277 -0.193825,-0.30194 -0.330729,-0.41341 -0.136908,-0.11147 -0.297677,-0.19544 -0.471289,-0.26458 -0.173617,-0.0691 -0.348321,-0.12521 -0.529167,-0.16537 -0.308136,-0.0625 -0.551605,-0.13787 -0.727604,-0.23151 -0.176003,-0.0936 -0.264583,-0.22045 -0.264583,-0.37207 0,-0.058 0.02117,-0.11405 0.05788,-0.16536 0.0367,-0.0513 0.08772,-0.0944 0.148828,-0.13229 0.0611,-0.0379 0.130905,-0.0687 0.206705,-0.0909 0.0758,-0.0223 0.14505,-0.0331 0.223243,-0.0331 0.117279,1e-5 0.233873,0.0146 0.338997,0.0413 0.105119,0.0268 0.201345,0.0591 0.289388,0.0992 0.08803,0.0402 0.168899,0.0855 0.239779,0.13229 0.07088,0.0468 0.128029,0.0922 0.181901,0.1323 l 0.644922,-0.64493 c -0.04402,-0.0401 -0.112864,-0.0962 -0.198438,-0.16536 -0.08558,-0.0691 -0.196212,-0.13378 -0.330729,-0.19844 -0.134522,-0.0646 -0.297204,-0.11854 -0.487826,-0.16536 -0.190624,-0.0468 -0.411972,-0.0744 -0.661458,-0.0744 z m 16.15612,0 c -0.303059,10e-6 -0.57127,0.0422 -0.79375,0.11576 -0.222483,0.0736 -0.404831,0.17054 -0.553972,0.29765 -0.149143,0.12713 -0.265657,0.2732 -0.338997,0.43822 -0.07334,0.16503 -0.107487,0.3419 -0.107487,0.52917 0,0.16945 0.03565,0.32474 0.09922,0.46302 0.06356,0.13828 0.149688,0.25676 0.264583,0.3638 0.114895,0.10705 0.254495,0.19705 0.413412,0.27285 0.158914,0.0758 0.326853,0.13349 0.51263,0.17363 0.381391,0.0892 0.659085,0.1814 0.835091,0.27286 0.175995,0.0915 0.264581,0.22365 0.264583,0.3886 -2e-6,0.0758 -0.01633,0.13822 -0.05788,0.19844 -0.04156,0.0602 -0.09695,0.11477 -0.165365,0.1571 -0.06842,0.0423 -0.1484,0.0769 -0.23151,0.0992 -0.08312,0.0223 -0.164936,0.0331 -0.248047,0.0331 -0.141907,0 -0.272206,-0.0162 -0.396875,-0.0496 -0.124672,-0.0334 -0.242144,-0.0787 -0.347266,-0.13229 -0.105124,-0.0536 -0.195543,-0.11725 -0.28112,-0.1819 -0.08558,-0.0647 -0.159678,-0.1277 -0.223242,-0.19017 l -0.719336,0.7028 c 0.09281,0.0936 0.209402,0.1919 0.338998,0.28112 0.129592,0.0892 0.276838,0.16244 0.438216,0.23151 0.161377,0.0691 0.33696,0.12296 0.537435,0.16536 0.200469,0.0424 0.425307,0.0661 0.669726,0.0661 0.26411,0 0.50854,-0.0301 0.735873,-0.0992 0.227327,-0.0691 0.426619,-0.17278 0.595312,-0.29766 0.168685,-0.12487 0.299059,-0.26876 0.396875,-0.43821 0.09781,-0.16945 0.148826,-0.35322 0.148828,-0.55398 -2e-6,-0.23191 -0.04091,-0.43253 -0.124023,-0.59531 -0.08312,-0.16277 -0.193829,-0.30194 -0.330729,-0.41341 -0.136909,-0.11147 -0.28941,-0.19544 -0.463021,-0.26458 -0.173617,-0.0691 -0.35659,-0.12521 -0.537435,-0.16537 -0.308137,-0.0625 -0.543338,-0.13787 -0.719336,-0.23151 -0.176004,-0.0936 -0.264586,-0.22045 -0.264583,-0.37207 -3e-6,-0.058 0.01291,-0.11405 0.04961,-0.16536 0.0367,-0.0513 0.08772,-0.0944 0.148828,-0.13229 0.0611,-0.0379 0.130903,-0.0687 0.206706,-0.0909 0.0758,-0.0223 0.153318,-0.0331 0.23151,-0.0331 0.117282,1e-5 0.225602,0.0146 0.330729,0.0413 0.105119,0.0268 0.201351,0.0591 0.289388,0.0992 0.08803,0.0402 0.1689,0.0855 0.239779,0.13229 0.07088,0.0468 0.1363,0.0922 0.190169,0.1323 l 0.636654,-0.64493 c -0.04402,-0.0401 -0.112866,-0.0962 -0.198438,-0.16536 -0.08558,-0.0691 -0.196212,-0.13378 -0.330729,-0.19844 -0.134519,-0.0646 -0.297204,-0.11854 -0.487825,-0.16536 -0.190625,-0.0468 -0.403701,-0.0744 -0.65319,-0.0744 z m 4.34082,0 c -0.303059,10e-6 -0.57127,0.0422 -0.79375,0.11576 -0.22248,0.0736 -0.404828,0.17054 -0.553971,0.29765 -0.149141,0.12713 -0.265658,0.2732 -0.338998,0.43822 -0.07334,0.16503 -0.107487,0.3419 -0.107487,0.52917 0,0.16945 0.03565,0.32474 0.09922,0.46302 0.06357,0.13828 0.149685,0.25676 0.264583,0.3638 0.114896,0.10705 0.254495,0.19705 0.413412,0.27285 0.158914,0.0758 0.326855,0.13349 0.51263,0.17363 0.381394,0.0892 0.65909,0.1814 0.835091,0.27286 0.175998,0.0915 0.264581,0.22365 0.264583,0.3886 -2e-6,0.0758 -0.01632,0.13822 -0.05788,0.19844 -0.04156,0.0602 -0.09695,0.11477 -0.165365,0.1571 -0.06842,0.0423 -0.148399,0.0769 -0.23151,0.0992 -0.08312,0.0223 -0.164936,0.0331 -0.248047,0.0331 -0.141907,0 -0.272209,-0.0162 -0.396875,-0.0496 -0.124672,-0.0334 -0.242147,-0.0787 -0.347266,-0.13229 -0.105124,-0.0536 -0.195545,-0.11725 -0.281119,-0.1819 -0.08558,-0.0647 -0.167945,-0.1277 -0.231511,-0.19017 l -0.711068,0.7028 c 0.09281,0.0936 0.209402,0.1919 0.338998,0.28112 0.129595,0.0892 0.276839,0.16244 0.438216,0.23151 0.161375,0.0691 0.336963,0.12296 0.537435,0.16536 0.200472,0.0424 0.425307,0.0661 0.669726,0.0661 0.26411,0 0.50854,-0.0301 0.735873,-0.0992 0.22733,-0.0691 0.426619,-0.17278 0.595312,-0.29766 0.168685,-0.12487 0.299061,-0.26876 0.396875,-0.43821 0.09781,-0.16945 0.148823,-0.35322 0.148828,-0.55398 -5e-6,-0.23191 -0.04091,-0.43253 -0.124023,-0.59531 -0.08312,-0.16277 -0.193826,-0.30194 -0.330729,-0.41341 -0.136909,-0.11147 -0.289412,-0.19544 -0.463021,-0.26458 -0.173614,-0.0691 -0.356587,-0.12521 -0.537435,-0.16537 -0.308134,-0.0625 -0.543338,-0.13787 -0.719336,-0.23151 -0.176001,-0.0936 -0.264586,-0.22045 -0.264583,-0.37207 -3e-6,-0.058 0.01291,-0.11405 0.04961,-0.16536 0.03671,-0.0513 0.08772,-0.0944 0.148828,-0.13229 0.0611,-0.0379 0.1309,-0.0687 0.206706,-0.0909 0.0758,-0.0223 0.153321,-0.0331 0.23151,-0.0331 0.117285,1e-5 0.225605,0.0146 0.33073,0.0413 0.105121,0.0268 0.201348,0.0591 0.289388,0.0992 0.08803,0.0402 0.168896,0.0855 0.239778,0.13229 0.07087,0.0468 0.1363,0.0922 0.19017,0.1323 l 0.636653,-0.64493 c -0.04402,-0.0401 -0.112866,-0.0962 -0.198437,-0.16536 -0.08558,-0.0691 -0.196215,-0.13378 -0.330729,-0.19844 -0.134523,-0.0646 -0.297207,-0.11854 -0.487826,-0.16536 -0.190627,-0.0468 -0.403704,-0.0744 -0.65319,-0.0744 z m 19.513021,0 c -0.361704,10e-6 -0.698209,0.0615 -1.008724,0.1819 -0.310523,0.12039 -0.574691,0.28644 -0.802019,0.4961 -0.227332,0.20967 -0.407842,0.45874 -0.537435,0.74414 -0.129595,0.28541 -0.19844,0.59164 -0.198437,0.92604 -3e-6,0.33005 0.06884,0.63839 0.198437,0.92604 0.129593,0.28765 0.310103,0.53448 0.537435,0.74414 0.227328,0.20967 0.491496,0.37572 0.802019,0.4961 0.310515,0.12038 0.64702,0.1819 1.008724,0.1819 0.361846,0 0.698201,-0.0615 1.008723,-0.1819 0.310515,-0.12038 0.582954,-0.28643 0.810287,-0.4961 0.227327,-0.20966 0.399568,-0.45649 0.529167,-0.74414 0.12959,-0.28765 0.198432,-0.59599 0.198437,-0.92604 -5e-6,-0.3344 -0.06885,-0.64063 -0.198437,-0.92604 -0.129599,-0.2854 -0.30184,-0.53447 -0.529167,-0.74414 -0.227333,-0.20966 -0.499772,-0.37571 -0.810287,-0.4961 -0.310522,-0.12037 -0.646877,-0.18189 -1.008723,-0.1819 z m 28.252536,0 c -0.30306,10e-6 -0.563,0.0422 -0.78548,0.11576 -0.22248,0.0736 -0.40483,0.17054 -0.55397,0.29765 -0.14914,0.12713 -0.26566,0.2732 -0.339,0.43822 -0.0733,0.16503 -0.10749,0.3419 -0.10749,0.52917 0,0.16945 0.0274,0.32474 0.091,0.46302 0.0636,0.13828 0.15795,0.25676 0.27285,0.3638 0.11489,0.10705 0.25449,0.19705 0.41341,0.27285 0.15891,0.0758 0.32685,0.13349 0.51263,0.17363 0.38139,0.0892 0.65909,0.1814 0.83509,0.27286 0.176,0.0915 0.26458,0.22365 0.26458,0.3886 0,0.0758 -0.0163,0.13822 -0.0579,0.19844 -0.0416,0.0602 -0.097,0.11477 -0.16537,0.1571 -0.0684,0.0423 -0.1484,0.0769 -0.23151,0.0992 -0.0831,0.0223 -0.16494,0.0331 -0.24805,0.0331 -0.1419,0 -0.27221,-0.0162 -0.39687,-0.0496 -0.12468,-0.0334 -0.24215,-0.0787 -0.34727,-0.13229 -0.10512,-0.0536 -0.20381,-0.11725 -0.28939,-0.1819 -0.0856,-0.0647 -0.15967,-0.1277 -0.22324,-0.19017 l -0.71107,0.7028 c 0.0928,0.0936 0.20941,0.1919 0.339,0.28112 0.1296,0.0892 0.26857,0.16244 0.42995,0.23151 0.16138,0.0691 0.34523,0.12296 0.5457,0.16536 0.20047,0.0424 0.42531,0.0661 0.66973,0.0661 0.26411,0 0.50854,-0.0301 0.73587,-0.0992 0.22733,-0.0691 0.42662,-0.17278 0.59531,-0.29766 0.16869,-0.12487 0.29906,-0.26876 0.39688,-0.43821 0.0978,-0.16945 0.14883,-0.35322 0.14883,-0.55398 0,-0.23191 -0.0409,-0.43253 -0.12403,-0.59531 -0.0831,-0.16277 -0.19382,-0.30194 -0.33072,-0.41341 -0.13691,-0.11147 -0.29769,-0.19544 -0.47129,-0.26458 -0.17362,-0.0691 -0.34832,-0.12521 -0.52917,-0.16537 -0.30813,-0.0625 -0.55161,-0.13787 -0.7276,-0.23151 -0.17601,-0.0936 -0.26459,-0.22045 -0.26459,-0.37207 0,-0.058 0.0212,-0.11405 0.0579,-0.16536 0.0367,-0.0513 0.0877,-0.0944 0.14883,-0.13229 0.0611,-0.0379 0.1309,-0.0687 0.2067,-0.0909 0.0758,-0.0223 0.15332,-0.0331 0.23151,-0.0331 0.11728,1e-5 0.22561,0.0146 0.33073,0.0413 0.10512,0.0268 0.20135,0.0591 0.28939,0.0992 0.088,0.0402 0.1689,0.0855 0.23978,0.13229 0.0709,0.0468 0.12803,0.0922 0.1819,0.1323 l 0.64492,-0.64493 c -0.044,-0.0401 -0.11286,-0.0962 -0.19843,-0.16536 -0.0856,-0.0691 -0.19622,-0.13378 -0.33073,-0.19844 -0.13452,-0.0646 -0.29721,-0.11854 -0.48783,-0.16536 -0.19063,-0.0468 -0.41197,-0.0744 -0.66146,-0.0744 z m -6.275584,0.008 c -0.376473,0 -0.717206,0.0615 -1.02526,0.1819 -0.308057,0.12039 -0.577075,0.28425 -0.802018,0.49609 -0.224946,0.21185 -0.398693,0.45874 -0.520899,0.74414 -0.122208,0.28541 -0.181901,0.59977 -0.181901,0.93431 0,0.34339 0.05873,0.65718 0.173633,0.94258 0.114895,0.28541 0.276074,0.5307 0.496094,0.73587 0.220017,0.20518 0.486648,0.36585 0.802018,0.47956 0.315365,0.11371 0.673923,0.16537 1.07487,0.16537 0.435261,0 0.826053,-0.0479 1.16582,-0.1571 0.339762,-0.10922 0.638699,-0.27054 0.892969,-0.47129 v -1.93477 h -1.885156 v 0.81856 h 0.859895 v 0.56224 c -0.127134,0.0936 -0.268573,0.16431 -0.429947,0.2067 -0.16138,0.0424 -0.341818,0.0579 -0.537435,0.0579 -0.210249,10e-6 -0.400318,-0.0323 -0.578776,-0.0992 -0.178464,-0.0669 -0.331042,-0.15849 -0.463021,-0.28112 -0.131982,-0.12263 -0.240853,-0.27254 -0.314193,-0.44648 -0.07334,-0.17394 -0.10749,-0.36469 -0.107487,-0.57878 -3e-6,-0.19626 0.02746,-0.38003 0.09095,-0.55397 0.06349,-0.17393 0.158834,-0.32545 0.281119,-0.45475 0.122283,-0.12929 0.270481,-0.23838 0.446485,-0.31419 0.175998,-0.0758 0.37856,-0.10748 0.603581,-0.10749 0.273809,10e-6 0.506288,0.0501 0.694531,0.1571 0.188232,0.10705 0.356248,0.24397 0.51263,0.41341 l 0.752409,-0.64492 c -0.220099,-0.26758 -0.500179,-0.47901 -0.835091,-0.62839 -0.334918,-0.14937 -0.72086,-0.22324 -1.165821,-0.22324 z m -89.2389959,0.11575 v 0.8847 h 1.5875 v 3.57188 h 1.1162109 v -3.57188 h 1.579232 v -0.8847 z m 4.9113279,0 v 4.45658 h 1.107943 v -1.82728 h 2.116666 v 1.82728 h 1.107943 v -4.45658 h -1.107943 v 1.71153 h -2.116666 v -1.71153 z m 5.283399,0 v 4.45658 h 3.505729 v -0.8847 h -2.397787 v -0.96738 h 1.736328 v -0.85163 h -1.736328 v -0.86817 h 2.24069 v -0.8847 z m 5.853906,0 v 4.45658 h 1.835547 c 0.293356,0 0.556643,-0.0193 0.79375,-0.0661 0.237098,-0.0468 0.439737,-0.12069 0.60358,-0.22324 0.163836,-0.10255 0.289907,-0.23627 0.380339,-0.39687 0.09042,-0.1606 0.132286,-0.35513 0.132291,-0.58705 -5e-6,-0.17829 -0.03661,-0.33141 -0.107487,-0.46302 -0.07088,-0.13161 -0.153659,-0.24375 -0.256315,-0.33073 -0.102663,-0.087 -0.215836,-0.15162 -0.330729,-0.19844 -0.1149,-0.0468 -0.209621,-0.0814 -0.297656,-0.0992 0.05864,-0.0133 0.129394,-0.0463 0.214974,-0.091 0.08557,-0.0446 0.163973,-0.10391 0.239779,-0.1819 0.0758,-0.078 0.14225,-0.17182 0.198437,-0.28112 0.05617,-0.10928 0.08268,-0.23756 0.08268,-0.38033 -5e-6,-0.15162 -0.03231,-0.28949 -0.09095,-0.42995 -0.05865,-0.14046 -0.14914,-0.26502 -0.28112,-0.37207 -0.131982,-0.10705 -0.302387,-0.19993 -0.51263,-0.26459 -0.210249,-0.0646 -0.465738,-0.0909 -0.768945,-0.091 z m 4.456575,0 v 2.76986 c 0,0.26758 0.05348,0.51287 0.148828,0.73587 0.09535,0.22301 0.226679,0.40998 0.405144,0.57051 0.178461,0.16053 0.398925,0.2851 0.65319,0.37207 0.254262,0.087 0.538718,0.13229 0.851627,0.13229 0.312902,0 0.597361,-0.0431 0.851628,-0.13229 0.254262,-0.0892 0.466455,-0.21378 0.644922,-0.37207 0.178456,-0.15829 0.318058,-0.3475 0.413411,-0.57051 0.09534,-0.223 0.140555,-0.46829 0.14056,-0.73587 v -2.76986 h -1.124479 v 2.63757 c -3e-6,0.14713 -0.0096,0.27867 -0.04134,0.39687 -0.03178,0.11821 -0.08376,0.22121 -0.157097,0.30593 -0.07334,0.0847 -0.169571,0.15162 -0.289388,0.19844 -0.119822,0.0468 -0.267067,0.0744 -0.438216,0.0744 -0.176077,0 -0.326739,-0.0276 -0.446484,-0.0744 -0.119748,-0.0468 -0.216051,-0.11372 -0.289388,-0.19844 -0.07334,-0.0847 -0.125317,-0.18772 -0.157097,-0.30593 -0.03177,-0.1182 -0.04961,-0.24974 -0.04961,-0.39687 v -2.63757 z m 9.367904,0 v 4.45658 h 1.107942 v -4.45658 z m 2.323372,0 v 4.45658 H 41.1309 v -2.94349 l 2.174545,2.94349 h 1.008723 v -4.45658 h -1.099674 v 2.89388 l -2.116667,-2.89388 z m 5.233789,0 v 4.45658 h 3.505729 v -0.8847 h -2.397786 v -0.96738 h 1.736328 v -0.85163 h -1.736328 v -0.86817 h 2.232422 v -0.8847 z m 14.527279,0 v 4.45658 H 60.8837 v -1.63711 h 0.611848 l 0.909506,1.63711 h 1.215429 l -1.083138,-1.78594 c 0.25426,-0.1293 0.447673,-0.29629 0.587045,-0.51263 0.139366,-0.21633 0.214971,-0.47077 0.214974,-0.76068 -3e-6,-0.19176 -0.03661,-0.37625 -0.107487,-0.5457 -0.07088,-0.16944 -0.178248,-0.31936 -0.322461,-0.44648 -0.144219,-0.12712 -0.322268,-0.22409 -0.537435,-0.29766 -0.215175,-0.0736 -0.468752,-0.10748 -0.752409,-0.10749 z m 4.456575,0 v 4.45658 h 3.505729 v -0.8847 H 65.36508 v -0.96738 h 1.736328 v -0.85163 H 65.36508 v -0.86817 h 2.232422 v -0.8847 z m 4.258138,0 v 4.45658 h 1.07487 V 366.154 h 0.752409 c 0.219942,0 0.436178,-0.0285 0.636653,-0.091 0.20047,-0.0625 0.375097,-0.15246 0.529167,-0.27285 0.154061,-0.12038 0.273375,-0.27407 0.363802,-0.45475 0.09042,-0.18067 0.140557,-0.38761 0.14056,-0.62838 -3e-6,-0.18728 -0.03327,-0.37177 -0.09922,-0.54571 -0.06596,-0.17393 -0.174829,-0.32313 -0.314193,-0.45475 -0.139369,-0.13161 -0.313999,-0.24222 -0.529166,-0.32246 -0.215175,-0.0802 -0.474157,-0.11575 -0.777214,-0.11576 z m 9.89707,0 v 4.45658 h 1.07487 v -1.63711 h 0.620117 l 0.909505,1.63711 h 1.21543 l -1.083138,-1.78594 c 0.254262,-0.1293 0.447672,-0.29629 0.587044,-0.51263 0.139367,-0.21633 0.206703,-0.47077 0.206706,-0.76068 -3e-6,-0.19176 -0.03661,-0.37625 -0.107487,-0.5457 -0.07089,-0.16944 -0.178247,-0.31936 -0.322461,-0.44648 -0.144222,-0.12712 -0.322268,-0.22409 -0.537435,-0.29766 -0.215172,-0.0736 -0.460483,-0.10748 -0.74414,-0.10749 z m 4.125846,0 v 0.8847 h 1.5875 v 3.57188 h 1.116211 v -3.57188 h 1.579232 v -0.8847 z m 4.911329,0 v 4.45658 h 1.107942 v -4.45658 z m 2.058789,0 v 4.45658 h 1.099674 v -2.94349 l 2.166276,2.94349 h 1.008724 v -4.45658 h -1.099674 v 2.89388 l -2.116667,-2.89388 z m 16.147851,0 v 0.8847 h 1.57923 v 3.57188 h 1.11621 v -3.57188 h 1.57923 v -0.8847 z m 5.51491,0 -1.82728,4.45658 h 1.15755 l 0.37207,-1.01699 h 1.72806 l 0.37207,1.01699 h 1.20716 l -1.78593,-4.45658 z m 3.55534,0 v 4.45658 h 1.0914 v -2.94349 l 2.16628,2.94349 h 1.00872 v -4.45658 h -1.0914 v 2.89388 l -2.12494,-2.89388 z m 5.22552,0 v 4.45658 h 1.84381 c 0.37648,0 0.72158,-0.0409 1.0418,-0.13229 0.32022,-0.0914 0.59456,-0.22831 0.82682,-0.41341 0.23225,-0.1851 0.41365,-0.42022 0.54571,-0.69454 0.13205,-0.27431 0.19843,-0.59731 0.19843,-0.96738 0,-0.38802 -0.0606,-0.72324 -0.19017,-1.00872 -0.12959,-0.28547 -0.31345,-0.51994 -0.5457,-0.7028 -0.23226,-0.18285 -0.50661,-0.31599 -0.82682,-0.40514 -0.32022,-0.0892 -0.66518,-0.13229 -1.0418,-0.1323 z m 6.39134,0 -1.82728,4.45658 h 1.16582 l 0.37207,-1.01699 h 1.71979 l 0.38034,1.01699 h 1.20716 l -1.7942,-4.45658 z m 3.55534,0 v 4.45658 h 1.08314 v -1.63711 h 0.61184 l 0.90951,1.63711 h 1.21543 l -1.08314,-1.78594 c 0.25426,-0.1293 0.45594,-0.29629 0.59531,-0.51263 0.13937,-0.21633 0.2067,-0.47077 0.20671,-0.76068 -1e-5,-0.19176 -0.0366,-0.37625 -0.10749,-0.5457 -0.0709,-0.16944 -0.17824,-0.31936 -0.32246,-0.44648 -0.14422,-0.12712 -0.32227,-0.22409 -0.53743,-0.29766 -0.21517,-0.0736 -0.46876,-0.10748 -0.75241,-0.10749 z m 4.45657,0 v 4.45658 h 1.84382 c 0.37647,0 0.72157,-0.0409 1.04179,-0.13229 0.32022,-0.0914 0.59457,-0.22831 0.82683,-0.41341 0.23225,-0.1851 0.42191,-0.42022 0.55397,-0.69454 0.13205,-0.27431 0.19016,-0.59731 0.19017,-0.96738 -1e-5,-0.38802 -0.0606,-0.72324 -0.19017,-1.00872 -0.1296,-0.28547 -0.31345,-0.51994 -0.5457,-0.7028 -0.23226,-0.18285 -0.50661,-0.31599 -0.82683,-0.40514 -0.32022,-0.0892 -0.66517,-0.13229 -1.04179,-0.1323 z M 24.966512,364.0456 h 0.653191 c 0.07818,0 0.159049,0.009 0.239778,0.0248 0.08072,0.0156 0.151405,0.0448 0.214974,0.0827 0.06356,0.0379 0.118002,0.0925 0.157097,0.1571 0.03909,0.0647 0.05787,0.14165 0.05788,0.23978 -5e-6,0.0936 -0.01878,0.17506 -0.05788,0.23977 -0.03909,0.0647 -0.08773,0.11093 -0.148829,0.14883 -0.06111,0.0379 -0.134247,0.0731 -0.214974,0.091 -0.08073,0.0178 -0.164936,0.0248 -0.248046,0.0248 h -0.653191 v -1.00872 z m 50.138542,0.0331 c 0.215167,0 0.407622,0.0421 0.578776,0.11576 0.171148,0.0736 0.318391,0.17053 0.438216,0.29765 0.119814,0.12713 0.209282,0.27704 0.272851,0.44649 0.06356,0.16945 0.09921,0.35393 0.09922,0.5457 -5e-6,0.19177 -0.03566,0.36799 -0.09922,0.53743 -0.06357,0.16945 -0.153037,0.31713 -0.272851,0.44649 -0.119825,0.12937 -0.267068,0.23012 -0.438216,0.30592 -0.171154,0.0758 -0.363609,0.11576 -0.578776,0.11576 -0.215025,0 -0.405168,-0.0399 -0.578777,-0.11576 -0.173614,-0.0758 -0.326667,-0.17655 -0.446484,-0.30592 -0.119822,-0.12936 -0.209362,-0.27704 -0.272851,-0.44649 -0.0635,-0.16944 -0.09095,-0.34566 -0.09095,-0.53743 -3e-6,-0.19177 0.02746,-0.37625 0.09095,-0.5457 0.06349,-0.16945 0.153029,-0.31936 0.272851,-0.44649 0.119817,-0.12712 0.27287,-0.22402 0.446484,-0.29765 0.173609,-0.0736 0.363752,-0.11576 0.578777,-0.11576 z m -5.514909,0.008 h 0.636653 c 0.20532,10e-6 0.373886,0.0637 0.496094,0.18191 0.122209,0.1182 0.181899,0.26748 0.181901,0.45475 -2e-6,0.18292 -0.06216,0.33277 -0.181901,0.44648 -0.119748,0.11372 -0.282358,0.17364 -0.487825,0.17364 h -0.644922 z m -8.706445,0.008 h 0.677994 c 0.20532,0 0.370465,0.05 0.487826,0.1571 0.117356,0.10704 0.17363,0.25543 0.173633,0.43821 -3e-6,0.16959 -0.05628,0.31022 -0.173633,0.42168 -0.117361,0.11147 -0.282506,0.16537 -0.487826,0.16537 H 60.8837 Z m 18.603515,0 h 0.686263 c 0.205319,0 0.362196,0.05 0.479557,0.1571 0.117356,0.10704 0.17363,0.25543 0.173633,0.43821 -3e-6,0.16959 -0.05628,0.31022 -0.173633,0.42168 -0.117361,0.11147 -0.274238,0.16537 -0.479557,0.16537 h -0.686263 z m 51.494535,0 h 0.67799 c 0.20532,0 0.37046,0.05 0.48783,0.1571 0.11735,0.10704 0.17363,0.25543 0.17363,0.43821 0,0.16959 -0.0563,0.31022 -0.17363,0.42168 -0.11737,0.11147 -0.28251,0.16537 -0.48783,0.16537 h -0.67799 z m -9.92188,0.0579 h 0.678 c 0.26396,0 0.48729,0.0346 0.67799,0.0992 0.1907,0.0646 0.34662,0.15465 0.47129,0.27285 0.12467,0.11821 0.22001,0.26275 0.28112,0.42995 0.0611,0.1672 0.0909,0.357 0.0909,0.56224 0,0.41021 -0.13284,0.72495 -0.39688,0.95911 -0.26404,0.23417 -0.63565,0.35553 -1.12447,0.35553 h -0.678 z m 14.40326,0 h 0.67799 c 0.26396,0 0.48729,0.0346 0.678,0.0992 0.19069,0.0646 0.34661,0.15465 0.47128,0.27285 0.12467,0.11821 0.22002,0.26275 0.28112,0.42995 0.0611,0.1672 0.091,0.357 0.091,0.56224 0,0.41021 -0.13283,0.72495 -0.39687,0.95911 -0.26404,0.23417 -0.63565,0.35553 -1.12448,0.35553 h -0.67799 z m -23.72155,0.0827 0.59531,1.68672 h -1.20716 z m 15.18047,0 0.58704,1.68672 h -1.19889 z m -101.955538,1.55443 h 0.719336 c 0.08311,0 0.175041,0.009 0.272852,0.0248 0.09781,0.0157 0.189738,0.0404 0.272852,0.0827 0.08311,0.0423 0.15291,0.1061 0.206705,0.1819 0.05379,0.0758 0.07441,0.16894 0.07441,0.28939 -2e-6,0.13379 -0.02643,0.23838 -0.08268,0.31419 -0.05626,0.0758 -0.123595,0.13348 -0.206706,0.17364 -0.08312,0.0402 -0.175043,0.0715 -0.272851,0.0827 -0.09781,0.0111 -0.186397,0.0165 -0.264584,0.0165 H 24.96651 v -1.16582 z"
         style="color:#000000;font-style:normal;font-variant:normal;font-weight:bold;font-stretch:normal;font-size:26.47401047px;line-height:125%;font-family:Effra;-inkscape-font-specification:'Effra Bold';text-align:start;letter-spacing:0px;word-spacing:0px;writing-mode:lr-tb;text-anchor:start;display:inline;overflow:visible;visibility:visible;opacity:1;fill:#31a1e1;fill-opacity:1;fill-rule:evenodd;stroke:none;stroke-width:5.29166651;marker:none;enable-background:accumulate" />
      <text
         transform="scale(0.97917798,1.0212648)"
         id="TM"
         y="310.15625"
         x="129.69453"
         style="font-style:normal;font-variant:normal;font-weight:normal;font-stretch:normal;font-size:3.91969299px;line-height:125%;font-family:'Lucida Sans Typewriter';-inkscape-font-specification:'Lucida Sans Typewriter';text-align:start;letter-spacing:0px;word-spacing:0px;writing-mode:lr-tb;text-anchor:start;opacity:1;fill:#000000;fill-opacity:1;stroke:none;stroke-width:0.26458332"
         xml:space="preserve"><tspan
           style="font-style:normal;font-variant:normal;font-weight:bold;font-stretch:normal;font-size:3.91969299px;line-height:125%;font-family:Verdana;-inkscape-font-specification:'Verdana Bold';text-align:start;writing-mode:lr-tb;text-anchor:start;fill:#000000;stroke-width:0.26458332"
           y="310.15625"
           x="129.69453"
           id="tspan3111"
           sodipodi:role="line">TM</tspan></text>
    </g>
  </g>
</svg>
